<svg width="75" height="77" viewBox="0 0 75 77" fill="none" xmlns="http://www.w3.org/2000/svg">
<g filter="url(#filter0_d_29_545)">
<path d="M37.5 68.6719C30.2083 66.849 24.2188 62.6172 19.5313 55.9766C14.8438 49.3359 12.5 42.0573 12.5 34.1406V15.5469L37.5 6.17188L62.5 15.5469V34.1406C62.5 42.0573 60.1563 49.3359 55.4688 55.9766C50.7813 62.6172 44.7917 66.849 37.5 68.6719ZM37.5 63.8281C43.4896 61.849 48.3724 58.112 52.1484 52.6172C55.9245 47.1224 57.8125 40.9635 57.8125 34.1406V18.8281L37.5 11.1719L17.1875 18.8281V34.1406C17.1875 40.9635 19.0755 47.1224 22.8516 52.6172C26.6276 58.112 31.5104 61.849 37.5 63.8281Z" fill="url(#paint0_linear_29_545)"/>
<path d="M32.8618 41.0668L37.5 51.4286L42.2368 41.0668L52.5 36.4286L42.2368 31.6918L37.5 21.4286L32.8618 31.6918L22.5 36.4286L32.8618 41.0668Z" fill="url(#paint1_linear_29_545)"/>
</g>
<defs>
<filter id="filter0_d_29_545" x="-4" y="0" width="83" height="83" filterUnits="userSpaceOnUse" color-interpolation-filters="sRGB">
<feFlood flood-opacity="0" result="BackgroundImageFix"/>
<feColorMatrix in="SourceAlpha" type="matrix" values="0 0 0 0 0 0 0 0 0 0 0 0 0 0 0 0 0 0 127 0" result="hardAlpha"/>
<feOffset dy="4"/>
<feGaussianBlur stdDeviation="2"/>
<feComposite in2="hardAlpha" operator="out"/>
<feColorMatrix type="matrix" values="0 0 0 0 0 0 0 0 0 0 0 0 0 0 0 0 0 0 0.25 0"/>
<feBlend mode="normal" in2="BackgroundImageFix" result="effect1_dropShadow_29_545"/>
<feBlend mode="normal" in="SourceGraphic" in2="effect1_dropShadow_29_545" result="shape"/>
</filter>
<linearGradient id="paint0_linear_29_545" x1="37.5" y1="6.17187" x2="37.5" y2="68.6719" gradientUnits="userSpaceOnUse">
<stop stop-color="#3959FF"/>
<stop offset="1" stop-color="#4FD1FF"/>
</linearGradient>
<linearGradient id="paint1_linear_29_545" x1="37.5" y1="6.17187" x2="37.5" y2="68.6719" gradientUnits="userSpaceOnUse">
<stop stop-color="#3959FF"/>
<stop offset="1" stop-color="#4FD1FF"/>
</linearGradient>
</defs>
</svg>
