<svg width="70" height="70" viewBox="0 0 70 70" fill="none" xmlns="http://www.w3.org/2000/svg">
<path d="M52.2084 61.25H19.8334V23.9166L40.1043 2.91663L42.948 5.17704C43.2397 5.4201 43.4584 5.76038 43.6043 6.19788C43.7501 6.63538 43.823 7.1701 43.823 7.80204V8.53121L40.5418 23.9166H62.3438C63.5105 23.9166 64.5313 24.3541 65.4063 25.2291C66.2813 26.1041 66.7188 27.125 66.7188 28.2916V34.2591C66.7188 34.6072 66.7553 34.9635 66.8282 35.3281C66.9011 35.6927 66.8647 36.0451 66.7188 36.3854L57.5313 57.5312C57.0998 58.5642 56.3804 59.4422 55.3734 60.1653C54.3663 60.8884 53.3114 61.25 52.2084 61.25ZM24.2084 56.875H53.1563L62.3438 35.0729V28.2916H35.1459L39.0105 10.1354L24.2084 25.7395V56.875ZM19.8334 23.9166V28.2916H10.1355V56.875H19.8334V61.25H5.7605V23.9166H19.8334Z" fill="url(#paint0_linear_29_502)"/>
<defs>
<linearGradient id="paint0_linear_29_502" x1="36.3126" y1="2.91663" x2="36.3126" y2="61.25" gradientUnits="userSpaceOnUse">
<stop stop-color="#3959FF"/>
<stop offset="1" stop-color="#4FCBFF"/>
</linearGradient>
</defs>
</svg>
