<svg width="70" height="73" viewBox="0 0 70 73" fill="none" xmlns="http://www.w3.org/2000/svg">
<g filter="url(#filter0_d_29_551)">
<path d="M27.2068 39.375C24.4301 39.375 22.0573 38.3936 20.0886 36.4307C18.1198 34.4679 17.1355 32.0981 17.1355 29.3214C17.1355 26.5446 18.1169 24.1719 20.0798 22.2032C22.0426 20.2344 24.4124 19.25 27.1891 19.25C29.9658 19.25 32.3386 20.2315 34.3073 22.1943C36.2761 24.1572 37.2605 26.527 37.2605 29.3037C37.2605 32.0804 36.279 34.4532 34.3162 36.4219C32.3533 38.3907 29.9835 39.375 27.2068 39.375ZM27.198 35C28.7778 35 30.1207 34.4471 31.2266 33.3412C32.3325 32.2353 32.8855 30.8924 32.8855 29.3125C32.8855 27.7327 32.3325 26.3898 31.2266 25.2839C30.1207 24.178 28.7778 23.625 27.198 23.625C25.6181 23.625 24.2752 24.178 23.1693 25.2839C22.0634 26.3898 21.5105 27.7327 21.5105 29.3125C21.5105 30.8924 22.0634 32.2353 23.1693 33.3412C24.2752 34.4471 25.6181 35 27.198 35ZM49.1459 42.7292C47.007 42.7292 45.1841 41.9757 43.6771 40.4688C42.1702 38.9618 41.4167 37.1389 41.4167 35C41.4167 32.8612 42.1702 31.0382 43.6771 29.5313C45.1841 28.0243 47.007 27.2709 49.1459 27.2709C51.2848 27.2709 53.1077 28.0243 54.6146 29.5313C56.1216 31.0382 56.875 32.8612 56.875 35C56.875 37.1389 56.1216 38.9618 54.6146 40.4688C53.1077 41.9757 51.2848 42.7292 49.1459 42.7292ZM30.7709 59.5C33.1042 55.1736 36.0816 52.2205 39.7032 50.6407C43.3247 49.0608 46.4723 48.2709 49.1459 48.2709C50.2639 48.2709 51.2969 48.3559 52.2448 48.5261C53.1927 48.6962 54.1771 48.9271 55.198 49.2188C56.4618 47.4202 57.5434 45.2784 58.4427 42.7935C59.3421 40.3087 59.7917 37.7108 59.7917 35C59.7917 28.079 57.39 22.2168 52.5867 17.4134C47.7833 12.6101 41.921 10.2084 35 10.2084C28.079 10.2084 22.2168 12.6101 17.4134 17.4134C12.6101 22.2168 10.2084 28.079 10.2084 35C10.2084 37.4792 10.573 39.8733 11.3021 42.1823C12.0313 44.4914 13.0278 46.5695 14.2917 48.4167C16.1389 47.4445 18.2049 46.6667 20.4896 46.0834C22.7743 45.5 25.0105 45.2084 27.198 45.2084C28.5313 45.2084 29.8126 45.2934 31.0417 45.4636C32.2709 45.6337 33.4202 45.9132 34.4896 46.3021C33.566 46.7882 32.7153 47.3108 31.9375 47.8698C31.1598 48.4289 30.4549 49.0243 29.823 49.6563C29.3368 49.6077 28.875 49.5834 28.4375 49.5834H27.198C25.5452 49.5834 23.7587 49.8143 21.8386 50.2761C19.9184 50.7379 18.2535 51.3091 16.8438 51.9896C18.691 53.9341 20.8177 55.5747 23.224 56.9115C25.6302 58.2483 28.1459 59.1111 30.7709 59.5ZM35.0342 64.1667C31.0253 64.1667 27.2466 63.4011 23.698 61.8698C20.1493 60.3386 17.0504 58.2483 14.4011 55.599C11.7518 52.9497 9.6615 49.8564 8.13025 46.3192C6.599 42.7819 5.83337 39.0024 5.83337 34.9806C5.83337 30.9589 6.599 27.1858 8.13025 23.6615C9.6615 20.1372 11.7518 17.0504 14.4011 14.4011C17.0504 11.7518 20.1437 9.6615 23.6809 8.13025C27.2181 6.599 30.9976 5.83337 35.0194 5.83337C39.0412 5.83337 42.8143 6.599 46.3386 8.13025C49.8629 9.6615 52.9497 11.7518 55.599 14.4011C58.2483 17.0504 60.3386 20.138 61.8698 23.6638C63.4011 27.1897 64.1667 30.9571 64.1667 34.9659C64.1667 38.9748 63.4011 42.7535 61.8698 46.3021C60.3386 49.8507 58.2483 52.9497 55.599 55.599C52.9497 58.2483 49.8621 60.3386 46.3363 61.8698C42.8104 63.4011 39.043 64.1667 35.0342 64.1667Z" fill="url(#paint0_linear_29_551)"/>
</g>
<defs>
<filter id="filter0_d_29_551" x="-4" y="0" width="78" height="78" filterUnits="userSpaceOnUse" color-interpolation-filters="sRGB">
<feFlood flood-opacity="0" result="BackgroundImageFix"/>
<feColorMatrix in="SourceAlpha" type="matrix" values="0 0 0 0 0 0 0 0 0 0 0 0 0 0 0 0 0 0 127 0" result="hardAlpha"/>
<feOffset dy="4"/>
<feGaussianBlur stdDeviation="2"/>
<feComposite in2="hardAlpha" operator="out"/>
<feColorMatrix type="matrix" values="0 0 0 0 0 0 0 0 0 0 0 0 0 0 0 0 0 0 0.25 0"/>
<feBlend mode="normal" in2="BackgroundImageFix" result="effect1_dropShadow_29_551"/>
<feBlend mode="normal" in="SourceGraphic" in2="effect1_dropShadow_29_551" result="shape"/>
</filter>
<linearGradient id="paint0_linear_29_551" x1="35" y1="5.83337" x2="35" y2="64.1667" gradientUnits="userSpaceOnUse">
<stop stop-color="#296AF1"/>
<stop offset="1" stop-color="#4FC6FF"/>
</linearGradient>
</defs>
</svg>
