<svg width="1377" height="546" viewBox="0 0 1377 546" fill="none" xmlns="http://www.w3.org/2000/svg">
<ellipse opacity="0.5" cx="688.5" cy="437" rx="688.5" ry="109" fill="url(#paint0_linear_53_2)"/>
<g filter="url(#filter0_d_53_2)">
<g clip-path="url(#clip0_53_2)">
<path d="M716.158 493V439.771L791.391 364.53V345.129H755.218L710.908 300.813H676.49L667.869 292.191V285.337H657.755L651.579 291.514L637.485 277.405L647.143 267.76H682.804L731.384 219.16V184.587L711.447 164.647V154.573H691.633V194.273L681.948 184.587H656.401V150.096L682.542 123.951V111.238L674.708 103.403L661.264 116.835H621.403L613.803 109.235H525.293L513.549 97.489L491 120.041V168.419L505.439 182.859L530.723 157.585L554.391 181.256H568.733L594.446 206.959V262.315L615.254 283.126H621.347L602.626 264.402H609.437L640.94 295.908H656.138L666.031 305.802H686.59V329.791L675.413 340.97V356.585L705.257 386.432V482.083L716.158 493Z" fill="#296AF1"/>
<path d="M679.406 59.585L703.267 83.4356V92.6939L717.733 107.162V135.393H700.158V103.376L688.704 91.9201H666.017V72.975L679.406 59.585Z" fill="#296AF1"/>
<path d="M707.716 33.1228V60.2622H728.262L742.037 74.0391V104.688L751.101 113.753V141.915L766.092 156.908H771.646V142.855L812.945 101.552V60.3865L821.29 52.0402V33.5511L787.729 0H767.28L748.71 18.572H729.547L714.997 33.1228H707.716Z" fill="#296AF1"/>
<path d="M805.663 275.47V310.376L827.438 332.154H869.455V361.214L887.887 379.661V417.22H901.717L933.883 385.064V345.032L961.185 317.727V307.888L934.173 280.873V257.7H881.02L871.5 248.179H833.02L805.663 275.47Z" fill="#296AF1"/>
<path d="M1131.25 374.202H1145.27L1156.16 363.299H1172.24V371.548H1177.67L1187.22 362H1193.95L1222.04 390.093V412.161L1202.74 431.465H1182.23V411.884H1161.62L1151.13 422.359H1132.08L1123 413.28V392.857H1131.25V374.202Z" fill="#296AF1"/>
<path d="M1226.49 106.305L1201.53 81.3491H1148.46L1138.84 71.7315H1110.36L1121.46 60.6214V48.6409H1080.06L1043.57 85.1353V97.3923H1024.48L1009.02 112.841H970.055L944.978 137.936L931.064 124.02H947.189V116.932L927.762 97.489H918.049L892.93 122.625H878.243L858.955 141.915V162.311H895.901V181.312H871.334L836.668 215.761V237.663H854.575L872.785 219.45H904.315L929.973 245.125H948.294V274.144L972.971 298.81H990.062V270.869H1008.18L1021.01 283.706V294.111L1039.11 312.214H1046.81V288.833L1062.66 272.983L1100.55 310.887L1109.69 301.753V281.025H1134.97L1146.99 268.99V231.072H1160.46L1194.29 197.244V182.832L1181.23 169.773L1192.04 158.953H1223.47L1207.79 174.637H1228.53L1284 119.17V106.305H1226.49Z" fill="#296AF1"/>
<path d="M651.814 184.545L646.121 181.464L643.496 184.545L640.94 183.108L639.365 176.807C639.365 176.807 638.315 175.301 636.435 174.927L635.012 170.575L635.91 169.594L635.012 167.037L635.496 166.07V164.343L638.024 164.094L641.216 163.776L638.024 163.458L635.579 163.209C635.593 163.002 635.606 162.726 635.565 162.436L637.458 161.427L640.304 159.907L637.182 160.694L635.151 161.206C634.957 160.902 634.667 160.612 634.28 160.363L635.164 159.119L637.03 156.494L634.584 158.594L633.05 159.907C632.719 159.838 632.36 159.796 631.959 159.782L631.724 157.848L631.309 154.449L630.895 157.848L630.66 159.824C630.094 159.879 629.596 159.976 629.154 160.114L627.468 158.608L625.064 156.452L626.874 159.119L627.924 160.667C627.662 160.833 627.427 161.012 627.233 161.206L624.691 161.137L622.715 161.081V157.682L621.209 151.754L621.582 146.503L620.629 143.573L621.14 141.487L622.715 140.92V138.046C622.715 138.046 622.204 137.424 620.353 137.189L621.196 135.241C621.196 135.241 621.016 135.103 620.712 134.937C621.859 133.237 620.85 130.322 620.85 130.322C619.994 132.09 618.847 131.69 618.184 132.574C617.493 133.514 618.087 134.453 618.211 134.633C617.714 134.785 617.424 135.02 617.424 135.02L617.755 137.093C617.783 137.12 617.81 137.12 617.838 137.148C615.918 137.341 615.393 138.06 615.393 138.06V140.312L616.747 141.556L617.092 143.352L618.142 151.823L617.99 158.58L619.04 164.577L617.092 168.032V171.556L619.04 172.606L617.99 174.25L619.413 176.807L619.938 179.28L619.413 181.45L621.582 186.024C620.159 188.87 619.026 194.577 619.026 194.577L621.182 195.199L621.569 192.85L619.924 202.758L620.905 212.058L620.38 216.562L619.855 216.853L619.399 221.205V230.284V230.436V235.991H617.147V239.598H613.583L614.038 246.728H647.295L647.751 239.598H644.187V235.991H642.791L642.349 226.166L642.805 225.337V218.207L643.413 217.53L642.888 214.904L643.938 213.785L642.736 200.809V196.761L642.764 201.113L644.38 200.809L646.176 193.914L648.346 192.864L651.275 188.663L650.667 187.309L651.814 184.545ZM626.847 165.78L625.645 167.949L624.746 167.493V164.799L624.083 163.969L624.94 164.038L626.239 164.149L626.847 165.78ZM624.581 161.828L626.487 162.311C626.349 162.629 626.266 162.933 626.225 163.182L624.94 163.348L623.71 163.513L623.544 163.306L622.715 162.408V161.358L624.581 161.828Z" fill="url(#paint1_linear_53_2)"/>
<path d="M631.309 154.448L631.724 157.862L632.138 161.261H631.309H630.467L630.895 157.862L631.309 154.448Z" fill="#B5F4F2"/>
<path d="M637.03 156.507L635.164 159.133L633.285 161.758L632.719 161.233L632.138 160.708L634.584 158.608L637.03 156.507Z" fill="#B5F4F2"/>
<path d="M625.064 156.452L626.874 159.119L628.684 161.786L629.278 161.275L629.859 160.763L627.468 158.608L625.064 156.452Z" fill="#B5F4F2"/>
<path d="M621.472 161.054L624.581 161.828L627.689 162.601L627.8 161.91L627.911 161.233L624.691 161.137L621.472 161.054Z" fill="#B5F4F2"/>
<path d="M621.748 163.776L624.94 164.052L628.132 164.329V163.624V162.933L624.94 163.348L621.748 163.776Z" fill="#B5F4F2"/>
<path d="M640.304 159.921L637.458 161.441L634.612 162.947L634.335 162.228L634.059 161.496L637.182 160.708L640.304 159.921Z" fill="#B5F4F2"/>
<path d="M641.23 163.79L638.024 164.108L634.833 164.425V163.79V163.14L638.024 163.472L641.23 163.79Z" fill="#B5F4F2"/>
<path d="M619.427 230.284V221.205L619.883 216.853L622.729 215.277L626.252 211.146L631.047 206.793L634.501 201.611C634.501 201.611 634.28 194.785 634.501 194.633C634.722 194.481 638.024 190.501 638.024 190.501L637.651 185.996L639.226 187.502L642.75 196.733V200.782L643.952 213.757H641.548L636.366 216.466L635.91 221.123L626.543 226L619.413 230.422" fill="#B5F4F2"/>
<path d="M643.496 184.545L644.477 189.713V193.154L644.394 200.809L646.19 193.914L648.373 192.864L651.302 188.663L650.694 187.309L651.814 184.545L646.121 181.464L643.496 184.545Z" fill="#B5F4F2"/>
<path d="M619.427 169.98L622.577 166.761L622.715 162.408V157.682L621.223 151.754L621.596 146.503L620.643 143.587L619.952 152.21L619.04 152.431L618.142 151.837L618.004 158.58L619.04 164.577L619.427 167.59V169.98Z" fill="#B5F4F2"/>
<path d="M617.769 137.106L617.438 135.034C617.438 135.034 618.225 134.412 619.344 134.522C620.463 134.633 621.196 135.255 621.196 135.255L620.353 137.203C620.353 137.203 619.289 138.115 617.769 137.106Z" fill="#B5F4F2"/>
<path d="M618.253 134.674C618.253 134.674 617.437 133.624 618.197 132.574C618.86 131.69 619.993 132.076 620.864 130.322C620.864 130.322 621.886 133.306 620.698 134.992C620.698 135.006 618.639 135.6 618.253 134.674Z" fill="#B5F4F2"/>
<path d="M627.91 164.812C627.91 164.812 630.135 164.066 631.434 162.712C631.434 162.712 632.843 163.721 634.017 164.232C634.017 164.232 633.852 168.004 633.561 169.013C633.285 170.022 630.632 169.98 630.632 169.98L628.353 168.944L627.91 164.812Z" fill="#B5F4F2"/>
<path d="M644.214 235.991H617.175V239.598H644.214V235.991Z" fill="#B5F4F2"/>
<path d="M647.323 246.714H614.066L613.61 239.584H647.765L647.323 246.714Z" fill="#B5F4F2"/>
<path d="M621.209 195.213L619.054 194.591C619.054 194.591 620.173 188.898 621.61 186.038C621.61 186.038 631.213 177.194 632.636 175.314L634.211 173.891L636.463 174.941L629.721 183.868L626.142 186.259L621.624 192.864L621.209 195.213Z" fill="#B5F4F2"/>
<path d="M938.194 179.239L938.553 174.9H936.37C934.408 170.05 932.515 164.55 930.843 158.373L931.658 155.582H930.111C927.127 143.67 924.999 129.423 924.778 112.703H921.406C921.185 129.423 919.058 143.67 916.059 155.582H914.512L915.327 158.373C913.655 164.55 911.762 170.036 909.8 174.9H907.617L907.963 179.239C900.847 195.227 893.552 202.827 893.552 202.827H906.982C906.982 194.494 914.18 187.737 923.064 187.737C931.949 187.737 939.147 194.494 939.147 202.827H952.577C952.591 202.827 945.309 195.227 938.194 179.239ZM920.757 162.035H925.399C926.159 167.134 927.444 172.053 928.259 174.914H917.897C918.712 172.053 919.997 167.134 920.757 162.035Z" fill="url(#paint2_linear_53_2)"/>
<path d="M923.493 108.309V101.372H922.678V108.309H920.564V113.615H925.593V108.309H923.493Z" fill="#B5F4F2"/>
<path d="M914.512 155.595H931.645L930.829 158.387H915.327L914.512 155.595Z" fill="#B5F4F2"/>
<path d="M907.617 174.9H938.539L938.194 179.239H907.963L907.617 174.9Z" fill="#B5F4F2"/>
<path d="M777.422 330.468L776.786 330.316C777.187 330.15 776.786 329.804 776.786 329.804L773.788 329.639C774.189 329.528 773.954 328.989 773.954 328.989L770.251 329.183C768.828 329.445 767.971 330.468 767.971 330.468L767.28 330.412L767.211 329.998L763.785 330.772L759.087 330.661L756.006 331.172L747.135 328.975L741.775 328.174L741.401 318.418C741.401 318.418 740.628 316.276 738.348 316.511C738.348 316.511 735.377 316.318 734.991 318.625C734.59 320.933 733.65 328.146 733.65 328.146L728.856 328.63L726.12 328.948L723.813 329.597L721.188 329.818L719.53 330.564C719.53 330.564 713.423 331.048 713.312 331.02C713.201 330.993 708.158 330.675 708.158 330.675L707.813 330.841L707.122 330.896C707.122 330.896 706.265 329.873 704.842 329.611L701.139 329.404C701.139 329.404 700.918 329.943 701.305 330.067L698.307 330.233C698.307 330.233 697.906 330.578 698.307 330.744L697.671 330.896C697.671 330.896 697.298 331.463 697.81 331.642H698.072C698.072 331.642 697.685 332.001 698.169 332.153H698.998C698.998 332.153 698.556 332.54 699.26 332.692C699.965 332.844 702.604 333.218 702.604 333.218C702.604 333.218 704.179 333.715 706.721 333.37L708.462 333.494C708.462 333.494 710.217 338.261 713.616 340.514L720.801 340.265L727.115 342.6V355.659C727.115 355.659 727.488 355.797 727.972 355.659L728.027 357.275C728.027 357.275 728.137 357.648 728.649 358.049L728.621 364.157C728.621 364.157 728.649 365.249 729.367 365.87V396.782H747.191V377.105C747.191 377.105 748.144 376.953 748.31 376.193V367.902C748.31 367.902 748.932 367.377 748.821 366.824L747.812 342.49L752.579 341.066L762.914 339.961C762.914 339.961 765.76 337.902 766.824 333.287L768.289 332.941C770.831 333.287 772.406 332.789 772.406 332.789C772.406 332.789 775.045 332.402 775.75 332.264C776.455 332.112 776.013 331.739 776.013 331.739H776.855C777.325 331.587 776.952 331.228 776.952 331.228H777.215C777.795 331.048 777.422 330.468 777.422 330.468Z" fill="url(#paint3_linear_53_2)"/>
<path d="M738.002 326.115C740.517 326.115 740.973 321.32 740.973 321.32C740.973 321.32 741.291 317.326 738.265 317.133C738.265 317.133 735.474 317.506 735.419 319.869C735.35 322.232 735.336 326.115 738.002 326.115Z" fill="#B5F4F2"/>
<path d="M747.868 342.504L747.343 329.003L743.888 328.478L741.788 328.16L741.899 331.02C741.277 331.684 740.586 332.292 739.951 332.541C738.196 333.231 735.391 332.803 735.391 332.803L733.664 328.132L726.134 328.934L723.826 329.583L721.201 329.804L719.543 330.551C719.543 330.551 723.481 334.862 731.619 339.035C731.619 339.035 737.339 339.408 742.161 337.847L743.28 366.023L743.861 366.479L746.016 366.023L747.08 367.612L748.337 367.902C748.337 367.902 748.959 367.377 748.849 366.824L747.868 342.504Z" fill="#B5F4F2"/>
<path d="M743.073 372.503V371.937H741.788L729.422 365.884V396.796H747.246V377.119C747.246 375.005 743.073 372.503 743.073 372.503Z" fill="#B5F4F2"/>
<path d="M707.841 330.841L707.15 330.896C707.15 330.896 706.293 329.874 704.87 329.611L701.167 329.404C701.167 329.404 700.946 329.943 701.333 330.067L698.335 330.233C698.335 330.233 697.934 330.578 698.335 330.744L697.699 330.896C697.699 330.896 697.326 331.463 697.837 331.642H698.1C698.1 331.642 697.713 332.002 698.196 332.154H699.025C699.025 332.154 698.583 332.54 699.288 332.692C699.993 332.844 702.632 333.218 702.632 333.218C702.632 333.218 704.207 333.715 706.749 333.37L708.49 333.494L708.144 330.661L707.841 330.841Z" fill="#B5F4F2"/>
<path d="M777.422 330.468L776.786 330.316C777.187 330.15 776.786 329.804 776.786 329.804L773.788 329.639C774.189 329.528 773.954 328.989 773.954 328.989L770.251 329.183C768.828 329.445 767.971 330.468 767.971 330.468L767.28 330.412L766.88 333.3L768.344 332.955C770.887 333.3 772.462 332.803 772.462 332.803C772.462 332.803 775.101 332.416 775.805 332.278C776.51 332.126 776.068 331.753 776.068 331.753H776.911C777.38 331.601 777.007 331.242 777.007 331.242H777.27C777.795 331.048 777.422 330.468 777.422 330.468Z" fill="#B5F4F2"/>
<path d="M1020.25 128.428V121.713H1019.1L1016.2 114.113V107.715H1015.61V106.388C1015.61 106.388 1013.74 100.902 1012.1 91.3121C1012.79 91.2154 1013.27 91.0081 1013.27 90.7456C1013.27 90.4692 1012.69 90.2343 1011.91 90.1652C1011.73 89.0459 1011.55 87.9128 1011.37 86.6968C1011.2 87.899 1011.02 89.0459 1010.84 90.1652C1010.05 90.2343 1009.47 90.4692 1009.47 90.7456C1009.47 90.9943 1009.96 91.2154 1010.65 91.3121C1009 100.902 1007.14 106.388 1007.14 106.388V107.715H1006.56V114.113L1003.67 121.713H1002.52V128.428H1001.59V198.902H1021.22V128.428H1020.25Z" fill="url(#paint4_linear_53_2)"/>
<path d="M1011.38 143.076C1007.95 143.076 1005.16 140.285 1005.16 136.858C1005.16 133.431 1007.95 130.639 1011.38 130.639C1014.81 130.639 1017.6 133.431 1017.6 136.858C1017.6 140.298 1014.81 143.076 1011.38 143.076Z" fill="#B5F4F2"/>
<path d="M1011.38 141.639C1008.76 141.639 1006.61 139.497 1006.61 136.871C1006.61 134.246 1008.74 132.104 1011.38 132.104C1014.02 132.104 1016.15 134.246 1016.15 136.871C1016.15 139.497 1014.01 141.639 1011.38 141.639ZM1011.38 132.463C1008.95 132.463 1006.97 134.439 1006.97 136.871C1006.97 139.303 1008.95 141.279 1011.38 141.279C1013.81 141.279 1015.79 139.303 1015.79 136.871C1015.79 134.439 1013.81 132.463 1011.38 132.463Z" fill="url(#paint5_linear_53_2)"/>
<path d="M1011.38 143.352C1007.8 143.352 1004.9 140.437 1004.9 136.858C1004.9 133.279 1007.82 130.377 1011.38 130.377C1014.96 130.377 1017.86 133.292 1017.86 136.858C1017.88 140.45 1014.96 143.352 1011.38 143.352ZM1011.38 131.012C1008.16 131.012 1005.54 133.638 1005.54 136.858C1005.54 140.091 1008.16 142.717 1011.38 142.717C1014.61 142.717 1017.24 140.091 1017.24 136.858C1017.24 133.638 1014.61 131.012 1011.38 131.012Z" fill="url(#paint6_linear_53_2)"/>
<path d="M1011.56 130.833H1011.2V132.284H1011.56V130.833Z" fill="url(#paint7_linear_53_2)"/>
<path d="M1008.94 132.988L1008.22 131.731L1008.52 131.551L1009.25 132.809L1008.94 132.988Z" fill="url(#paint8_linear_53_2)"/>
<path d="M1007.32 134.729L1006.08 134.011L1006.26 133.693L1007.5 134.425L1007.32 134.729Z" fill="url(#paint9_linear_53_2)"/>
<path d="M1006.79 136.692H1005.34V137.051H1006.79V136.692Z" fill="url(#paint10_linear_53_2)"/>
<path d="M1006.26 140.036L1006.08 139.732L1007.32 139L1007.5 139.317L1006.26 140.036Z" fill="url(#paint11_linear_53_2)"/>
<path d="M1008.52 142.178L1008.22 141.998L1008.94 140.74L1009.25 140.934L1008.52 142.178Z" fill="url(#paint12_linear_53_2)"/>
<path d="M1011.56 141.459H1011.2V142.91H1011.56V141.459Z" fill="url(#paint13_linear_53_2)"/>
<path d="M1014.24 142.178L1013.52 140.934L1013.84 140.74L1014.56 141.998L1014.24 142.178Z" fill="url(#paint14_linear_53_2)"/>
<path d="M1016.52 140.036L1015.26 139.317L1015.44 139L1016.7 139.732L1016.52 140.036Z" fill="url(#paint15_linear_53_2)"/>
<path d="M1017.42 136.692H1015.97V137.051H1017.42V136.692Z" fill="url(#paint16_linear_53_2)"/>
<path d="M1015.44 134.729L1015.26 134.425L1016.52 133.693L1016.7 134.011L1015.44 134.729Z" fill="url(#paint17_linear_53_2)"/>
<path d="M1013.84 132.988L1013.52 132.809L1014.24 131.551L1014.56 131.731L1013.84 132.988Z" fill="url(#paint18_linear_53_2)"/>
<path d="M1013.67 137.051H1011.2V133.168H1011.56V136.692H1013.67V137.051Z" fill="url(#paint19_linear_53_2)"/>
<path d="M1011.98 113.228V109.787C1011.98 109.4 1011.71 109.083 1011.38 109.083C1011.06 109.083 1010.8 109.4 1010.8 109.787V113.228C1010.99 113.228 1011.19 113.228 1011.38 113.228C1011.59 113.228 1011.78 113.228 1011.98 113.228Z" fill="#B5F4F2"/>
<path d="M1014.72 113.228V109.787C1014.72 109.4 1014.46 109.083 1014.13 109.083C1013.81 109.083 1013.55 109.4 1013.55 109.787V113.228C1013.74 113.228 1013.94 113.228 1014.13 113.228C1014.34 113.228 1014.55 113.228 1014.72 113.228Z" fill="#B5F4F2"/>
<path d="M1009.21 113.228V109.787C1009.21 109.4 1008.95 109.083 1008.62 109.083C1008.3 109.083 1008.04 109.4 1008.04 109.787V113.228C1008.23 113.228 1008.42 113.228 1008.62 113.228C1008.83 113.228 1009.02 113.228 1009.21 113.228Z" fill="#B5F4F2"/>
<path d="M1011.98 127.502V124.062C1011.98 123.675 1011.71 123.343 1011.38 123.343C1011.06 123.343 1010.8 123.661 1010.8 124.062V127.502C1010.99 127.502 1011.19 127.502 1011.38 127.502C1011.59 127.489 1011.78 127.502 1011.98 127.502Z" fill="#B5F4F2"/>
<path d="M1015.21 127.502V124.062C1015.21 123.675 1014.95 123.343 1014.61 123.343C1014.3 123.343 1014.02 123.661 1014.02 124.062V127.502C1014.21 127.502 1014.41 127.502 1014.61 127.502C1014.82 127.489 1015.02 127.502 1015.21 127.502Z" fill="#B5F4F2"/>
<path d="M1008.73 127.502V124.062C1008.73 123.675 1008.47 123.343 1008.13 123.343C1007.8 123.343 1007.54 123.661 1007.54 124.062V127.502C1007.73 127.502 1007.93 127.502 1008.13 127.502C1008.34 127.489 1008.53 127.502 1008.73 127.502Z" fill="#B5F4F2"/>
<path d="M1018.46 127.502V124.062C1018.46 123.675 1018.19 123.343 1017.88 123.343C1017.54 123.343 1017.29 123.661 1017.29 124.062V127.502C1017.49 127.502 1017.68 127.502 1017.88 127.502C1018.07 127.489 1018.26 127.502 1018.46 127.502Z" fill="#B5F4F2"/>
<path d="M1005.48 127.502V124.062C1005.48 123.675 1005.22 123.343 1004.89 123.343C1004.57 123.343 1004.31 123.661 1004.31 124.062V127.502C1004.5 127.502 1004.69 127.502 1004.89 127.502C1005.09 127.489 1005.29 127.502 1005.48 127.502Z" fill="#B5F4F2"/>
<path d="M1004.42 145.895H1004.06V159.078H1004.42V145.895Z" fill="#B5F4F2"/>
<path d="M1006.52 145.895H1006.16V159.078H1006.52V145.895Z" fill="#B5F4F2"/>
<path d="M1008.63 145.895H1008.27V159.078H1008.63V145.895Z" fill="#B5F4F2"/>
<path d="M1010.73 145.895H1010.37V159.078H1010.73V145.895Z" fill="#B5F4F2"/>
<path d="M1012.85 145.895H1012.49V159.078H1012.85V145.895Z" fill="#B5F4F2"/>
<path d="M1014.95 145.895H1014.59V159.078H1014.95V145.895Z" fill="#B5F4F2"/>
<path d="M1017.05 145.895H1016.69V159.078H1017.05V145.895Z" fill="#B5F4F2"/>
<path d="M1019.16 145.895H1018.8V159.078H1019.16V145.895Z" fill="#B5F4F2"/>
<path d="M1003.98 177.594H1003.62V190.777H1003.98V177.594Z" fill="#B5F4F2"/>
<path d="M1006.08 177.594H1005.72V190.777H1006.08V177.594Z" fill="#B5F4F2"/>
<path d="M1008.18 177.594H1007.82V190.777H1008.18V177.594Z" fill="#B5F4F2"/>
<path d="M1010.29 177.594H1009.93V190.777H1010.29V177.594Z" fill="#B5F4F2"/>
<path d="M1012.39 177.594H1012.03V190.777H1012.39V177.594Z" fill="#B5F4F2"/>
<path d="M1014.5 177.594H1014.14V190.777H1014.5V177.594Z" fill="#B5F4F2"/>
<path d="M1016.6 177.594H1016.24V190.777H1016.6V177.594Z" fill="#B5F4F2"/>
<path d="M1018.7 177.594H1018.34V190.777H1018.7V177.594Z" fill="#B5F4F2"/>
<path d="M1004.2 161.745H1003.84V174.927H1004.2V161.745Z" fill="#B5F4F2"/>
<path d="M1006.3 161.745H1005.94V174.927H1006.3V161.745Z" fill="#B5F4F2"/>
<path d="M1008.4 161.745H1008.04V174.927H1008.4V161.745Z" fill="#B5F4F2"/>
<path d="M1010.51 161.745H1010.15V174.927H1010.51V161.745Z" fill="#B5F4F2"/>
<path d="M1012.61 161.745H1012.25V174.927H1012.61V161.745Z" fill="#B5F4F2"/>
<path d="M1014.72 161.745H1014.37V174.927H1014.72V161.745Z" fill="#B5F4F2"/>
<path d="M1016.83 161.745H1016.47V174.927H1016.83V161.745Z" fill="#B5F4F2"/>
<path d="M1018.93 161.745H1018.57V174.927H1018.93V161.745Z" fill="#B5F4F2"/>
<path d="M1108.54 227.299L1109.44 226.443H1108.54V225.489H1104.29V226.443H1103.39L1104.29 227.299V229.4L1103.7 259.745H1098L1097.61 240.33V238.976L1098.19 238.423H1097.61V237.815H1094.89V238.423H1094.32L1094.89 238.976V240.33L1094.52 259.745H1092.82V239.487H1092.32V234.361L1092.61 234.015H1090.5L1090.79 234.361V239.487H1088.82V234.112L1089.11 233.767H1087L1087.29 234.112V239.487H1086.05V234.43H1078.75V239.487H1077.78V227.493H1057.53V259.745H1057.52V239.487H1056.55V234.43H1049.25V239.487H1048.01V234.112L1048.3 233.767H1046.19L1046.48 234.112V239.487H1044.51V234.361L1044.82 234.015H1042.69L1042.99 234.361V239.487H1042.48V259.745H1040.78L1040.41 240.33V238.976L1040.99 238.423H1040.41V237.815H1037.69V238.423H1037.11L1037.69 238.976V240.33L1037.32 259.745H1031.6L1031.01 229.4V227.299L1031.91 226.443H1031.01V225.489H1026.77V226.443H1025.86L1026.77 227.299V229.4L1026.18 259.745V266.806H1109.12V259.745L1108.54 229.4V227.299Z" fill="url(#paint20_linear_53_2)"/>
<path d="M1097.87 240.717H1094.63V241.132H1097.87V240.717Z" fill="#3BCCE0"/>
<path d="M1098.04 247.847H1094.48V248.262H1098.04V247.847Z" fill="#3BCCE0"/>
<path d="M1098.26 254.549H1094.27V254.964H1098.26V254.549Z" fill="#3BCCE0"/>
<path d="M1108.94 230.008H1103.87V230.671H1108.94V230.008Z" fill="#3BCCE0"/>
<path d="M1109.19 241.146H1103.64V241.795H1109.19V241.146Z" fill="#3BCCE0"/>
<path d="M1109.54 251.634H1103.29V252.283H1109.54V251.634Z" fill="#3BCCE0"/>
<path d="M1040.67 240.717H1037.43V241.132H1040.67V240.717Z" fill="#3BCCE0"/>
<path d="M1040.82 247.847H1037.27V248.262H1040.82V247.847Z" fill="#3BCCE0"/>
<path d="M1041.05 254.549H1037.05V254.964H1041.05V254.549Z" fill="#3BCCE0"/>
<path d="M1071.39 218.055C1068.15 216.189 1067.66 215.263 1067.66 215.263C1067.66 215.263 1067.17 216.189 1063.93 218.055C1062.46 218.898 1054.61 223.527 1057.53 231.721C1057.53 231.721 1067.66 227.811 1077.78 231.721C1080.7 223.513 1072.85 218.898 1071.39 218.055Z" fill="#D7FFFF"/>
<path d="M1068.58 214.324C1068.58 213.909 1068.32 213.578 1067.95 213.453C1068.13 213.357 1068.25 213.163 1068.25 212.956C1068.25 212.79 1068.17 212.638 1068.06 212.528L1067.88 210.98L1067.66 208.99L1067.44 210.98L1067.26 212.528C1067.13 212.638 1067.06 212.79 1067.06 212.956C1067.06 213.177 1067.19 213.357 1067.37 213.453C1066.99 213.578 1066.73 213.923 1066.73 214.324C1066.73 214.835 1067.15 215.25 1067.66 215.25C1068.17 215.25 1068.58 214.835 1068.58 214.324Z" fill="#D7FFFF"/>
<path d="M1083.74 231.348C1082.58 230.671 1082.4 230.339 1082.4 230.339C1082.4 230.339 1082.22 230.671 1081.05 231.348C1080.52 231.652 1077.69 233.31 1078.74 236.267C1078.74 236.267 1082.39 234.858 1086.03 236.267C1087.1 233.31 1084.26 231.652 1083.74 231.348Z" fill="#D7FFFF"/>
<path d="M1082.74 230.008C1082.74 229.842 1082.62 229.731 1082.47 229.704C1082.55 229.676 1082.62 229.607 1082.62 229.524C1082.62 229.455 1082.59 229.414 1082.55 229.372L1082.5 228.819L1082.41 228.101L1082.33 228.819L1082.27 229.372C1082.23 229.414 1082.21 229.469 1082.21 229.524C1082.21 229.621 1082.27 229.676 1082.36 229.704C1082.21 229.731 1082.08 229.856 1082.08 230.008C1082.08 230.187 1082.23 230.339 1082.41 230.339C1082.59 230.339 1082.74 230.187 1082.74 230.008Z" fill="#D7FFFF"/>
<path d="M1088.31 232.661C1088.22 232.578 1088.17 232.523 1088.13 232.481L1088.12 232.315L1088.06 231.735L1088 232.315L1087.98 232.495C1087.94 232.537 1087.9 232.606 1087.8 232.675C1087.71 232.772 1087.15 233.241 1087.36 234.084C1087.36 234.084 1088.08 233.684 1088.78 234.084C1088.98 233.214 1088.42 232.744 1088.31 232.661Z" fill="#D7FFFF"/>
<path d="M1091.81 232.91C1091.71 232.827 1091.67 232.772 1091.63 232.73L1091.62 232.564L1091.56 231.984L1091.49 232.564L1091.46 232.73C1091.42 232.772 1091.38 232.827 1091.28 232.91C1091.19 232.993 1090.63 233.476 1090.84 234.319C1090.84 234.319 1091.55 233.918 1092.26 234.319C1092.47 233.476 1091.92 232.993 1091.81 232.91Z" fill="#D7FFFF"/>
<path d="M1096.76 236.668C1096.33 236.42 1096.26 236.295 1096.26 236.295C1096.26 236.295 1096.19 236.42 1095.76 236.668C1095.57 236.779 1094.5 237.401 1094.89 238.506C1094.89 238.506 1096.26 237.981 1097.61 238.506C1098.01 237.414 1096.95 236.793 1096.76 236.668Z" fill="#D7FFFF"/>
<path d="M1096.38 236.171C1096.38 236.116 1096.34 236.06 1096.27 236.046C1096.3 236.033 1096.34 236.019 1096.34 235.977C1096.34 235.964 1096.33 235.964 1096.31 235.95L1096.29 235.701L1096.26 235.438L1096.23 235.701L1096.2 235.95C1096.2 235.964 1096.19 235.964 1096.19 235.977C1096.19 236.005 1096.22 236.033 1096.26 236.046C1096.19 236.06 1096.13 236.102 1096.13 236.171C1096.13 236.24 1096.2 236.295 1096.27 236.295C1096.33 236.295 1096.38 236.24 1096.38 236.171Z" fill="#D7FFFF"/>
<path d="M1107.2 223.693C1106.52 223.306 1106.41 223.112 1106.41 223.112C1106.41 223.112 1106.3 223.306 1105.63 223.693C1105.32 223.872 1103.66 224.84 1104.29 226.567C1104.29 226.567 1106.41 225.738 1108.54 226.567C1109.15 224.84 1107.5 223.872 1107.2 223.693Z" fill="#D7FFFF"/>
<path d="M1106.61 222.919C1106.61 222.822 1106.54 222.753 1106.45 222.739C1106.5 222.726 1106.54 222.684 1106.54 222.629C1106.54 222.587 1106.52 222.56 1106.5 222.532L1106.47 222.2L1106.43 221.786L1106.39 222.2L1106.34 222.532C1106.32 222.56 1106.3 222.587 1106.3 222.629C1106.3 222.684 1106.34 222.712 1106.39 222.726C1106.3 222.753 1106.23 222.822 1106.23 222.905C1106.23 223.016 1106.33 223.099 1106.43 223.099C1106.52 223.112 1106.61 223.03 1106.61 222.919Z" fill="#D7FFFF"/>
<path d="M1054.24 231.348C1053.08 230.671 1052.9 230.339 1052.9 230.339C1052.9 230.339 1052.72 230.671 1051.56 231.348C1051.04 231.652 1048.2 233.31 1049.25 236.267C1052.9 234.858 1056.55 236.267 1056.55 236.267C1057.6 233.31 1054.78 231.652 1054.24 231.348Z" fill="#D7FFFF"/>
<path d="M1053.23 230.008C1053.23 229.842 1053.11 229.731 1052.96 229.704C1053.04 229.676 1053.11 229.607 1053.11 229.524C1053.11 229.455 1053.08 229.414 1053.04 229.372L1052.97 228.819L1052.89 228.101L1052.8 228.819L1052.75 229.372C1052.71 229.414 1052.68 229.469 1052.68 229.524C1052.68 229.621 1052.73 229.676 1052.82 229.704C1052.67 229.731 1052.54 229.856 1052.54 230.008C1052.54 230.187 1052.69 230.339 1052.87 230.339C1053.09 230.339 1053.23 230.187 1053.23 230.008Z" fill="#D7FFFF"/>
<path d="M1047.5 232.661C1047.4 232.578 1047.36 232.523 1047.32 232.481L1047.3 232.315L1047.25 231.735L1047.19 232.315L1047.18 232.481C1047.14 232.523 1047.1 232.578 1047 232.661C1046.9 232.758 1046.35 233.228 1046.56 234.07C1047.26 233.67 1047.98 234.07 1047.98 234.07C1048.16 233.214 1047.61 232.744 1047.5 232.661Z" fill="#D7FFFF"/>
<path d="M1044.02 232.91C1043.92 232.827 1043.88 232.772 1043.84 232.73L1043.82 232.564L1043.77 231.984L1043.7 232.564L1043.68 232.73C1043.64 232.785 1043.6 232.827 1043.49 232.91C1043.39 232.993 1042.84 233.476 1043.05 234.319C1043.77 233.918 1044.47 234.319 1044.47 234.319C1044.67 233.476 1044.11 232.993 1044.02 232.91Z" fill="#D7FFFF"/>
<path d="M1039.55 236.668C1039.11 236.42 1039.04 236.295 1039.04 236.295C1039.04 236.295 1038.99 236.42 1038.54 236.668C1038.35 236.779 1037.29 237.401 1037.69 238.506C1039.04 237.981 1040.41 238.506 1040.41 238.506C1040.81 237.414 1039.75 236.793 1039.55 236.668Z" fill="#D7FFFF"/>
<path d="M1039.17 236.171C1039.17 236.116 1039.13 236.06 1039.06 236.046C1039.1 236.033 1039.13 236.019 1039.13 235.977C1039.13 235.964 1039.11 235.964 1039.1 235.95L1039.07 235.701L1039.03 235.438L1039 235.701L1038.97 235.95C1038.97 235.964 1038.96 235.964 1038.96 235.977C1038.96 236.005 1038.99 236.033 1039.03 236.033C1038.96 236.046 1038.92 236.088 1038.92 236.157C1038.92 236.226 1038.97 236.281 1039.04 236.281C1039.11 236.295 1039.17 236.24 1039.17 236.171Z" fill="#D7FFFF"/>
<path d="M1029.67 223.693C1029 223.306 1028.9 223.112 1028.9 223.112C1028.9 223.112 1028.8 223.306 1028.11 223.693C1027.81 223.872 1026.17 224.84 1026.77 226.567C1028.9 225.738 1031.03 226.567 1031.03 226.567C1031.62 224.84 1029.98 223.872 1029.67 223.693Z" fill="#D7FFFF"/>
<path d="M1029.08 222.919C1029.08 222.822 1029.01 222.753 1028.93 222.739C1028.98 222.725 1029.01 222.684 1029.01 222.642C1029.01 222.601 1029 222.573 1028.97 222.546L1028.94 222.214L1028.9 221.8L1028.86 222.214L1028.82 222.546C1028.79 222.573 1028.78 222.601 1028.78 222.642C1028.78 222.698 1028.82 222.739 1028.86 222.753C1028.78 222.767 1028.71 222.836 1028.71 222.933C1028.71 223.043 1028.79 223.126 1028.9 223.126C1029 223.112 1029.08 223.029 1029.08 222.919Z" fill="#D7FFFF"/>
<path d="M1031.43 230.008H1026.36V230.671H1031.43V230.008Z" fill="#3BCCE0"/>
<path d="M1031.66 241.146H1026.11V241.795H1031.66V241.146Z" fill="#3BCCE0"/>
<path d="M1032.01 251.634H1025.76V252.283H1032.01V251.634Z" fill="#3BCCE0"/>
<path d="M1084.32 250.957C1084.32 250.957 1084.32 247.889 1084.32 246.217C1084.32 244.738 1082.16 243.978 1082.16 243.978C1082.16 243.978 1080.01 244.738 1080.01 246.217C1080.01 247.889 1080.01 250.957 1080.01 250.957H1084.32Z" fill="#D7FFFF"/>
<path d="M1084.32 259.745C1084.32 259.745 1084.32 256.677 1084.32 255.005C1084.32 253.527 1082.16 252.781 1082.16 252.781C1082.16 252.781 1080.01 253.527 1080.01 255.005C1080.01 256.677 1080.01 259.745 1080.01 259.745H1084.32Z" fill="#D7FFFF"/>
<path d="M1089.68 250.956C1089.68 250.956 1089.68 248.414 1089.68 247.018C1089.68 245.788 1088.19 245.167 1088.19 245.167C1088.19 245.167 1086.7 245.788 1086.7 247.018C1086.7 248.414 1086.7 250.956 1086.7 250.956H1089.68Z" fill="#D7FFFF"/>
<path d="M1089.68 259.745C1089.68 259.745 1089.68 256.871 1089.68 255.475C1089.68 254.259 1088.19 253.623 1088.19 253.623C1088.19 253.623 1086.7 254.245 1086.7 255.475C1086.7 256.871 1086.7 259.745 1086.7 259.745H1089.68Z" fill="#D7FFFF"/>
<path d="M1107.2 229.151H1105.64C1105.64 229.151 1105.64 228.239 1105.64 227.631C1105.64 227.092 1106.43 226.816 1106.43 226.816C1106.43 226.816 1107.21 227.092 1107.21 227.631C1107.2 228.253 1107.2 229.151 1107.2 229.151Z" fill="#D7FFFF"/>
<path d="M1050.98 250.957C1050.98 250.957 1050.98 247.889 1050.98 246.217C1050.98 244.738 1053.14 243.978 1053.14 243.978C1053.14 243.978 1055.29 244.738 1055.29 246.217C1055.29 247.889 1055.29 250.957 1055.29 250.957H1050.98Z" fill="#D7FFFF"/>
<path d="M1050.98 259.745C1050.98 259.745 1050.98 256.677 1050.98 255.005C1050.98 253.527 1053.14 252.781 1053.14 252.781C1053.14 252.781 1055.29 253.527 1055.29 255.005C1055.29 256.677 1055.29 259.745 1055.29 259.745H1050.98Z" fill="#D7FFFF"/>
<path d="M1045.63 250.956C1045.63 250.956 1045.63 248.414 1045.63 247.018C1045.63 245.788 1047.13 245.167 1047.13 245.167C1047.13 245.167 1048.62 245.788 1048.62 247.018C1048.62 248.414 1048.62 250.956 1048.62 250.956H1045.63Z" fill="#D7FFFF"/>
<path d="M1045.63 259.745C1045.63 259.745 1045.63 256.871 1045.63 255.475C1045.63 254.259 1047.13 253.623 1047.13 253.623C1047.13 253.623 1048.62 254.245 1048.62 255.475C1048.62 256.871 1048.62 259.745 1048.62 259.745H1045.63Z" fill="#D7FFFF"/>
<path d="M1028.11 227.645C1028.11 227.106 1028.9 226.83 1028.9 226.83C1028.9 226.83 1029.67 227.106 1029.67 227.645C1029.67 228.253 1029.67 229.165 1029.67 229.165H1028.11C1028.11 229.151 1028.11 228.253 1028.11 227.645Z" fill="#D7FFFF"/>
<path d="M1073.68 259.745C1073.68 259.745 1073.68 251.786 1073.68 247.447C1073.68 243.619 1068.1 241.67 1068.1 241.67C1068.1 241.67 1062.5 243.633 1062.5 247.447C1062.5 251.786 1062.5 259.745 1062.5 259.745H1073.68Z" fill="#D7FFFF"/>
<path d="M1083.34 239.487C1083.34 239.487 1083.34 238.161 1083.34 237.442C1083.34 236.806 1082.41 236.475 1082.41 236.475C1082.41 236.475 1081.47 236.806 1081.47 237.442C1081.47 238.161 1081.47 239.487 1081.47 239.487H1083.34Z" fill="#D7FFFF"/>
<path d="M1051.97 239.487C1051.97 239.487 1051.97 238.161 1051.97 237.442C1051.97 236.806 1052.9 236.475 1052.9 236.475C1052.9 236.475 1053.84 236.806 1053.84 237.442C1053.84 238.161 1053.84 239.487 1053.84 239.487H1051.97Z" fill="#D7FFFF"/>
<path d="M1096.76 240.164H1095.76C1095.76 240.164 1095.76 239.584 1095.76 239.197C1095.76 238.852 1096.26 238.686 1096.26 238.686C1096.26 238.686 1096.76 238.865 1096.76 239.197C1096.76 239.584 1096.76 240.164 1096.76 240.164Z" fill="#D7FFFF"/>
<path d="M1038.54 239.197C1038.54 238.852 1039.04 238.686 1039.04 238.686C1039.04 238.686 1039.55 238.865 1039.55 239.197C1039.55 239.584 1039.55 240.164 1039.55 240.164H1038.56C1038.54 240.164 1038.54 239.584 1038.54 239.197Z" fill="#D7FFFF"/>
<path d="M1109.12 264.499H1026.18V270.427H1109.12V264.499Z" fill="#D7FFFF"/>
<path d="M1149.95 172.73H1089.52V184.269H1149.95V172.73Z" fill="url(#paint21_linear_53_2)"/>
<path d="M1143.36 169.372C1153.49 169.276 1156.06 164.066 1156.06 164.066C1146.62 165.545 1139.39 161.095 1139.39 161.095H1100.06C1100.06 161.095 1092.83 165.545 1083.39 164.066C1083.39 164.066 1086.02 169.386 1096.4 169.386L1143.36 169.372Z" fill="url(#paint22_linear_53_2)"/>
<path d="M1139.23 156.894C1144.99 156.894 1147.67 152.39 1147.67 152.39C1127.4 154.062 1119.75 145.37 1119.75 145.37C1119.75 145.37 1112.09 154.075 1091.82 152.39C1091.82 152.39 1094.49 156.894 1100.26 156.894H1139.23Z" fill="url(#paint23_linear_53_2)"/>
<path d="M1139.41 156.894H1100.07V161.081H1139.41V156.894Z" fill="#B5F4F2"/>
<path d="M1149.95 184.255V172.73V167.811H1089.52V172.73V184.269H1086.78V187.557H1152.67V184.269H1149.95V184.255ZM1091.02 184.255V172.73H1098.25V184.269H1091.02V184.255ZM1099.75 184.255V172.73H1111.25V184.269H1099.75V184.255ZM1123.3 184.255V176.503H1116.17V184.255H1112.75V172.73H1126.71V184.269H1123.3V184.255ZM1128.22 184.255V172.73H1139.71V184.269H1128.22V184.255ZM1141.22 184.255V172.73H1148.44V184.269H1141.22V184.255Z" fill="#B5F4F2"/>
<path d="M1121.5 142.288C1121.71 141.957 1121.83 141.584 1121.83 141.169C1121.83 140.008 1120.89 139.069 1119.73 139.069C1118.57 139.069 1117.63 140.008 1117.63 141.169C1117.63 141.584 1117.76 141.957 1117.96 142.288C1116.9 142.896 1116.17 144.043 1116.17 145.37C1116.17 147.332 1117.77 148.935 1119.73 148.935C1121.69 148.935 1123.3 147.346 1123.3 145.37C1123.3 144.043 1122.56 142.91 1121.5 142.288Z" fill="#B5F4F2"/>
<path d="M904.978 287.741L915.092 299.611L925.22 311.495H904.978H884.723L894.85 299.611L904.978 287.741Z" fill="url(#paint24_linear_53_2)"/>
<path opacity="0.2" d="M904.978 287.741L910.56 311.495H925.22L904.978 287.741Z" fill="black"/>
<path d="M881.725 280.431L894.961 295.963L908.198 311.495H881.725H855.238L868.474 295.963L881.725 280.431Z" fill="url(#paint25_linear_53_2)"/>
<path opacity="0.2" d="M881.724 280.431L889.034 311.495H908.197L881.724 280.431Z" fill="black"/>
<path d="M939.437 261.334H1001.06L998.407 242.527C998.407 242.527 988.625 237.691 975.996 238.548V239.584H974.67V238.437L972.957 239.004V239.764H969.779V237.29H965.841L963.934 232.923V229.22L963.133 228.419H962.042L960.135 222.864L958.615 221.634C958.615 221.634 947.41 224.287 942.574 232.274L942.864 234.181L942.007 235.894L939.437 261.334Z" fill="url(#paint26_linear_53_2)"/>
<path d="M961.82 235.328C961.82 234.305 961.088 233.186 960.19 233.186C959.292 233.186 958.56 234.015 958.56 235.052V238.741H961.82V235.328Z" fill="#B5F4F2"/>
<path d="M956.929 236.682C956.929 235.66 956.197 234.54 955.299 234.54C954.401 234.54 953.668 235.369 953.668 236.406V240.095H956.929V236.682Z" fill="#B5F4F2"/>
<path d="M952.591 238.161C952.591 237.221 951.955 236.212 951.168 236.212C950.38 236.212 949.745 236.972 949.745 237.898V241.256H952.591V238.161Z" fill="#B5F4F2"/>
<path d="M948.321 239.487C948.321 238.548 947.907 237.539 947.396 237.539C946.884 237.539 946.47 238.299 946.47 239.238V242.61H948.321V239.487Z" fill="#B5F4F2"/>
<path d="M944.826 240.911C944.826 239.971 944.508 238.962 944.107 238.962C943.707 238.962 943.389 239.722 943.389 240.662V244.02H944.812V240.911H944.826Z" fill="#B5F4F2"/>
<path d="M961.793 244.586C961.793 243.564 961.06 242.444 960.162 242.444C959.264 242.444 958.532 243.287 958.532 244.31V249.616H961.793V244.586Z" fill="#B5F4F2"/>
<path d="M967.112 243.646C967.112 242.61 966.325 241.505 965.344 241.505C964.363 241.505 963.575 242.334 963.575 243.37V249.63H967.112V243.646Z" fill="#B5F4F2"/>
<path d="M967.112 255.337C967.112 254.314 966.187 253.195 965.054 253.195C963.921 253.195 962.995 254.038 962.995 255.061V261.32H967.112V255.337Z" fill="#B5F4F2"/>
<path d="M991.112 255.765C991.112 254.812 990.297 253.762 989.288 253.762C988.293 253.762 987.478 254.536 987.478 255.503V261.32H991.112V255.765Z" fill="#B5F4F2"/>
<path d="M995.741 256.553C995.741 255.724 995.105 254.84 994.331 254.84C993.558 254.84 992.922 255.503 992.922 256.318V261.32H995.727V256.553H995.741Z" fill="#B5F4F2"/>
<path d="M999.084 256.747C999.084 255.959 998.684 255.116 998.2 255.116C997.703 255.116 997.316 255.752 997.316 256.525V261.307H999.098V256.747H999.084Z" fill="#B5F4F2"/>
<path d="M973.883 255.337C973.883 254.314 972.957 253.195 971.824 253.195C970.691 253.195 969.765 254.038 969.765 255.061V261.32H973.883V255.337Z" fill="#B5F4F2"/>
<path d="M985.419 255.337C985.419 254.314 984.494 253.195 983.361 253.195C982.228 253.195 981.302 254.038 981.302 255.061V261.32H985.406V255.337H985.419Z" fill="#B5F4F2"/>
<path d="M981.192 245.678C981.192 244.683 980.293 243.591 979.188 243.591C978.083 243.591 977.185 244.407 977.185 245.402V251.482H981.178V245.678H981.192Z" fill="#B5F4F2"/>
<path d="M986.345 246.314C986.345 245.415 985.71 244.462 984.922 244.462C984.135 244.462 983.485 245.18 983.485 246.065V251.482H986.345V246.314Z" fill="#B5F4F2"/>
<path d="M990.435 246.811C990.435 246.009 990.034 245.139 989.523 245.139C989.026 245.139 988.611 245.788 988.611 246.59V251.482H990.421V246.811H990.435Z" fill="#B5F4F2"/>
<path d="M994.359 247.461C994.359 246.77 993.958 246.023 993.447 246.023C992.95 246.023 992.535 246.576 992.535 247.281V251.482H994.359V247.461Z" fill="#B5F4F2"/>
<path d="M998.076 247.986C998.076 247.377 997.772 246.728 997.371 246.728C996.984 246.728 996.666 247.212 996.666 247.82V251.482H998.076V247.986Z" fill="#B5F4F2"/>
<path d="M960.605 255.337C960.605 254.314 959.679 253.195 958.546 253.195C957.413 253.195 956.487 254.038 956.487 255.061V261.32H960.605V255.337Z" fill="#B5F4F2"/>
<path d="M954.263 255.765C954.263 254.812 953.558 253.762 952.701 253.762C951.845 253.762 951.14 254.536 951.14 255.503V261.32H954.263V255.765Z" fill="#B5F4F2"/>
<path d="M949.15 256.235C949.15 255.365 948.515 254.411 947.714 254.411C946.926 254.411 946.29 255.116 946.29 256V261.32H949.15V256.235Z" fill="#B5F4F2"/>
<path d="M944.549 257.175C944.549 256.456 943.969 255.682 943.251 255.682C942.532 255.682 941.952 256.263 941.952 256.981V261.32H944.549V257.175Z" fill="#B5F4F2"/>
<path d="M957.192 245.65C957.192 244.628 956.46 243.508 955.561 243.508C954.663 243.508 953.931 244.337 953.931 245.374V249.962L957.192 249.892V245.65Z" fill="#B5F4F2"/>
<path d="M952.563 246.852C952.563 245.913 951.928 244.904 951.14 244.904C950.352 244.904 949.717 245.664 949.717 246.604V249.962H952.563V246.852Z" fill="#B5F4F2"/>
<path d="M948.28 247.903C948.28 246.963 947.865 245.94 947.354 245.94C946.843 245.94 946.428 246.7 946.428 247.64V250.998H948.28V247.903Z" fill="#B5F4F2"/>
<path d="M944.798 249.036C944.798 248.096 944.48 247.073 944.094 247.073C943.693 247.073 943.389 247.833 943.389 248.773V252.145H944.812V249.036H944.798Z" fill="#B5F4F2"/>
<path d="M940.874 247.004C940.874 247.004 940.805 246.714 940.1 245.761C940.1 245.761 947.672 239.156 965.827 237.304H969.765V239.777C969.779 239.777 951.043 240.026 940.874 247.004Z" fill="#B5F4F2"/>
<path d="M941.524 239.777C941.524 239.777 940.999 239.446 940.764 238.782C940.764 238.782 948.225 231.666 963.934 229.234V231.417C963.934 231.417 950.739 232.274 941.524 239.777Z" fill="#B5F4F2"/>
<path d="M940.1 254.052C940.1 254.052 939.893 253.983 939.437 253.195C939.437 253.195 953.295 246.576 975.872 248.787V250.279L976.231 250.915V251.316C976.231 251.316 957.827 249.354 940.1 254.052Z" fill="#B5F4F2"/>
<g opacity="0.2">
<path d="M998.393 242.527C998.393 242.527 988.611 237.691 975.983 238.548V239.584H974.656V238.437L972.943 239.004V239.764H969.765L972.943 248.524L975.43 251.233L980.266 261.32H1001.03L998.393 242.527Z" fill="url(#paint27_linear_53_2)"/>
</g>
<path d="M943.361 86.5586C944.508 86.7659 945.655 86.9455 946.774 87.0975" stroke="white" stroke-width="2" stroke-miterlimit="10"/>
<path d="M953.655 87.7055C993.571 89.2393 1013.08 55.2045 1025.07 41.9388C1055.15 10.4881 1098.77 -0.483746 1125.89 29.2811C1152.56 58.5348 1134.1 95.9827 1097.87 121.948C1068.65 142.882 1061.4 166.07 1059.62 177.304" stroke="white" stroke-width="2" stroke-miterlimit="10" stroke-dasharray="5 5"/>
<path d="M1059.2 180.717C1059.01 182.928 1059.06 184.158 1059.06 184.158" stroke="white" stroke-width="2" stroke-miterlimit="10"/>
<path d="M796.102 294.844C797.124 295.41 798.175 295.908 799.225 296.322" stroke="white" stroke-width="2" stroke-miterlimit="10"/>
<path d="M805.829 297.87C823.224 299.528 840.965 283.112 832.606 264.167C822.354 240.924 800.302 248.58 782.7 232.716" stroke="white" stroke-width="2" stroke-miterlimit="10" stroke-dasharray="4.91 4.91"/>
<path d="M834.209 181.464C835.259 181.878 836.323 182.32 837.4 182.79" stroke="white" stroke-width="2" stroke-miterlimit="10"/>
<path d="M1154.69 272.5L1154.69 268.394L1153.49 267.5L1151.1 270.712L1151.1 272.5L1154.69 272.5Z" fill="#296AF1"/>
<path d="M1122.89 318.2L1121.66 317L1110.18 324.6L1120.02 335.4H1132.73L1122.89 324.6V318.2Z" fill="#296AF1"/>
<path d="M1090.51 319.4H1086L1103.22 344.6L1133.55 349V344.6L1107.73 336.6L1090.51 319.4Z" fill="#296AF1"/>
<path d="M1152.41 335.4L1144.62 333.8L1146 328.5L1177 335.4V347.8L1163.06 345.8L1152.41 335.4Z" fill="#296AF1"/>
</g>
<path d="M1205 184H1203.11L1196 217.092L1187 225.245V231L1205 221.5V184Z" fill="#296AF1"/>
<path d="M1136.29 298H1134.53L1131 310L1139.82 322H1143.79L1146 310L1136.29 298Z" fill="#296AF1"/>
</g>
<defs>
<filter id="filter0_d_53_2" x="487" y="0" width="801" height="501" filterUnits="userSpaceOnUse" color-interpolation-filters="sRGB">
<feFlood flood-opacity="0" result="BackgroundImageFix"/>
<feColorMatrix in="SourceAlpha" type="matrix" values="0 0 0 0 0 0 0 0 0 0 0 0 0 0 0 0 0 0 127 0" result="hardAlpha"/>
<feOffset dy="4"/>
<feGaussianBlur stdDeviation="2"/>
<feComposite in2="hardAlpha" operator="out"/>
<feColorMatrix type="matrix" values="0 0 0 0 0 0 0 0 0 0 0 0 0 0 0 0 0 0 0.25 0"/>
<feBlend mode="normal" in2="BackgroundImageFix" result="effect1_dropShadow_53_2"/>
<feBlend mode="normal" in="SourceGraphic" in2="effect1_dropShadow_53_2" result="shape"/>
</filter>
<linearGradient id="paint0_linear_53_2" x1="688.5" y1="328" x2="688.5" y2="421.988" gradientUnits="userSpaceOnUse">
<stop stop-color="#03FFA4"/>
<stop offset="1" stop-color="#D9D9D9" stop-opacity="0"/>
</linearGradient>
<linearGradient id="paint1_linear_53_2" x1="632.717" y1="255.352" x2="632.717" y2="161.727" gradientUnits="userSpaceOnUse">
<stop stop-color="#00BBD5"/>
<stop offset="0.8838" stop-color="#77DAE8"/>
</linearGradient>
<linearGradient id="paint2_linear_53_2" x1="923.079" y1="211.399" x2="923.079" y2="134.954" gradientUnits="userSpaceOnUse">
<stop stop-color="#21C4DB"/>
<stop offset="1" stop-color="#77DAE8"/>
</linearGradient>
<linearGradient id="paint3_linear_53_2" x1="737.565" y1="379.616" x2="737.565" y2="319.793" gradientUnits="userSpaceOnUse">
<stop stop-color="#00BBD4"/>
<stop offset="1" stop-color="#77DAE8"/>
</linearGradient>
<linearGradient id="paint4_linear_53_2" x1="1011.38" y1="206.529" x2="1011.38" y2="92.6218" gradientUnits="userSpaceOnUse">
<stop stop-color="#2DC7DD"/>
<stop offset="0.8838" stop-color="#77DAE8"/>
</linearGradient>
<linearGradient id="paint5_linear_53_2" x1="1011.39" y1="128.154" x2="1011.39" y2="145.669" gradientUnits="userSpaceOnUse">
<stop offset="0.1162" stop-color="#77DAE8"/>
<stop offset="0.2411" stop-color="#71D2DF"/>
<stop offset="0.443" stop-color="#60BBC7"/>
<stop offset="0.6967" stop-color="#4596A0"/>
<stop offset="0.9899" stop-color="#20646B"/>
<stop offset="1" stop-color="#1F6269"/>
</linearGradient>
<linearGradient id="paint6_linear_53_2" x1="1011.38" y1="128.153" x2="1011.38" y2="145.667" gradientUnits="userSpaceOnUse">
<stop offset="0.1162" stop-color="#77DAE8"/>
<stop offset="0.2411" stop-color="#71D2DF"/>
<stop offset="0.443" stop-color="#60BBC7"/>
<stop offset="0.6967" stop-color="#4596A0"/>
<stop offset="0.9899" stop-color="#20646B"/>
<stop offset="1" stop-color="#1F6269"/>
</linearGradient>
<linearGradient id="paint7_linear_53_2" x1="1011.39" y1="128.153" x2="1011.39" y2="145.677" gradientUnits="userSpaceOnUse">
<stop offset="0.1162" stop-color="#77DAE8"/>
<stop offset="0.2411" stop-color="#71D2DF"/>
<stop offset="0.443" stop-color="#60BBC7"/>
<stop offset="0.6967" stop-color="#4596A0"/>
<stop offset="0.9899" stop-color="#20646B"/>
<stop offset="1" stop-color="#1F6269"/>
</linearGradient>
<linearGradient id="paint8_linear_53_2" x1="1008.73" y1="128.152" x2="1008.73" y2="145.674" gradientUnits="userSpaceOnUse">
<stop offset="0.1162" stop-color="#77DAE8"/>
<stop offset="0.2411" stop-color="#71D2DF"/>
<stop offset="0.443" stop-color="#60BBC7"/>
<stop offset="0.6967" stop-color="#4596A0"/>
<stop offset="0.9899" stop-color="#20646B"/>
<stop offset="1" stop-color="#1F6269"/>
</linearGradient>
<linearGradient id="paint9_linear_53_2" x1="1006.79" y1="128.158" x2="1006.79" y2="145.66" gradientUnits="userSpaceOnUse">
<stop offset="0.1162" stop-color="#77DAE8"/>
<stop offset="0.2411" stop-color="#71D2DF"/>
<stop offset="0.443" stop-color="#60BBC7"/>
<stop offset="0.6967" stop-color="#4596A0"/>
<stop offset="0.9899" stop-color="#20646B"/>
<stop offset="1" stop-color="#1F6269"/>
</linearGradient>
<linearGradient id="paint10_linear_53_2" x1="1006.07" y1="128.198" x2="1006.07" y2="145.622" gradientUnits="userSpaceOnUse">
<stop offset="0.1162" stop-color="#77DAE8"/>
<stop offset="0.2411" stop-color="#71D2DF"/>
<stop offset="0.443" stop-color="#60BBC7"/>
<stop offset="0.6967" stop-color="#4596A0"/>
<stop offset="0.9899" stop-color="#20646B"/>
<stop offset="1" stop-color="#1F6269"/>
</linearGradient>
<linearGradient id="paint11_linear_53_2" x1="1006.79" y1="128.161" x2="1006.79" y2="145.663" gradientUnits="userSpaceOnUse">
<stop offset="0.1162" stop-color="#77DAE8"/>
<stop offset="0.2411" stop-color="#71D2DF"/>
<stop offset="0.443" stop-color="#60BBC7"/>
<stop offset="0.6967" stop-color="#4596A0"/>
<stop offset="0.9899" stop-color="#20646B"/>
<stop offset="1" stop-color="#1F6269"/>
</linearGradient>
<linearGradient id="paint12_linear_53_2" x1="1008.73" y1="128.147" x2="1008.73" y2="145.669" gradientUnits="userSpaceOnUse">
<stop offset="0.1162" stop-color="#77DAE8"/>
<stop offset="0.2411" stop-color="#71D2DF"/>
<stop offset="0.443" stop-color="#60BBC7"/>
<stop offset="0.6967" stop-color="#4596A0"/>
<stop offset="0.9899" stop-color="#20646B"/>
<stop offset="1" stop-color="#1F6269"/>
</linearGradient>
<linearGradient id="paint13_linear_53_2" x1="1011.39" y1="128.158" x2="1011.39" y2="145.666" gradientUnits="userSpaceOnUse">
<stop offset="0.1162" stop-color="#77DAE8"/>
<stop offset="0.2411" stop-color="#71D2DF"/>
<stop offset="0.443" stop-color="#60BBC7"/>
<stop offset="0.6967" stop-color="#4596A0"/>
<stop offset="0.9899" stop-color="#20646B"/>
<stop offset="1" stop-color="#1F6269"/>
</linearGradient>
<linearGradient id="paint14_linear_53_2" x1="1014.04" y1="128.147" x2="1014.04" y2="145.669" gradientUnits="userSpaceOnUse">
<stop offset="0.1162" stop-color="#77DAE8"/>
<stop offset="0.2411" stop-color="#71D2DF"/>
<stop offset="0.443" stop-color="#60BBC7"/>
<stop offset="0.6967" stop-color="#4596A0"/>
<stop offset="0.9899" stop-color="#20646B"/>
<stop offset="1" stop-color="#1F6269"/>
</linearGradient>
<linearGradient id="paint15_linear_53_2" x1="1015.98" y1="128.161" x2="1015.98" y2="145.663" gradientUnits="userSpaceOnUse">
<stop offset="0.1162" stop-color="#77DAE8"/>
<stop offset="0.2411" stop-color="#71D2DF"/>
<stop offset="0.443" stop-color="#60BBC7"/>
<stop offset="0.6967" stop-color="#4596A0"/>
<stop offset="0.9899" stop-color="#20646B"/>
<stop offset="1" stop-color="#1F6269"/>
</linearGradient>
<linearGradient id="paint16_linear_53_2" x1="1016.69" y1="128.198" x2="1016.69" y2="145.622" gradientUnits="userSpaceOnUse">
<stop offset="0.1162" stop-color="#77DAE8"/>
<stop offset="0.2411" stop-color="#71D2DF"/>
<stop offset="0.443" stop-color="#60BBC7"/>
<stop offset="0.6967" stop-color="#4596A0"/>
<stop offset="0.9899" stop-color="#20646B"/>
<stop offset="1" stop-color="#1F6269"/>
</linearGradient>
<linearGradient id="paint17_linear_53_2" x1="1015.98" y1="128.158" x2="1015.98" y2="145.66" gradientUnits="userSpaceOnUse">
<stop offset="0.1162" stop-color="#77DAE8"/>
<stop offset="0.2411" stop-color="#71D2DF"/>
<stop offset="0.443" stop-color="#60BBC7"/>
<stop offset="0.6967" stop-color="#4596A0"/>
<stop offset="0.9899" stop-color="#20646B"/>
<stop offset="1" stop-color="#1F6269"/>
</linearGradient>
<linearGradient id="paint18_linear_53_2" x1="1014.04" y1="128.152" x2="1014.04" y2="145.674" gradientUnits="userSpaceOnUse">
<stop offset="0.1162" stop-color="#77DAE8"/>
<stop offset="0.2411" stop-color="#71D2DF"/>
<stop offset="0.443" stop-color="#60BBC7"/>
<stop offset="0.6967" stop-color="#4596A0"/>
<stop offset="0.9899" stop-color="#20646B"/>
<stop offset="1" stop-color="#1F6269"/>
</linearGradient>
<linearGradient id="paint19_linear_53_2" x1="1012.44" y1="128.157" x2="1012.44" y2="145.662" gradientUnits="userSpaceOnUse">
<stop offset="0.1162" stop-color="#77DAE8"/>
<stop offset="0.2411" stop-color="#71D2DF"/>
<stop offset="0.443" stop-color="#60BBC7"/>
<stop offset="0.6967" stop-color="#4596A0"/>
<stop offset="0.9899" stop-color="#20646B"/>
<stop offset="1" stop-color="#1F6269"/>
</linearGradient>
<linearGradient id="paint20_linear_53_2" x1="1067.65" y1="267.986" x2="1067.65" y2="231.056" gradientUnits="userSpaceOnUse">
<stop stop-color="#2DC8DE"/>
<stop offset="0.8838" stop-color="#77DAE8"/>
</linearGradient>
<linearGradient id="paint21_linear_53_2" x1="1119.73" y1="185.858" x2="1119.73" y2="170.901" gradientUnits="userSpaceOnUse">
<stop stop-color="#38CAE0"/>
<stop offset="1" stop-color="#77DAE8"/>
</linearGradient>
<linearGradient id="paint22_linear_53_2" x1="1083.4" y1="165.231" x2="1156.06" y2="165.231" gradientUnits="userSpaceOnUse">
<stop stop-color="#34C9DF"/>
<stop offset="0.8838" stop-color="#77DAE8"/>
</linearGradient>
<linearGradient id="paint23_linear_53_2" x1="1091.81" y1="151.131" x2="1147.66" y2="151.131" gradientUnits="userSpaceOnUse">
<stop offset="0.0101" stop-color="#3ACBE0"/>
<stop offset="0.8838" stop-color="#77DAE8"/>
</linearGradient>
<linearGradient id="paint24_linear_53_2" x1="904.974" y1="315.297" x2="904.974" y2="287.215" gradientUnits="userSpaceOnUse">
<stop stop-color="#0AC4DD"/>
<stop offset="1" stop-color="#32E5FE"/>
</linearGradient>
<linearGradient id="paint25_linear_53_2" x1="881.72" y1="316.469" x2="881.72" y2="279.737" gradientUnits="userSpaceOnUse">
<stop stop-color="#00BBD4"/>
<stop offset="1" stop-color="#34E6FF"/>
</linearGradient>
<linearGradient id="paint26_linear_53_2" x1="970.247" y1="269.511" x2="970.247" y2="226.329" gradientUnits="userSpaceOnUse">
<stop offset="0.0101" stop-color="#2DC7DD"/>
<stop offset="0.8838" stop-color="#77DAE8"/>
</linearGradient>
<linearGradient id="paint27_linear_53_2" x1="985.399" y1="238.437" x2="985.399" y2="261.32" gradientUnits="userSpaceOnUse">
<stop/>
<stop offset="1" stop-opacity="0"/>
</linearGradient>
<clipPath id="clip0_53_2">
<rect width="793" height="493" fill="white" transform="translate(491)"/>
</clipPath>
</defs>
</svg>
