<svg width="780" height="716" viewBox="0 0 780 716" fill="none" xmlns="http://www.w3.org/2000/svg">
<rect width="780" height="716" fill="#A2D4F9"/>
<mask id="mask0_42_1823" style="mask-type:alpha" maskUnits="userSpaceOnUse" x="0" y="0" width="780" height="716">
<rect width="780" height="716" fill="#89BEF7"/>
</mask>
<g mask="url(#mask0_42_1823)">
<path d="M882 736C882 736 785.683 587 390 587C-5.68258 587 -102 736 -102 736H390H882Z" fill="url(#paint0_linear_42_1823)"/>
</g>
<g clip-path="url(#clip0_42_1823)">
<path d="M227.122 681.699V632.497L296.662 562.949V545.016H263.227L222.269 504.053H190.456L182.486 496.083V489.748H173.138L167.429 495.457L154.402 482.416L163.329 473.5H196.292L241.196 428.578V396.62L222.767 378.189V368.878H204.453V405.574L195.5 396.62H171.886V364.739L196.049 340.573V328.822L188.808 321.58L176.382 333.995H139.536L132.512 326.97H50.6985L39.8429 316.113L19 336.958V381.676L32.3461 395.024L55.7177 371.662L77.595 393.542H90.8517L114.619 417.3V468.468L133.853 487.704H139.485L122.18 470.397H128.476L157.595 499.519H171.643L180.788 508.664H199.791V530.838L189.459 541.171V555.605L217.046 583.194V671.608L227.122 681.699Z" fill="#296AF1"/>
<path d="M193.15 281.077L215.207 303.123V311.681L228.578 325.054V351.149H212.333V321.554L201.745 310.965H180.775V293.454L193.15 281.077Z" fill="#296AF1"/>
<path d="M219.319 256.617V281.703H238.31L251.043 294.437V322.767L259.421 331.146V357.178L273.278 371.036H278.412V358.046L316.586 319.868V281.818L324.299 274.103V257.013L293.278 226H274.376L257.211 243.167H239.498L226.049 256.617H219.319Z" fill="#296AF1"/>
<path d="M309.855 480.628V512.892L329.983 533.022H368.82V559.884L385.857 576.935V611.652H398.642L428.373 581.93V544.926L453.609 519.687V510.593L428.641 485.622V464.202H379.51L370.711 455.401H335.142L309.855 480.628Z" fill="#296AF1"/>
<path d="M610.806 571.889H623.769L633.833 561.811H648.699V569.436H653.718L662.543 560.61H668.763L694.727 586.578V606.976L676.885 624.82H657.932V606.72H638.878L629.184 616.402H611.572L603.182 608.011V589.132H610.806V571.889Z" fill="#296AF1"/>
<path d="M698.846 324.262L675.768 301.194H626.713L617.824 292.304H591.502L601.758 282.035V270.961H563.495L529.765 304.694V316.023H512.115L497.824 330.304H461.809L438.629 353.499L425.768 340.637H440.672V334.084L422.716 316.113H413.738L390.519 339.347H376.943L359.114 357.178V376.031H393.265V393.593H370.558L338.514 425.436V445.681H355.066L371.899 428.846H401.043L424.759 452.578H441.694V479.402L464.504 502.201H480.302V476.374H497.045L508.91 488.24V497.858L525.64 514.591H532.754V492.979L547.403 478.329L582.435 513.365L590.876 504.922V485.762H614.248L625.359 474.637V439.588H637.811L669.076 408.32V394.998L657.007 382.928L666.994 372.927H696.049L681.553 387.424H700.723L752 336.154V324.262H698.846Z" fill="#296AF1"/>
<path d="M167.646 396.582L162.384 393.734L159.958 396.582L157.595 395.254L156.139 389.429C156.139 389.429 155.168 388.037 153.431 387.692L152.116 383.669L152.946 382.762L152.116 380.399L152.563 379.505V377.908L154.9 377.678L157.85 377.384L154.9 377.091L152.64 376.861C152.652 376.669 152.665 376.414 152.627 376.145L154.377 375.213L157.007 373.808L154.121 374.536L152.244 375.009C152.065 374.728 151.797 374.459 151.439 374.229L152.256 373.08L153.981 370.653L151.72 372.595L150.302 373.808C149.996 373.744 149.664 373.706 149.294 373.693L149.076 371.905L148.693 368.763L148.31 371.905L148.093 373.731C147.569 373.782 147.11 373.872 146.701 374L145.143 372.607L142.921 370.615L144.594 373.08L145.564 374.51C145.322 374.664 145.105 374.83 144.926 375.009L142.576 374.945L140.749 374.894V371.752L139.357 366.272L139.702 361.418L138.821 358.71L139.294 356.782L140.749 356.258V353.601C140.749 353.601 140.277 353.026 138.566 352.809L139.345 351.008C139.345 351.008 139.179 350.881 138.898 350.727C139.958 349.156 139.025 346.461 139.025 346.461C138.234 348.096 137.174 347.726 136.56 348.543C135.922 349.412 136.471 350.28 136.586 350.446C136.126 350.587 135.858 350.804 135.858 350.804L136.165 352.72C136.19 352.745 136.216 352.745 136.241 352.771C134.466 352.95 133.981 353.614 133.981 353.614V355.696L135.232 356.846L135.552 358.506L136.522 366.336L136.382 372.582L137.352 378.125L135.552 381.318V384.576L137.352 385.546L136.382 387.066L137.697 389.429L138.182 391.716L137.697 393.721L139.702 397.949C138.387 400.58 137.34 405.855 137.34 405.855L139.332 406.43L139.689 404.259L138.17 413.417L139.076 422.013L138.591 426.177L138.106 426.445L137.684 430.469V438.86V439.001V444.136H135.603V447.469H132.308L132.729 454.06H163.47L163.891 447.469H160.596V444.136H159.306L158.898 435.054L159.319 434.288V427.697L159.881 427.071L159.396 424.644L160.366 423.609L159.255 411.616V407.873L159.281 411.897L160.775 411.616L162.435 405.242L164.44 404.271L167.148 400.388L166.586 399.137L167.646 396.582ZM144.568 379.236L143.457 381.242L142.627 380.82V378.33L142.014 377.563L142.806 377.627L144.006 377.729L144.568 379.236ZM142.474 375.583L144.236 376.03C144.108 376.324 144.032 376.605 143.993 376.835L142.806 376.988L141.669 377.142L141.516 376.95L140.749 376.12V375.149L142.474 375.583Z" fill="url(#paint1_linear_42_1823)"/>
<path d="M148.693 368.763L149.076 371.918L149.459 375.06H148.693H147.914L148.31 371.918L148.693 368.763Z" fill="#B5F4F2"/>
<path d="M153.981 370.666L152.256 373.093L150.519 375.519L149.996 375.034L149.459 374.549L151.72 372.607L153.981 370.666Z" fill="#B5F4F2"/>
<path d="M142.92 370.615L144.593 373.08L146.267 375.545L146.816 375.072L147.352 374.6L145.143 372.607L142.92 370.615Z" fill="#B5F4F2"/>
<path d="M139.6 374.868L142.474 375.583L145.347 376.299L145.449 375.66L145.552 375.034L142.576 374.945L139.6 374.868Z" fill="#B5F4F2"/>
<path d="M139.855 377.384L142.806 377.64L145.756 377.895V377.244V376.605L142.806 376.988L139.855 377.384Z" fill="#B5F4F2"/>
<path d="M157.008 373.821L154.377 375.226L151.746 376.618L151.49 375.954L151.235 375.277L154.121 374.549L157.008 373.821Z" fill="#B5F4F2"/>
<path d="M157.863 377.397L154.9 377.691L151.95 377.985V377.397V376.797L154.9 377.103L157.863 377.397Z" fill="#B5F4F2"/>
<path d="M137.71 438.86V430.468L138.131 426.445L140.762 424.989L144.019 421.17L148.45 417.146L151.643 412.356C151.643 412.356 151.439 406.047 151.643 405.906C151.847 405.766 154.9 402.087 154.9 402.087L154.555 397.923L156.011 399.315L159.268 407.848V411.59L160.379 423.584H158.157L153.367 426.087L152.946 430.392L144.287 434.901L137.697 438.988" fill="#B5F4F2"/>
<path d="M159.958 396.582L160.864 401.359V404.54L160.788 411.616L162.448 405.242L164.466 404.271L167.173 400.388L166.611 399.137L167.646 396.582L162.384 393.734L159.958 396.582Z" fill="#B5F4F2"/>
<path d="M137.71 383.119L140.622 380.143L140.75 376.12V371.751L139.37 366.272L139.715 361.418L138.834 358.723L138.195 366.693L137.352 366.898L136.522 366.349L136.395 372.582L137.352 378.125L137.71 380.91V383.119Z" fill="#B5F4F2"/>
<path d="M136.177 352.733L135.871 350.817C135.871 350.817 136.599 350.242 137.633 350.344C138.668 350.446 139.344 351.021 139.344 351.021L138.565 352.822C138.565 352.822 137.582 353.665 136.177 352.733Z" fill="#B5F4F2"/>
<path d="M136.624 350.485C136.624 350.485 135.87 349.514 136.573 348.543C137.186 347.726 138.233 348.083 139.038 346.461C139.038 346.461 139.983 349.22 138.885 350.778C138.885 350.791 136.982 351.34 136.624 350.485Z" fill="#B5F4F2"/>
<path d="M145.551 378.342C145.551 378.342 147.607 377.653 148.808 376.401C148.808 376.401 150.111 377.333 151.196 377.806C151.196 377.806 151.043 381.293 150.775 382.225C150.519 383.158 148.067 383.119 148.067 383.119L145.96 382.161L145.551 378.342Z" fill="#B5F4F2"/>
<path d="M160.622 444.135H135.628V447.469H160.622V444.135Z" fill="#B5F4F2"/>
<path d="M163.495 454.047H132.754L132.333 447.457H163.904L163.495 454.047Z" fill="#B5F4F2"/>
<path d="M139.357 406.443L137.365 405.868C137.365 405.868 138.399 400.606 139.727 397.962C139.727 397.962 148.604 389.787 149.919 388.05L151.375 386.734L153.457 387.705L147.224 395.956L143.916 398.166L139.74 404.271L139.357 406.443Z" fill="#B5F4F2"/>
<path d="M432.358 391.677L432.69 387.667H430.672C428.859 383.183 427.109 378.1 425.564 372.39L426.317 369.81H424.887C422.128 358.8 420.161 345.631 419.957 330.176H416.841C416.636 345.631 414.67 358.8 411.898 369.81H410.468L411.221 372.39C409.676 378.1 407.926 383.171 406.113 387.667H404.095L404.414 391.677C397.837 406.456 391.094 413.481 391.094 413.481H403.508C403.508 405.779 410.161 399.533 418.373 399.533C426.585 399.533 433.239 405.779 433.239 413.481H445.653C445.666 413.481 438.935 406.456 432.358 391.677ZM416.241 375.775H420.532C421.234 380.488 422.422 385.035 423.175 387.679H413.597C414.35 385.035 415.538 380.488 416.241 375.775Z" fill="url(#paint2_linear_42_1823)"/>
<path d="M418.77 326.114V319.702H418.016V326.114H416.062V331.019H420.711V326.114H418.77Z" fill="#B5F4F2"/>
<path d="M410.468 369.823H426.305L425.551 372.403H411.222L410.468 369.823Z" fill="#B5F4F2"/>
<path d="M404.095 387.667H432.678L432.358 391.677H404.414L404.095 387.667Z" fill="#B5F4F2"/>
<path d="M283.75 531.464L283.163 531.323C283.533 531.17 283.163 530.851 283.163 530.851L280.392 530.697C280.762 530.595 280.545 530.097 280.545 530.097L277.122 530.276C275.807 530.519 275.015 531.464 275.015 531.464L274.376 531.413L274.312 531.029L271.145 531.745L266.803 531.643L263.955 532.115L255.756 530.084L250.8 529.343L250.455 520.326C250.455 520.326 249.74 518.346 247.633 518.563C247.633 518.563 244.887 518.384 244.529 520.517C244.159 522.65 243.291 529.318 243.291 529.318L238.859 529.765L236.33 530.059L234.197 530.659L231.771 530.863L230.238 531.553C230.238 531.553 224.593 532 224.491 531.975C224.389 531.949 219.727 531.655 219.727 531.655L219.408 531.809L218.77 531.86C218.77 531.86 217.978 530.915 216.662 530.672L213.24 530.48C213.24 530.48 213.035 530.978 213.393 531.093L210.622 531.247C210.622 531.247 210.251 531.566 210.622 531.719L210.034 531.86C210.034 531.86 209.689 532.383 210.162 532.549H210.404C210.404 532.549 210.047 532.882 210.494 533.022H211.26C211.26 533.022 210.851 533.38 211.503 533.52C212.154 533.661 214.593 534.006 214.593 534.006C214.593 534.006 216.049 534.465 218.399 534.146L220.008 534.261C220.008 534.261 221.63 538.668 224.772 540.75L231.413 540.52L237.25 542.678V554.749C237.25 554.749 237.595 554.876 238.042 554.749L238.093 556.243C238.093 556.243 238.195 556.588 238.667 556.958L238.642 562.604C238.642 562.604 238.667 563.613 239.332 564.188V592.761H255.807V574.572C255.807 574.572 256.688 574.432 256.841 573.729V566.066C256.841 566.066 257.416 565.58 257.314 565.069L256.381 542.576L260.787 541.261L270.34 540.239C270.34 540.239 272.971 538.336 273.955 534.069L275.309 533.75C277.658 534.069 279.114 533.61 279.114 533.61C279.114 533.61 281.554 533.252 282.205 533.124C282.856 532.984 282.448 532.639 282.448 532.639H283.227C283.661 532.498 283.316 532.166 283.316 532.166H283.559C284.095 532 283.75 531.464 283.75 531.464Z" fill="url(#paint3_linear_42_1823)"/>
<path d="M247.314 527.44C249.638 527.44 250.059 523.008 250.059 523.008C250.059 523.008 250.353 519.317 247.556 519.138C247.556 519.138 244.976 519.483 244.925 521.667C244.862 523.851 244.849 527.44 247.314 527.44Z" fill="#B5F4F2"/>
<path d="M256.432 542.589L255.947 530.11L252.754 529.624L250.813 529.331L250.915 531.975C250.34 532.588 249.702 533.15 249.114 533.38C247.492 534.018 244.9 533.622 244.9 533.622L243.303 529.305L236.343 530.046L234.21 530.646L231.784 530.851L230.251 531.54C230.251 531.54 233.891 535.526 241.413 539.383C241.413 539.383 246.7 539.728 251.158 538.285L252.192 564.328L252.729 564.75L254.721 564.328L255.704 565.797L256.867 566.066C256.867 566.066 257.441 565.58 257.339 565.069L256.432 542.589Z" fill="#B5F4F2"/>
<path d="M252 570.319V569.795H250.813L239.382 564.201V592.774H255.857V574.585C255.857 572.631 252 570.319 252 570.319Z" fill="#B5F4F2"/>
<path d="M219.434 531.809L218.795 531.86C218.795 531.86 218.003 530.914 216.688 530.672L213.265 530.48C213.265 530.48 213.061 530.978 213.418 531.093L210.647 531.247C210.647 531.247 210.277 531.566 210.647 531.719L210.059 531.86C210.059 531.86 209.715 532.383 210.187 532.549H210.43C210.43 532.549 210.072 532.882 210.519 533.022H211.285C211.285 533.022 210.877 533.38 211.528 533.52C212.179 533.661 214.619 534.006 214.619 534.006C214.619 534.006 216.075 534.465 218.425 534.146L220.034 534.261L219.715 531.643L219.434 531.809Z" fill="#B5F4F2"/>
<path d="M283.75 531.464L283.163 531.323C283.533 531.17 283.163 530.851 283.163 530.851L280.392 530.697C280.762 530.595 280.545 530.097 280.545 530.097L277.122 530.276C275.807 530.519 275.015 531.464 275.015 531.464L274.376 531.413L274.006 534.082L275.36 533.763C277.71 534.082 279.166 533.622 279.166 533.622C279.166 533.622 281.605 533.265 282.256 533.137C282.908 532.996 282.499 532.652 282.499 532.652H283.278C283.712 532.511 283.367 532.179 283.367 532.179H283.61C284.095 532 283.75 531.464 283.75 531.464Z" fill="#B5F4F2"/>
<path d="M508.207 344.711V338.504H507.147L504.465 331.479V325.565H503.916V324.339C503.916 324.339 502.192 319.268 500.672 310.403C501.311 310.314 501.758 310.122 501.758 309.88C501.758 309.624 501.221 309.407 500.493 309.343C500.327 308.309 500.161 307.261 499.995 306.137C499.842 307.248 499.676 308.309 499.51 309.343C498.782 309.407 498.246 309.624 498.246 309.88C498.246 310.11 498.693 310.314 499.331 310.403C497.811 319.268 496.087 324.339 496.087 324.339V325.565H495.551V331.479L492.882 338.504H491.822V344.711H490.953V409.853H509.101V344.711H508.207Z" fill="url(#paint4_linear_42_1823)"/>
<path d="M500.008 358.251C496.841 358.251 494.261 355.671 494.261 352.503C494.261 349.335 496.841 346.755 500.008 346.755C503.175 346.755 505.755 349.335 505.755 352.503C505.755 355.683 503.175 358.251 500.008 358.251Z" fill="#B5F4F2"/>
<path d="M500.008 356.922C497.581 356.922 495.602 354.942 495.602 352.516C495.602 350.089 497.568 348.109 500.008 348.109C502.447 348.109 504.414 350.089 504.414 352.516C504.414 354.942 502.434 356.922 500.008 356.922ZM500.008 348.441C497.76 348.441 495.934 350.268 495.934 352.516C495.934 354.764 497.76 356.59 500.008 356.59C502.255 356.59 504.082 354.764 504.082 352.516C504.082 350.268 502.255 348.441 500.008 348.441Z" fill="url(#paint5_linear_42_1823)"/>
<path d="M500.008 358.506C496.7 358.506 494.018 355.811 494.018 352.503C494.018 349.195 496.713 346.512 500.008 346.512C503.316 346.512 505.998 349.207 505.998 352.503C506.01 355.824 503.316 358.506 500.008 358.506ZM500.008 347.1C497.032 347.1 494.606 349.527 494.606 352.503C494.606 355.492 497.032 357.918 500.008 357.918C502.996 357.918 505.423 355.492 505.423 352.503C505.423 349.527 502.996 347.1 500.008 347.1Z" fill="url(#paint6_linear_42_1823)"/>
<path d="M500.174 346.934H499.842V348.275H500.174V346.934Z" fill="url(#paint7_linear_42_1823)"/>
<path d="M497.747 348.926L497.083 347.764L497.364 347.598L498.041 348.76L497.747 348.926Z" fill="url(#paint8_linear_42_1823)"/>
<path d="M496.253 350.536L495.104 349.871L495.27 349.578L496.419 350.255L496.253 350.536Z" fill="url(#paint9_linear_42_1823)"/>
<path d="M495.768 352.349H494.427V352.681H495.768V352.349Z" fill="url(#paint10_linear_42_1823)"/>
<path d="M495.27 355.44L495.104 355.159L496.253 354.482L496.419 354.776L495.27 355.44Z" fill="url(#paint11_linear_42_1823)"/>
<path d="M497.364 357.42L497.083 357.254L497.747 356.092L498.041 356.271L497.364 357.42Z" fill="url(#paint12_linear_42_1823)"/>
<path d="M500.174 356.756H499.842V358.097H500.174V356.756Z" fill="url(#paint13_linear_42_1823)"/>
<path d="M502.651 357.42L501.987 356.271L502.281 356.092L502.945 357.254L502.651 357.42Z" fill="url(#paint14_linear_42_1823)"/>
<path d="M504.759 355.44L503.597 354.776L503.763 354.482L504.925 355.159L504.759 355.44Z" fill="url(#paint15_linear_42_1823)"/>
<path d="M505.589 352.349H504.248V352.681H505.589V352.349Z" fill="url(#paint16_linear_42_1823)"/>
<path d="M503.763 350.536L503.597 350.255L504.759 349.578L504.925 349.871L503.763 350.536Z" fill="url(#paint17_linear_42_1823)"/>
<path d="M502.281 348.926L501.987 348.76L502.651 347.598L502.945 347.764L502.281 348.926Z" fill="url(#paint18_linear_42_1823)"/>
<path d="M502.128 352.681H499.842V349.092H500.174V352.349H502.128V352.681Z" fill="url(#paint19_linear_42_1823)"/>
<path d="M500.557 330.661V327.481C500.557 327.123 500.315 326.829 500.008 326.829C499.714 326.829 499.472 327.123 499.472 327.481V330.661C499.65 330.661 499.829 330.661 500.008 330.661C500.2 330.661 500.378 330.661 500.557 330.661Z" fill="#B5F4F2"/>
<path d="M503.099 330.661V327.481C503.099 327.123 502.856 326.829 502.55 326.829C502.256 326.829 502.013 327.123 502.013 327.481V330.661C502.192 330.661 502.371 330.661 502.55 330.661C502.741 330.661 502.933 330.661 503.099 330.661Z" fill="#B5F4F2"/>
<path d="M498.003 330.661V327.481C498.003 327.123 497.76 326.829 497.454 326.829C497.16 326.829 496.917 327.123 496.917 327.481V330.661C497.096 330.661 497.275 330.661 497.454 330.661C497.645 330.661 497.824 330.661 498.003 330.661Z" fill="#B5F4F2"/>
<path d="M500.557 343.856V340.675C500.557 340.318 500.315 340.011 500.008 340.011C499.714 340.011 499.472 340.305 499.472 340.675V343.856C499.65 343.856 499.829 343.856 500.008 343.856C500.2 343.843 500.378 343.856 500.557 343.856Z" fill="#B5F4F2"/>
<path d="M503.546 343.856V340.675C503.546 340.318 503.303 340.011 502.996 340.011C502.703 340.011 502.447 340.305 502.447 340.675V343.856C502.626 343.856 502.805 343.856 502.996 343.856C503.188 343.843 503.367 343.856 503.546 343.856Z" fill="#B5F4F2"/>
<path d="M497.556 343.856V340.675C497.556 340.318 497.313 340.011 497.007 340.011C496.7 340.011 496.458 340.305 496.458 340.675V343.856C496.636 343.856 496.815 343.856 497.007 343.856C497.198 343.843 497.377 343.856 497.556 343.856Z" fill="#B5F4F2"/>
<path d="M506.547 343.856V340.675C506.547 340.318 506.304 340.011 506.01 340.011C505.704 340.011 505.474 340.305 505.474 340.675V343.856C505.653 343.856 505.832 343.856 506.01 343.856C506.189 343.843 506.368 343.856 506.547 343.856Z" fill="#B5F4F2"/>
<path d="M494.555 343.856V340.675C494.555 340.318 494.312 340.011 494.006 340.011C493.712 340.011 493.469 340.305 493.469 340.675V343.856C493.648 343.856 493.827 343.856 494.006 343.856C494.197 343.843 494.376 343.856 494.555 343.856Z" fill="#B5F4F2"/>
<path d="M493.571 360.856H493.239V373.042H493.571V360.856Z" fill="#B5F4F2"/>
<path d="M495.513 360.856H495.181V373.042H495.513V360.856Z" fill="#B5F4F2"/>
<path d="M497.467 360.856H497.135V373.042H497.467V360.856Z" fill="#B5F4F2"/>
<path d="M499.408 360.856H499.076V373.042H499.408V360.856Z" fill="#B5F4F2"/>
<path d="M501.362 360.856H501.03V373.042H501.362V360.856Z" fill="#B5F4F2"/>
<path d="M503.303 360.856H502.971V373.042H503.303V360.856Z" fill="#B5F4F2"/>
<path d="M505.244 360.856H504.912V373.042H505.244V360.856Z" fill="#B5F4F2"/>
<path d="M507.198 360.856H506.866V373.042H507.198V360.856Z" fill="#B5F4F2"/>
<path d="M493.163 390.157H492.831V402.343H493.163V390.157Z" fill="#B5F4F2"/>
<path d="M495.104 390.157H494.772V402.343H495.104V390.157Z" fill="#B5F4F2"/>
<path d="M497.045 390.157H496.713V402.343H497.045V390.157Z" fill="#B5F4F2"/>
<path d="M498.999 390.157H498.667V402.343H498.999V390.157Z" fill="#B5F4F2"/>
<path d="M500.94 390.157H500.608V402.343H500.94V390.157Z" fill="#B5F4F2"/>
<path d="M502.895 390.157H502.562V402.343H502.895V390.157Z" fill="#B5F4F2"/>
<path d="M504.835 390.157H504.503V402.343H504.835V390.157Z" fill="#B5F4F2"/>
<path d="M506.777 390.157H506.445V402.343H506.777V390.157Z" fill="#B5F4F2"/>
<path d="M493.367 375.507H493.035V387.692H493.367V375.507Z" fill="#B5F4F2"/>
<path d="M495.309 375.507H494.977V387.692H495.309V375.507Z" fill="#B5F4F2"/>
<path d="M497.25 375.507H496.917V387.692H497.25V375.507Z" fill="#B5F4F2"/>
<path d="M499.204 375.507H498.872V387.692H499.204V375.507Z" fill="#B5F4F2"/>
<path d="M501.145 375.507H500.813V387.692H501.145V375.507Z" fill="#B5F4F2"/>
<path d="M503.099 375.507H502.767V387.692H503.099V375.507Z" fill="#B5F4F2"/>
<path d="M505.04 375.507H504.708V387.692H505.04V375.507Z" fill="#B5F4F2"/>
<path d="M506.981 375.507H506.649V387.692H506.981V375.507Z" fill="#B5F4F2"/>
<path d="M589.816 436.101L590.647 435.309H589.816V434.428H585.883V435.309H585.053L585.883 436.101V438.043L585.347 466.092H580.072L579.714 448.146V446.894L580.251 446.383H579.714V445.821H577.198V446.383H576.675L577.198 446.894V448.146L576.854 466.092H575.283V447.367H574.823V442.628L575.091 442.309H573.137L573.405 442.628V447.367H571.592V442.398L571.86 442.079H569.906L570.174 442.398V447.367H569.025V442.692H562.281V447.367H561.387V436.28H542.665V466.092H542.652V447.367H541.758V442.692H535.015V447.367H533.865V442.398L534.133 442.079H532.179L532.447 442.398V447.367H530.634V442.628L530.915 442.309H528.948L529.229 442.628V447.367H528.757V466.092H527.186L526.841 448.146V446.894L527.377 446.383H526.841V445.821H524.325V446.383H523.788L524.325 446.894V448.146L523.98 466.092H518.693L518.156 438.043V436.101L518.986 435.309H518.156V434.428H514.235V435.309H513.393L514.235 436.101V438.043L513.686 466.092V472.619H590.353V466.092L589.816 438.043V436.101Z" fill="url(#paint20_linear_42_1823)"/>
<path d="M579.957 448.504H576.956V448.887H579.957V448.504Z" fill="#3BCCE0"/>
<path d="M580.11 455.095H576.815V455.478H580.11V455.095Z" fill="#3BCCE0"/>
<path d="M580.314 461.29H576.624V461.673H580.314V461.29Z" fill="#3BCCE0"/>
<path d="M590.187 438.605H585.5V439.218H590.187V438.605Z" fill="#3BCCE0"/>
<path d="M590.417 448.9H585.283V449.5H590.417V448.9Z" fill="#3BCCE0"/>
<path d="M590.736 458.594H584.963V459.195H590.736V458.594Z" fill="#3BCCE0"/>
<path d="M527.083 448.504H524.082V448.887H527.083V448.504Z" fill="#3BCCE0"/>
<path d="M527.224 455.095H523.942V455.478H527.224V455.095Z" fill="#3BCCE0"/>
<path d="M527.428 461.29H523.737V461.673H527.428V461.29Z" fill="#3BCCE0"/>
<path d="M555.474 427.556C552.486 425.832 552.026 424.976 552.026 424.976C552.026 424.976 551.579 425.832 548.578 427.556C547.224 428.335 539.97 432.614 542.664 440.189C542.664 440.189 552.026 436.574 561.387 440.189C564.082 432.601 556.828 428.335 555.474 427.556Z" fill="#D7FFFF"/>
<path d="M552.882 424.108C552.882 423.724 552.639 423.418 552.294 423.303C552.46 423.213 552.575 423.035 552.575 422.843C552.575 422.69 552.499 422.549 552.396 422.447L552.23 421.017L552.026 419.177L551.822 421.017L551.656 422.447C551.541 422.549 551.477 422.69 551.477 422.843C551.477 423.047 551.592 423.213 551.758 423.303C551.413 423.418 551.17 423.737 551.17 424.108C551.17 424.58 551.554 424.963 552.026 424.963C552.499 424.963 552.882 424.58 552.882 424.108Z" fill="#D7FFFF"/>
<path d="M566.892 439.844C565.819 439.218 565.653 438.911 565.653 438.911C565.653 438.911 565.487 439.218 564.401 439.844C563.916 440.125 561.298 441.658 562.269 444.391C562.269 444.391 565.64 443.088 569.012 444.391C569.995 441.658 567.377 440.125 566.892 439.844Z" fill="#D7FFFF"/>
<path d="M565.972 438.605C565.972 438.452 565.857 438.349 565.717 438.324C565.794 438.298 565.857 438.235 565.857 438.158C565.857 438.094 565.832 438.056 565.794 438.017L565.743 437.506L565.666 436.842L565.589 437.506L565.538 438.017C565.5 438.056 565.474 438.107 565.474 438.158C565.474 438.247 565.538 438.298 565.615 438.324C565.474 438.349 565.359 438.464 565.359 438.605C565.359 438.771 565.5 438.911 565.666 438.911C565.832 438.911 565.972 438.771 565.972 438.605Z" fill="#D7FFFF"/>
<path d="M571.119 441.057C571.03 440.981 570.991 440.929 570.953 440.891L570.94 440.738L570.889 440.201L570.825 440.738L570.813 440.904C570.774 440.942 570.736 441.006 570.647 441.07C570.557 441.159 570.046 441.594 570.238 442.373C570.238 442.373 570.902 442.002 571.553 442.373C571.732 441.568 571.221 441.134 571.119 441.057Z" fill="#D7FFFF"/>
<path d="M574.35 441.287C574.261 441.211 574.222 441.159 574.184 441.121L574.171 440.968L574.12 440.431L574.056 440.968L574.031 441.121C573.993 441.159 573.954 441.211 573.865 441.287C573.775 441.364 573.265 441.811 573.456 442.59C573.456 442.59 574.108 442.22 574.772 442.59C574.963 441.811 574.452 441.364 574.35 441.287Z" fill="#D7FFFF"/>
<path d="M578.922 444.761C578.526 444.531 578.463 444.417 578.463 444.417C578.463 444.417 578.399 444.531 578.003 444.761C577.824 444.864 576.841 445.438 577.198 446.46C577.198 446.46 578.463 445.975 579.714 446.46C580.085 445.451 579.101 444.876 578.922 444.761Z" fill="#D7FFFF"/>
<path d="M578.578 444.301C578.578 444.25 578.539 444.199 578.475 444.187C578.501 444.174 578.539 444.161 578.539 444.123C578.539 444.11 578.526 444.11 578.514 444.097L578.488 443.867L578.463 443.625L578.437 443.867L578.411 444.097C578.411 444.11 578.399 444.11 578.399 444.123C578.399 444.148 578.424 444.174 578.463 444.187C578.399 444.199 578.348 444.238 578.348 444.301C578.348 444.365 578.412 444.416 578.475 444.416C578.526 444.416 578.578 444.365 578.578 444.301Z" fill="#D7FFFF"/>
<path d="M588.578 432.768C587.952 432.41 587.85 432.231 587.85 432.231C587.85 432.231 587.747 432.41 587.122 432.768C586.841 432.934 585.308 433.828 585.883 435.424C585.883 435.424 587.85 434.658 589.816 435.424C590.378 433.828 588.859 432.934 588.578 432.768Z" fill="#D7FFFF"/>
<path d="M588.028 432.052C588.028 431.963 587.965 431.899 587.888 431.886C587.926 431.873 587.965 431.835 587.965 431.784C587.965 431.746 587.952 431.72 587.926 431.695L587.901 431.388L587.862 431.005L587.824 431.388L587.786 431.695C587.76 431.72 587.747 431.746 587.747 431.784C587.747 431.835 587.786 431.861 587.824 431.873C587.747 431.899 587.684 431.963 587.684 432.039C587.684 432.142 587.773 432.218 587.862 432.218C587.952 432.231 588.028 432.154 588.028 432.052Z" fill="#D7FFFF"/>
<path d="M539.625 439.844C538.552 439.218 538.386 438.911 538.386 438.911C538.386 438.911 538.22 439.218 537.147 439.844C536.662 440.125 534.044 441.658 535.014 444.391C538.386 443.088 541.758 444.391 541.758 444.391C542.728 441.658 540.123 440.125 539.625 439.844Z" fill="#D7FFFF"/>
<path d="M538.693 438.605C538.693 438.452 538.578 438.349 538.437 438.324C538.514 438.298 538.578 438.235 538.578 438.158C538.578 438.094 538.552 438.056 538.514 438.017L538.45 437.506L538.373 436.842L538.297 437.506L538.246 438.017C538.207 438.056 538.182 438.107 538.182 438.158C538.182 438.247 538.233 438.298 538.31 438.324C538.169 438.349 538.054 438.464 538.054 438.605C538.054 438.771 538.195 438.911 538.361 438.911C538.565 438.911 538.693 438.771 538.693 438.605Z" fill="#D7FFFF"/>
<path d="M533.393 441.057C533.303 440.981 533.265 440.929 533.227 440.891L533.214 440.738L533.163 440.201L533.112 440.738L533.099 440.891C533.06 440.929 533.022 440.981 532.933 441.057C532.843 441.147 532.333 441.581 532.524 442.36C533.175 441.99 533.84 442.36 533.84 442.36C534.006 441.568 533.495 441.134 533.393 441.057Z" fill="#D7FFFF"/>
<path d="M530.174 441.287C530.085 441.211 530.046 441.159 530.008 441.121L529.995 440.968L529.944 440.431L529.88 440.968L529.867 441.121C529.829 441.172 529.791 441.211 529.689 441.287C529.599 441.364 529.088 441.811 529.28 442.59C529.944 442.22 530.595 442.59 530.595 442.59C530.774 441.811 530.263 441.364 530.174 441.287Z" fill="#D7FFFF"/>
<path d="M526.049 444.761C525.64 444.531 525.576 444.417 525.576 444.417C525.576 444.417 525.525 444.531 525.117 444.761C524.938 444.864 523.955 445.438 524.325 446.46C525.576 445.975 526.841 446.46 526.841 446.46C527.211 445.451 526.228 444.876 526.049 444.761Z" fill="#D7FFFF"/>
<path d="M525.691 444.301C525.691 444.25 525.653 444.199 525.589 444.187C525.627 444.174 525.653 444.161 525.653 444.123C525.653 444.11 525.64 444.11 525.627 444.097L525.602 443.867L525.564 443.625L525.538 443.867L525.513 444.097C525.513 444.11 525.5 444.11 525.5 444.123C525.5 444.148 525.525 444.174 525.564 444.174C525.5 444.187 525.461 444.225 525.461 444.289C525.461 444.353 525.513 444.404 525.576 444.404C525.64 444.416 525.691 444.365 525.691 444.301Z" fill="#D7FFFF"/>
<path d="M516.917 432.768C516.292 432.41 516.202 432.231 516.202 432.231C516.202 432.231 516.113 432.41 515.474 432.768C515.193 432.934 513.674 433.828 514.235 435.424C516.202 434.658 518.169 435.424 518.169 435.424C518.718 433.828 517.198 432.934 516.917 432.768Z" fill="#D7FFFF"/>
<path d="M516.368 432.052C516.368 431.963 516.304 431.899 516.228 431.886C516.279 431.874 516.304 431.835 516.304 431.797C516.304 431.759 516.292 431.733 516.266 431.708L516.241 431.401L516.202 431.018L516.164 431.401L516.126 431.708C516.1 431.733 516.087 431.759 516.087 431.797C516.087 431.848 516.126 431.886 516.164 431.899C516.087 431.912 516.023 431.976 516.023 432.065C516.023 432.167 516.1 432.244 516.202 432.244C516.292 432.231 516.368 432.155 516.368 432.052Z" fill="#D7FFFF"/>
<path d="M518.54 438.605H513.853V439.218H518.54V438.605Z" fill="#3BCCE0"/>
<path d="M518.757 448.9H513.623V449.5H518.757V448.9Z" fill="#3BCCE0"/>
<path d="M519.076 458.594H513.303V459.195H519.076V458.594Z" fill="#3BCCE0"/>
<path d="M567.428 457.969C567.428 457.969 567.428 455.133 567.428 453.588C567.428 452.221 565.436 451.518 565.436 451.518C565.436 451.518 563.443 452.221 563.443 453.588C563.443 455.133 563.443 457.969 563.443 457.969H567.428Z" fill="#D7FFFF"/>
<path d="M567.428 466.092C567.428 466.092 567.428 463.256 567.428 461.711C567.428 460.344 565.436 459.655 565.436 459.655C565.436 459.655 563.443 460.344 563.443 461.711C563.443 463.256 563.443 466.092 563.443 466.092H567.428Z" fill="#D7FFFF"/>
<path d="M572.384 457.969C572.384 457.969 572.384 455.618 572.384 454.328C572.384 453.191 571.004 452.617 571.004 452.617C571.004 452.617 569.625 453.191 569.625 454.328C569.625 455.618 569.625 457.969 569.625 457.969H572.384Z" fill="#D7FFFF"/>
<path d="M572.384 466.092C572.384 466.092 572.384 463.435 572.384 462.145C572.384 461.021 571.004 460.434 571.004 460.434C571.004 460.434 569.625 461.009 569.625 462.145C569.625 463.435 569.625 466.092 569.625 466.092H572.384Z" fill="#D7FFFF"/>
<path d="M588.577 437.813H587.134C587.134 437.813 587.134 436.97 587.134 436.408C587.134 435.91 587.862 435.654 587.862 435.654C587.862 435.654 588.59 435.91 588.59 436.408C588.577 436.983 588.577 437.813 588.577 437.813Z" fill="#D7FFFF"/>
<path d="M536.611 457.969C536.611 457.969 536.611 455.133 536.611 453.588C536.611 452.221 538.603 451.518 538.603 451.518C538.603 451.518 540.596 452.221 540.596 453.588C540.596 455.133 540.596 457.969 540.596 457.969H536.611Z" fill="#D7FFFF"/>
<path d="M536.611 466.092C536.611 466.092 536.611 463.256 536.611 461.711C536.611 460.344 538.603 459.655 538.603 459.655C538.603 459.655 540.596 460.344 540.596 461.711C540.596 463.256 540.596 466.092 540.596 466.092H536.611Z" fill="#D7FFFF"/>
<path d="M531.668 457.969C531.668 457.969 531.668 455.618 531.668 454.328C531.668 453.191 533.048 452.617 533.048 452.617C533.048 452.617 534.427 453.191 534.427 454.328C534.427 455.618 534.427 457.969 534.427 457.969H531.668Z" fill="#D7FFFF"/>
<path d="M531.668 466.092C531.668 466.092 531.668 463.435 531.668 462.145C531.668 461.021 533.048 460.434 533.048 460.434C533.048 460.434 534.427 461.009 534.427 462.145C534.427 463.435 534.427 466.092 534.427 466.092H531.668Z" fill="#D7FFFF"/>
<path d="M515.474 436.42C515.474 435.922 516.202 435.667 516.202 435.667C516.202 435.667 516.917 435.922 516.917 436.42C516.917 436.982 516.917 437.825 516.917 437.825H515.474C515.474 437.813 515.474 436.982 515.474 436.42Z" fill="#D7FFFF"/>
<path d="M557.594 466.092C557.594 466.092 557.594 458.735 557.594 454.724C557.594 451.186 552.435 449.385 552.435 449.385C552.435 449.385 547.262 451.199 547.262 454.724C547.262 458.735 547.262 466.092 547.262 466.092H557.594Z" fill="#D7FFFF"/>
<path d="M566.522 447.367C566.522 447.367 566.522 446.141 566.522 445.477C566.522 444.889 565.666 444.583 565.666 444.583C565.666 444.583 564.797 444.889 564.797 445.477C564.797 446.141 564.797 447.367 564.797 447.367H566.522Z" fill="#D7FFFF"/>
<path d="M537.53 447.367C537.53 447.367 537.53 446.141 537.53 445.477C537.53 444.889 538.386 444.583 538.386 444.583C538.386 444.583 539.254 444.889 539.254 445.477C539.254 446.141 539.254 447.367 539.254 447.367H537.53Z" fill="#D7FFFF"/>
<path d="M578.922 447.993H578.003C578.003 447.993 578.003 447.456 578.003 447.099C578.003 446.78 578.463 446.626 578.463 446.626C578.463 446.626 578.922 446.792 578.922 447.099C578.922 447.456 578.922 447.993 578.922 447.993Z" fill="#D7FFFF"/>
<path d="M525.117 447.099C525.117 446.78 525.576 446.626 525.576 446.626C525.576 446.626 526.049 446.792 526.049 447.099C526.049 447.456 526.049 447.993 526.049 447.993H525.129C525.117 447.993 525.117 447.456 525.117 447.099Z" fill="#D7FFFF"/>
<path d="M590.353 470.486H513.687V475.966H590.353V470.486Z" fill="#D7FFFF"/>
<path d="M628.092 385.661H572.23V396.327H628.092V385.661Z" fill="url(#paint21_linear_42_1823)"/>
<path d="M622 382.557C631.361 382.468 633.737 377.653 633.737 377.653C625.014 379.019 618.335 374.906 618.335 374.906H581.975C581.975 374.906 575.295 379.019 566.572 377.653C566.572 377.653 568.999 382.57 578.59 382.57L622 382.557Z" fill="url(#paint22_linear_42_1823)"/>
<path d="M618.181 371.023C623.507 371.023 625.985 366.859 625.985 366.859C607.249 368.405 600.174 360.371 600.174 360.371C600.174 360.371 593.098 368.418 574.363 366.859C574.363 366.859 576.828 371.023 582.166 371.023H618.181Z" fill="url(#paint23_linear_42_1823)"/>
<path d="M618.347 371.023H581.987V374.894H618.347V371.023Z" fill="#B5F4F2"/>
<path d="M628.092 396.314V385.661V381.114H572.23V385.661V396.327H569.701V399.366H630.608V396.327H628.092V396.314ZM573.622 396.314V385.661H580.301V396.327H573.622V396.314ZM581.693 396.314V385.661H592.319V396.327H581.693V396.314ZM603.456 396.314V389.148H596.866V396.314H593.711V385.661H606.61V396.327H603.456V396.314ZM608.002 396.314V385.661H618.628V396.327H608.002V396.314ZM620.02 396.314V385.661H626.7V396.327H620.02V396.314Z" fill="#B5F4F2"/>
<path d="M601.795 357.522C601.987 357.216 602.102 356.871 602.102 356.488C602.102 355.415 601.234 354.546 600.161 354.546C599.088 354.546 598.219 355.415 598.219 356.488C598.219 356.871 598.334 357.216 598.526 357.522C597.543 358.084 596.866 359.145 596.866 360.371C596.866 362.185 598.347 363.666 600.161 363.666C601.974 363.666 603.456 362.197 603.456 360.371C603.456 359.145 602.779 358.097 601.795 357.522Z" fill="#B5F4F2"/>
<path d="M401.655 491.97L411.004 502.942L420.366 513.927H401.655H382.933L392.294 502.942L401.655 491.97Z" fill="url(#paint24_linear_42_1823)"/>
<path opacity="0.2" d="M401.655 491.97L406.815 513.927H420.365L401.655 491.97Z" fill="black"/>
<path d="M380.161 485.213L392.396 499.57L404.631 513.927H380.161H355.679L367.914 499.57L380.161 485.213Z" fill="url(#paint25_linear_42_1823)"/>
<path opacity="0.2" d="M380.162 485.213L386.918 513.927H404.632L380.162 485.213Z" fill="black"/>
<path d="M433.508 467.561H490.468L488.016 450.177C488.016 450.177 478.974 445.707 467.301 446.499V447.457H466.075V446.396L464.491 446.92V447.623H461.554V445.336H457.914L456.151 441.3V437.877L455.411 437.136H454.402L452.639 432.001L451.234 430.865C451.234 430.865 440.877 433.317 436.407 440.7L436.675 442.462L435.883 444.046L433.508 467.561Z" fill="url(#paint26_linear_42_1823)"/>
<path d="M454.197 443.523C454.197 442.577 453.52 441.543 452.69 441.543C451.86 441.543 451.183 442.309 451.183 443.267V446.677H454.197V443.523Z" fill="#B5F4F2"/>
<path d="M449.676 444.774C449.676 443.829 448.999 442.794 448.169 442.794C447.339 442.794 446.662 443.561 446.662 444.519V447.929H449.676V444.774Z" fill="#B5F4F2"/>
<path d="M445.666 446.141C445.666 445.273 445.079 444.34 444.351 444.34C443.623 444.34 443.035 445.043 443.035 445.898V449.002H445.666V446.141Z" fill="#B5F4F2"/>
<path d="M441.72 447.367C441.72 446.499 441.337 445.566 440.864 445.566C440.391 445.566 440.008 446.269 440.008 447.137V450.254H441.72V447.367Z" fill="#B5F4F2"/>
<path d="M438.488 448.683C438.488 447.814 438.195 446.882 437.824 446.882C437.454 446.882 437.16 447.584 437.16 448.453V451.557H438.476V448.683H438.488Z" fill="#B5F4F2"/>
<path d="M454.172 452.08C454.172 451.135 453.495 450.101 452.665 450.101C451.835 450.101 451.158 450.88 451.158 451.825V456.73H454.172V452.08Z" fill="#B5F4F2"/>
<path d="M459.089 451.212C459.089 450.254 458.361 449.232 457.454 449.232C456.547 449.232 455.819 449.998 455.819 450.956V456.742H459.089V451.212Z" fill="#B5F4F2"/>
<path d="M459.089 462.018C459.089 461.072 458.233 460.038 457.186 460.038C456.138 460.038 455.283 460.817 455.283 461.762V467.548H459.089V462.018Z" fill="#B5F4F2"/>
<path d="M481.272 462.414C481.272 461.532 480.519 460.562 479.587 460.562C478.667 460.562 477.914 461.277 477.914 462.171V467.548H481.272V462.414Z" fill="#B5F4F2"/>
<path d="M485.551 463.142C485.551 462.375 484.964 461.558 484.249 461.558C483.533 461.558 482.946 462.171 482.946 462.925V467.548H485.538V463.142H485.551Z" fill="#B5F4F2"/>
<path d="M488.642 463.321C488.642 462.593 488.271 461.813 487.824 461.813C487.364 461.813 487.007 462.401 487.007 463.116V467.536H488.654V463.321H488.642Z" fill="#B5F4F2"/>
<path d="M465.347 462.018C465.347 461.072 464.491 460.038 463.444 460.038C462.397 460.038 461.541 460.817 461.541 461.762V467.548H465.347V462.018Z" fill="#B5F4F2"/>
<path d="M476.011 462.018C476.011 461.072 475.155 460.038 474.108 460.038C473.061 460.038 472.205 460.817 472.205 461.762V467.548H475.998V462.018H476.011Z" fill="#B5F4F2"/>
<path d="M472.103 453.089C472.103 452.17 471.272 451.161 470.251 451.161C469.229 451.161 468.399 451.914 468.399 452.834V458.454H472.09V453.089H472.103Z" fill="#B5F4F2"/>
<path d="M476.866 453.677C476.866 452.847 476.279 451.965 475.551 451.965C474.823 451.965 474.223 452.63 474.223 453.447V458.454H476.866V453.677Z" fill="#B5F4F2"/>
<path d="M480.647 454.137C480.647 453.396 480.276 452.591 479.804 452.591C479.344 452.591 478.961 453.192 478.961 453.932V458.454H480.634V454.137H480.647Z" fill="#B5F4F2"/>
<path d="M484.274 454.737C484.274 454.098 483.903 453.409 483.431 453.409C482.971 453.409 482.588 453.92 482.588 454.571V458.454H484.274V454.737Z" fill="#B5F4F2"/>
<path d="M487.709 455.223C487.709 454.661 487.428 454.06 487.058 454.06C486.7 454.06 486.407 454.507 486.407 455.069V458.454H487.709V455.223Z" fill="#B5F4F2"/>
<path d="M453.073 462.018C453.073 461.072 452.218 460.038 451.171 460.038C450.123 460.038 449.268 460.817 449.268 461.762V467.548H453.073V462.018Z" fill="#B5F4F2"/>
<path d="M447.212 462.414C447.212 461.532 446.56 460.562 445.768 460.562C444.977 460.562 444.325 461.277 444.325 462.171V467.548H447.212V462.414Z" fill="#B5F4F2"/>
<path d="M442.486 462.848C442.486 462.043 441.898 461.162 441.158 461.162C440.43 461.162 439.842 461.813 439.842 462.631V467.548H442.486V462.848Z" fill="#B5F4F2"/>
<path d="M438.233 463.717C438.233 463.052 437.697 462.337 437.033 462.337C436.368 462.337 435.832 462.874 435.832 463.538V467.548H438.233V463.717Z" fill="#B5F4F2"/>
<path d="M449.919 453.064C449.919 452.119 449.242 451.084 448.412 451.084C447.582 451.084 446.905 451.85 446.905 452.808V457.049L449.919 456.985V453.064Z" fill="#B5F4F2"/>
<path d="M445.641 454.175C445.641 453.306 445.053 452.374 444.325 452.374C443.597 452.374 443.01 453.077 443.01 453.945V457.049H445.641V454.175Z" fill="#B5F4F2"/>
<path d="M441.681 455.146C441.681 454.277 441.298 453.332 440.825 453.332C440.353 453.332 439.97 454.035 439.97 454.903V458.007H441.681V455.146Z" fill="#B5F4F2"/>
<path d="M438.463 456.193C438.463 455.325 438.169 454.38 437.811 454.38C437.441 454.38 437.16 455.082 437.16 455.951V459.067H438.476V456.193H438.463Z" fill="#B5F4F2"/>
<path d="M434.836 454.316C434.836 454.316 434.772 454.047 434.121 453.166C434.121 453.166 441.12 447.061 457.901 445.349H461.541V447.635C461.554 447.635 444.236 447.865 434.836 454.316Z" fill="#B5F4F2"/>
<path d="M435.436 447.635C435.436 447.635 434.951 447.329 434.734 446.716C434.734 446.716 441.63 440.138 456.151 437.89V439.908C456.151 439.908 443.955 440.7 435.436 447.635Z" fill="#B5F4F2"/>
<path d="M434.121 460.83C434.121 460.83 433.929 460.766 433.508 460.038C433.508 460.038 446.317 453.92 467.186 455.963V457.343L467.518 457.93V458.301C467.518 458.301 450.507 456.487 434.121 460.83Z" fill="#B5F4F2"/>
<g opacity="0.2">
<path d="M488.003 450.177C488.003 450.177 478.961 445.707 467.288 446.498V447.456H466.062V446.396L464.478 446.92V447.622H461.541L464.478 455.72L466.777 458.224L471.247 467.548H490.443L488.003 450.177Z" fill="url(#paint27_linear_42_1823)"/>
</g>
<path d="M437.135 306.009C438.195 306.201 439.255 306.367 440.289 306.507" stroke="white" stroke-width="2" stroke-miterlimit="10"/>
<path d="M446.649 307.07C483.546 308.487 501.579 277.028 512.665 264.766C540.468 235.695 580.787 225.553 605.857 253.066C630.506 280.106 613.444 314.72 579.957 338.721C552.946 358.072 546.241 379.505 544.593 389.889" stroke="white" stroke-width="2" stroke-miterlimit="10" stroke-dasharray="5 5"/>
<path d="M544.21 393.044C544.031 395.088 544.082 396.224 544.082 396.224" stroke="white" stroke-width="2" stroke-miterlimit="10"/>
<path d="M301.017 498.535C301.962 499.059 302.933 499.519 303.903 499.902" stroke="white" stroke-width="2" stroke-miterlimit="10"/>
<path d="M310.008 501.333C326.087 502.865 342.486 487.691 334.759 470.18C325.283 448.695 304.9 455.772 288.629 441.108" stroke="white" stroke-width="2" stroke-miterlimit="10" stroke-dasharray="4.91 4.91"/>
<path d="M336.241 393.734C337.211 394.117 338.195 394.526 339.191 394.96" stroke="white" stroke-width="2" stroke-miterlimit="10"/>
</g>
<path d="M632.475 477.882L632.475 474.087L631.362 473.26L629.158 476.229L629.158 477.882L632.475 477.882Z" fill="#296AF1"/>
<path d="M603.082 520.124L601.945 519.015L591.336 526.04L600.429 536.023H612.175L603.082 526.04V520.124Z" fill="#296AF1"/>
<path d="M573.149 521.234H568.981L584.895 544.527L612.933 548.594V544.527L589.062 537.132L573.149 521.234Z" fill="#296AF1"/>
<path d="M630.362 536.023L623.163 534.544L624.441 529.645L653.096 536.023V547.485L640.213 545.636L630.362 536.023Z" fill="#296AF1"/>
<path d="M678.978 396.078H677.227L670.659 426.666L662.34 434.202V439.522L678.978 430.741V396.078Z" fill="#296AF1"/>
<path d="M615.47 501.453H613.839L610.576 512.545L618.732 523.637H622.402L624.441 512.545L615.47 501.453Z" fill="#296AF1"/>
<defs>
<linearGradient id="paint0_linear_42_1823" x1="390" y1="587" x2="390" y2="736" gradientUnits="userSpaceOnUse">
<stop stop-color="#20FCAC"/>
<stop offset="1" stop-color="#20FCAC" stop-opacity="0"/>
</linearGradient>
<linearGradient id="paint1_linear_42_1823" x1="149.994" y1="462.031" x2="149.994" y2="375.491" gradientUnits="userSpaceOnUse">
<stop stop-color="#00BBD5"/>
<stop offset="0.8838" stop-color="#77DAE8"/>
</linearGradient>
<linearGradient id="paint2_linear_42_1823" x1="418.387" y1="421.405" x2="418.387" y2="350.743" gradientUnits="userSpaceOnUse">
<stop stop-color="#21C4DB"/>
<stop offset="1" stop-color="#77DAE8"/>
</linearGradient>
<linearGradient id="paint3_linear_42_1823" x1="246.909" y1="576.893" x2="246.909" y2="521.597" gradientUnits="userSpaceOnUse">
<stop stop-color="#00BBD4"/>
<stop offset="1" stop-color="#77DAE8"/>
</linearGradient>
<linearGradient id="paint4_linear_42_1823" x1="500.011" y1="416.902" x2="500.011" y2="311.614" gradientUnits="userSpaceOnUse">
<stop stop-color="#2DC7DD"/>
<stop offset="0.8838" stop-color="#77DAE8"/>
</linearGradient>
<linearGradient id="paint5_linear_42_1823" x1="500.012" y1="344.457" x2="500.012" y2="360.647" gradientUnits="userSpaceOnUse">
<stop offset="0.1162" stop-color="#77DAE8"/>
<stop offset="0.2411" stop-color="#71D2DF"/>
<stop offset="0.443" stop-color="#60BBC7"/>
<stop offset="0.6967" stop-color="#4596A0"/>
<stop offset="0.9899" stop-color="#20646B"/>
<stop offset="1" stop-color="#1F6269"/>
</linearGradient>
<linearGradient id="paint6_linear_42_1823" x1="500.01" y1="344.456" x2="500.01" y2="360.646" gradientUnits="userSpaceOnUse">
<stop offset="0.1162" stop-color="#77DAE8"/>
<stop offset="0.2411" stop-color="#71D2DF"/>
<stop offset="0.443" stop-color="#60BBC7"/>
<stop offset="0.6967" stop-color="#4596A0"/>
<stop offset="0.9899" stop-color="#20646B"/>
<stop offset="1" stop-color="#1F6269"/>
</linearGradient>
<linearGradient id="paint7_linear_42_1823" x1="500.012" y1="344.456" x2="500.012" y2="360.655" gradientUnits="userSpaceOnUse">
<stop offset="0.1162" stop-color="#77DAE8"/>
<stop offset="0.2411" stop-color="#71D2DF"/>
<stop offset="0.443" stop-color="#60BBC7"/>
<stop offset="0.6967" stop-color="#4596A0"/>
<stop offset="0.9899" stop-color="#20646B"/>
<stop offset="1" stop-color="#1F6269"/>
</linearGradient>
<linearGradient id="paint8_linear_42_1823" x1="497.558" y1="344.456" x2="497.558" y2="360.652" gradientUnits="userSpaceOnUse">
<stop offset="0.1162" stop-color="#77DAE8"/>
<stop offset="0.2411" stop-color="#71D2DF"/>
<stop offset="0.443" stop-color="#60BBC7"/>
<stop offset="0.6967" stop-color="#4596A0"/>
<stop offset="0.9899" stop-color="#20646B"/>
<stop offset="1" stop-color="#1F6269"/>
</linearGradient>
<linearGradient id="paint9_linear_42_1823" x1="495.761" y1="344.461" x2="495.761" y2="360.639" gradientUnits="userSpaceOnUse">
<stop offset="0.1162" stop-color="#77DAE8"/>
<stop offset="0.2411" stop-color="#71D2DF"/>
<stop offset="0.443" stop-color="#60BBC7"/>
<stop offset="0.6967" stop-color="#4596A0"/>
<stop offset="0.9899" stop-color="#20646B"/>
<stop offset="1" stop-color="#1F6269"/>
</linearGradient>
<linearGradient id="paint10_linear_42_1823" x1="495.102" y1="344.499" x2="495.102" y2="360.604" gradientUnits="userSpaceOnUse">
<stop offset="0.1162" stop-color="#77DAE8"/>
<stop offset="0.2411" stop-color="#71D2DF"/>
<stop offset="0.443" stop-color="#60BBC7"/>
<stop offset="0.6967" stop-color="#4596A0"/>
<stop offset="0.9899" stop-color="#20646B"/>
<stop offset="1" stop-color="#1F6269"/>
</linearGradient>
<linearGradient id="paint11_linear_42_1823" x1="495.761" y1="344.464" x2="495.761" y2="360.642" gradientUnits="userSpaceOnUse">
<stop offset="0.1162" stop-color="#77DAE8"/>
<stop offset="0.2411" stop-color="#71D2DF"/>
<stop offset="0.443" stop-color="#60BBC7"/>
<stop offset="0.6967" stop-color="#4596A0"/>
<stop offset="0.9899" stop-color="#20646B"/>
<stop offset="1" stop-color="#1F6269"/>
</linearGradient>
<linearGradient id="paint12_linear_42_1823" x1="497.558" y1="344.451" x2="497.558" y2="360.647" gradientUnits="userSpaceOnUse">
<stop offset="0.1162" stop-color="#77DAE8"/>
<stop offset="0.2411" stop-color="#71D2DF"/>
<stop offset="0.443" stop-color="#60BBC7"/>
<stop offset="0.6967" stop-color="#4596A0"/>
<stop offset="0.9899" stop-color="#20646B"/>
<stop offset="1" stop-color="#1F6269"/>
</linearGradient>
<linearGradient id="paint13_linear_42_1823" x1="500.012" y1="344.462" x2="500.012" y2="360.645" gradientUnits="userSpaceOnUse">
<stop offset="0.1162" stop-color="#77DAE8"/>
<stop offset="0.2411" stop-color="#71D2DF"/>
<stop offset="0.443" stop-color="#60BBC7"/>
<stop offset="0.6967" stop-color="#4596A0"/>
<stop offset="0.9899" stop-color="#20646B"/>
<stop offset="1" stop-color="#1F6269"/>
</linearGradient>
<linearGradient id="paint14_linear_42_1823" x1="502.464" y1="344.451" x2="502.464" y2="360.647" gradientUnits="userSpaceOnUse">
<stop offset="0.1162" stop-color="#77DAE8"/>
<stop offset="0.2411" stop-color="#71D2DF"/>
<stop offset="0.443" stop-color="#60BBC7"/>
<stop offset="0.6967" stop-color="#4596A0"/>
<stop offset="0.9899" stop-color="#20646B"/>
<stop offset="1" stop-color="#1F6269"/>
</linearGradient>
<linearGradient id="paint15_linear_42_1823" x1="504.26" y1="344.464" x2="504.26" y2="360.642" gradientUnits="userSpaceOnUse">
<stop offset="0.1162" stop-color="#77DAE8"/>
<stop offset="0.2411" stop-color="#71D2DF"/>
<stop offset="0.443" stop-color="#60BBC7"/>
<stop offset="0.6967" stop-color="#4596A0"/>
<stop offset="0.9899" stop-color="#20646B"/>
<stop offset="1" stop-color="#1F6269"/>
</linearGradient>
<linearGradient id="paint16_linear_42_1823" x1="504.917" y1="344.499" x2="504.917" y2="360.604" gradientUnits="userSpaceOnUse">
<stop offset="0.1162" stop-color="#77DAE8"/>
<stop offset="0.2411" stop-color="#71D2DF"/>
<stop offset="0.443" stop-color="#60BBC7"/>
<stop offset="0.6967" stop-color="#4596A0"/>
<stop offset="0.9899" stop-color="#20646B"/>
<stop offset="1" stop-color="#1F6269"/>
</linearGradient>
<linearGradient id="paint17_linear_42_1823" x1="504.26" y1="344.461" x2="504.26" y2="360.639" gradientUnits="userSpaceOnUse">
<stop offset="0.1162" stop-color="#77DAE8"/>
<stop offset="0.2411" stop-color="#71D2DF"/>
<stop offset="0.443" stop-color="#60BBC7"/>
<stop offset="0.6967" stop-color="#4596A0"/>
<stop offset="0.9899" stop-color="#20646B"/>
<stop offset="1" stop-color="#1F6269"/>
</linearGradient>
<linearGradient id="paint18_linear_42_1823" x1="502.464" y1="344.456" x2="502.464" y2="360.652" gradientUnits="userSpaceOnUse">
<stop offset="0.1162" stop-color="#77DAE8"/>
<stop offset="0.2411" stop-color="#71D2DF"/>
<stop offset="0.443" stop-color="#60BBC7"/>
<stop offset="0.6967" stop-color="#4596A0"/>
<stop offset="0.9899" stop-color="#20646B"/>
<stop offset="1" stop-color="#1F6269"/>
</linearGradient>
<linearGradient id="paint19_linear_42_1823" x1="500.988" y1="344.461" x2="500.988" y2="360.641" gradientUnits="userSpaceOnUse">
<stop offset="0.1162" stop-color="#77DAE8"/>
<stop offset="0.2411" stop-color="#71D2DF"/>
<stop offset="0.443" stop-color="#60BBC7"/>
<stop offset="0.6967" stop-color="#4596A0"/>
<stop offset="0.9899" stop-color="#20646B"/>
<stop offset="1" stop-color="#1F6269"/>
</linearGradient>
<linearGradient id="paint20_linear_42_1823" x1="552.02" y1="473.709" x2="552.02" y2="439.573" gradientUnits="userSpaceOnUse">
<stop stop-color="#2DC8DE"/>
<stop offset="0.8838" stop-color="#77DAE8"/>
</linearGradient>
<linearGradient id="paint21_linear_42_1823" x1="600.163" y1="397.796" x2="600.163" y2="383.97" gradientUnits="userSpaceOnUse">
<stop stop-color="#38CAE0"/>
<stop offset="1" stop-color="#77DAE8"/>
</linearGradient>
<linearGradient id="paint22_linear_42_1823" x1="566.581" y1="378.73" x2="633.742" y2="378.73" gradientUnits="userSpaceOnUse">
<stop stop-color="#34C9DF"/>
<stop offset="0.8838" stop-color="#77DAE8"/>
</linearGradient>
<linearGradient id="paint23_linear_42_1823" x1="574.35" y1="365.696" x2="625.978" y2="365.696" gradientUnits="userSpaceOnUse">
<stop offset="0.0101" stop-color="#3ACBE0"/>
<stop offset="0.8838" stop-color="#77DAE8"/>
</linearGradient>
<linearGradient id="paint24_linear_42_1823" x1="401.651" y1="517.441" x2="401.651" y2="491.484" gradientUnits="userSpaceOnUse">
<stop stop-color="#0AC4DD"/>
<stop offset="1" stop-color="#32E5FE"/>
</linearGradient>
<linearGradient id="paint25_linear_42_1823" x1="380.157" y1="518.525" x2="380.157" y2="484.572" gradientUnits="userSpaceOnUse">
<stop stop-color="#00BBD4"/>
<stop offset="1" stop-color="#34E6FF"/>
</linearGradient>
<linearGradient id="paint26_linear_42_1823" x1="461.986" y1="475.119" x2="461.986" y2="435.205" gradientUnits="userSpaceOnUse">
<stop offset="0.0101" stop-color="#2DC7DD"/>
<stop offset="0.8838" stop-color="#77DAE8"/>
</linearGradient>
<linearGradient id="paint27_linear_42_1823" x1="475.992" y1="446.396" x2="475.992" y2="467.548" gradientUnits="userSpaceOnUse">
<stop/>
<stop offset="1" stop-opacity="0"/>
</linearGradient>
<clipPath id="clip0_42_1823">
<rect width="733" height="455.699" fill="white" transform="translate(19 226)"/>
</clipPath>
</defs>
</svg>
