<svg width="166" height="40" viewBox="0 0 166 40" fill="none" xmlns="http://www.w3.org/2000/svg">
<g clip-path="url(#clip0_501_916)">
<path fill-rule="evenodd" clip-rule="evenodd" d="M37.8105 2.88747C34.7479 2.19141 31.6175 1.83989 28.4772 1.83942C28.0372 1.83942 27.5892 1.84744 27.1439 1.86616H26.7332L27.0612 1.62554C28.3462 0.653362 29.8933 0.0915916 31.5012 0.0133703C31.6559 2.4063e-06 31.7999 2.40629e-06 31.9439 2.40629e-06C33.075 -0.000872224 34.1937 0.236694 35.2273 0.697286C36.261 1.15788 37.1865 1.8312 37.9438 2.67358L38.2105 2.97837L37.8105 2.88747ZM39.9065 8.75322C39.5011 8.63024 39.1465 8.52864 38.8185 8.44042C34.0845 7.17109 29.1498 6.83424 24.2879 7.44852L24.0986 7.47525L23.8639 7.50734V7.61428C23.8639 7.7061 23.8596 7.79213 23.8554 7.87463L23.8554 7.87471C23.8516 7.95072 23.8479 8.02374 23.8479 8.09552V9.46439L24.1306 9.42429L24.5332 9.37082C26.037 9.18135 27.551 9.08581 29.0665 9.08475C32.7165 9.08345 36.3452 9.64246 39.8265 10.7424L39.9971 10.7958V8.77996L39.9065 8.75322ZM24.9654 11.0473C24.6588 11.0874 24.3281 11.1328 23.9548 11.1916L23.8428 11.2077V13.1701L23.9948 13.146C24.4534 13.0712 24.8374 13.015 25.2027 12.9696C26.5781 12.794 27.963 12.7047 29.3494 12.7022C32.9127 12.7 36.4522 13.2844 39.8267 14.432L40 14.4908V12.4562L39.9093 12.4268C35.089 10.8748 29.9874 10.4039 24.9654 11.0473ZM26.3171 18.2471C25.3473 18.3683 24.3843 18.5388 23.4318 18.7578L23.3651 18.7738L23.3385 18.838C23.0691 19.5514 22.6971 20.2215 22.2345 20.8271L21.9918 21.1426L22.3731 21.033C24.8211 20.3209 27.3575 19.9608 29.9064 19.9635C33.2788 19.9587 36.6205 20.605 39.749 21.8671L39.9117 21.934L39.9277 21.7575C39.9757 21.1827 39.9997 20.6079 39.9997 20.0518V19.886L39.9144 19.8539C35.5788 18.2213 30.9124 17.6699 26.3171 18.2471ZM15.8853 23.9097L15.552 24.1236C12.9848 25.7709 10.7189 27.8482 8.85332 30.2648C7.86021 31.5452 6.9838 32.9124 6.23467 34.35L6.15467 34.5051L6.02934 34.3821C5.61601 33.973 5.20267 33.5345 4.81601 33.0827L4.75734 33.0132L4.80001 32.9357C6.84921 29.1831 9.7025 25.9325 13.1546 23.4177L13.2106 23.3776L13.2773 23.4017C13.9877 23.6694 14.7334 23.8315 15.4906 23.8829L15.8853 23.9097ZM24.7359 26.0218C20.0173 27.2544 15.8395 30.0206 12.856 33.8874C11.9633 35.0364 11.1837 36.2693 10.528 37.5689L10.472 37.6812L10.584 37.7427C11.0773 38.0101 11.5866 38.2534 12.0986 38.4726L12.2106 38.5234L12.2666 38.4138C12.8625 37.2364 13.5697 36.119 14.3786 35.0772C17.0872 31.6001 20.8459 29.0959 25.0924 27.9392C29.3389 26.7826 33.8448 27.0356 37.9358 28.6606L38.0505 28.706L38.1012 28.5937C38.3385 28.0884 38.5598 27.5644 38.7545 27.0404L38.7972 26.9201L38.6798 26.872C34.2399 25.1107 29.3559 24.8129 24.7359 26.0218ZM17.64 39.7695C17.8667 39.4006 18.1334 39.0397 18.4 38.7001C20.3133 36.233 22.9044 34.3807 25.8543 33.3713C28.8042 32.3618 31.9841 32.2393 35.0026 33.0188L35.2079 33.0722L35.0666 33.2326C34.6355 33.7285 34.1798 34.2023 33.7013 34.6523L33.6533 34.6978H33.5866C31.0539 34.2253 28.4403 34.4594 26.0312 35.3745C23.6221 36.2897 21.51 37.8507 19.9254 39.8872L19.8427 39.9968L19.7654 40.0984H19.7014C19.04 40.0877 18.376 40.0449 17.7334 39.9727L17.5227 39.9487L17.64 39.7695ZM22.4 39.7185C24.7878 37.4149 27.9769 36.1346 31.2906 36.1493L31.4986 36.152H31.8959L31.5733 36.3819C28.8893 38.2978 25.7748 39.5193 22.5066 39.9378L22.1146 39.9859L22.4 39.7185ZM11.4961 22.4528L11.3601 22.557V22.5383C8.2658 24.9535 5.67075 27.9503 3.72019 31.3611L3.61619 31.5403L3.49886 31.3692C3.14153 30.8585 2.80553 30.3131 2.50153 29.765L2.4642 29.6982L2.5042 29.6313C3.13089 28.6074 3.81279 27.6185 4.54685 26.669C6.12451 24.6318 7.94113 22.7925 9.95749 21.1908L10.0535 21.116L10.1335 21.2176C10.5013 21.6368 10.9115 22.0167 11.3575 22.3512L11.4961 22.4528ZM8.20796 15.683L8.15462 15.7204C5.27118 17.7762 2.70351 20.2443 0.53333 23.046L0.266665 23.3829L0.218665 23.0808C0.0971533 22.2839 0.0241298 21.4803 0 20.6745V20.6238L0.0426664 20.581C2.35 17.8543 5.03082 15.469 8.00529 13.496L8.20796 13.3623V15.683ZM8.13595 11.3041L8.05862 11.3522C5.18033 13.1378 2.54735 15.2931 0.226665 17.7634L0 18.0014V15.2342L0.0399998 15.1995C2.21877 13.0646 4.62936 11.1813 7.22663 9.58494L7.32796 9.52345L7.39996 9.6197C7.75339 10.0953 7.99828 10.6429 8.11729 11.2238L8.13595 11.3041ZM5.65257 8.49118L5.86854 8.35485L5.63124 8.25861C5.14538 8.06369 4.62677 7.96388 4.10346 7.96456C3.48246 7.96287 2.86927 8.10335 2.31063 8.37529C1.75199 8.64722 1.26265 9.04344 0.879902 9.53374C0.307119 10.2574 -0.00316281 11.1548 2.43099e-05 12.0786V12.8271L0.218661 12.632C1.91476 11.106 3.73208 9.72116 5.65257 8.49118ZM36.328 15.9987C36.3517 15.7596 36.2856 15.5202 36.1425 15.3273C35.9995 15.1345 35.7899 15.0021 35.5547 14.956C32.2866 14.3302 28.9404 14.2264 25.64 14.6486C25.0934 14.7154 24.5254 14.8036 23.9521 14.9159L23.8427 14.9346V16.0629C23.8427 16.2768 23.8427 16.5013 23.8134 16.7313V16.905L23.9814 16.8703C24.6347 16.7473 25.2774 16.6457 25.8934 16.5682C27.1318 16.4131 28.3786 16.3346 29.6267 16.3329C31.4936 16.3345 33.3561 16.5136 35.1893 16.8676C35.3212 16.8924 35.4568 16.8893 35.5875 16.8585C35.7181 16.8278 35.841 16.7701 35.9481 16.689C36.0552 16.608 36.1444 16.5055 36.2098 16.388C36.2752 16.2705 36.3154 16.1407 36.328 16.0067V15.9987ZM38.8449 15.7797C39.2049 15.8893 39.5595 16.0042 39.9114 16.1272L39.9941 16.1593V18.215L39.8181 18.1508C39.3098 17.9637 38.7969 17.7908 38.2797 17.6322C38.0673 17.5668 37.8838 17.4302 37.7599 17.2452C37.6361 17.0603 37.5796 16.8382 37.5998 16.6164C37.6129 16.473 37.6577 16.3343 37.731 16.2105C37.8043 16.0867 37.9043 15.9808 38.0236 15.9007C38.1429 15.8205 38.2785 15.768 38.4206 15.7471C38.5627 15.7262 38.7077 15.7373 38.8449 15.7797ZM27.5487 4.64644C27.5611 4.50785 27.5437 4.36821 27.4975 4.23697C27.4514 4.10573 27.3777 3.98598 27.2813 3.88583C27.185 3.78568 27.0683 3.70747 26.9391 3.65652C26.81 3.60557 26.6714 3.58306 26.5328 3.59052C26.0929 3.6119 25.6503 3.64398 25.1997 3.68141H25.133L25.0984 3.73487C24.7499 4.29976 24.4705 4.90471 24.2665 5.53662L24.2025 5.72909L24.4051 5.70771C25.1517 5.62484 25.9009 5.56335 26.6475 5.52058C26.879 5.50936 27.0986 5.41477 27.2662 5.25418C27.4337 5.0936 27.5378 4.8778 27.5593 4.64644H27.5487ZM39.3786 4.98616C39.633 5.59838 39.8121 6.23942 39.9119 6.89509L39.9359 7.117L39.7412 7.06085C39.4239 6.96728 39.1306 6.88439 38.8426 6.80686C35.901 6.01932 32.878 5.57788 29.8346 5.49146C29.7013 5.48814 29.5702 5.45718 29.4494 5.40052C29.3287 5.34387 29.2209 5.26275 29.133 5.16228C29.0451 5.06181 28.9788 4.94416 28.9385 4.81676C28.8982 4.68936 28.8846 4.55496 28.8986 4.42203C28.9215 4.17815 29.0358 3.95203 29.2184 3.78929C29.401 3.62655 29.6384 3.53928 29.8826 3.5451C33.0609 3.63262 36.2181 4.09111 39.2906 4.91129L39.3519 4.92734L39.3786 4.98616ZM10.3755 33.0105C10.2741 32.9095 10.1516 32.8322 10.0169 32.7842C9.8822 32.7362 9.73855 32.7187 9.5963 32.733C9.45404 32.7474 9.31672 32.7931 9.19419 32.867C9.07166 32.9408 8.96698 33.041 8.88767 33.1602C8.37934 33.9361 7.91382 34.7392 7.4932 35.5661L7.4452 35.6624L7.52786 35.7292C7.97046 36.0821 8.43173 36.4216 8.901 36.737L9.02632 36.8199L9.09031 36.6862C9.51027 35.843 9.97947 35.0254 10.4954 34.2376C10.6185 34.0511 10.6737 33.8278 10.6518 33.6054C10.63 33.3829 10.5324 33.1747 10.3755 33.0159V33.0105ZM24.1691 22.3618C29.3037 21.1161 34.6976 21.504 39.6023 23.4714L39.701 23.5195L39.6824 23.6238C39.6557 23.7735 39.629 23.9206 39.5997 24.0676C39.517 24.4713 39.421 24.8857 39.3117 25.2921L39.2717 25.4365L39.1357 25.3777C36.3003 24.1927 33.2583 23.5847 30.1864 23.5891C29.1987 23.5893 28.2119 23.6509 27.2318 23.7735C21.4793 24.4783 16.1947 27.3052 12.4078 31.7034C12.3214 31.8044 12.2151 31.8864 12.0956 31.9444C11.9761 32.0024 11.846 32.035 11.7134 32.0403C11.5807 32.0455 11.4484 32.0233 11.3248 31.975C11.2011 31.9267 11.0886 31.8533 10.9945 31.7595C10.818 31.5847 10.7149 31.3488 10.7065 31.1002C10.698 30.8515 10.7849 30.6091 10.9492 30.4227C14.4142 26.4247 19.0346 23.6074 24.1691 22.3618ZM37.1731 30.0244C34.8829 29.1989 32.456 28.8213 30.0239 28.9122C29.8923 28.918 29.7633 28.9508 29.6449 29.0086C29.5264 29.0664 29.4211 29.1479 29.3353 29.2482C29.2496 29.3484 29.1853 29.4653 29.1464 29.5914C29.1075 29.7176 29.0948 29.8504 29.1092 29.9817C29.1372 30.2248 29.2559 30.4483 29.4413 30.6074C29.6267 30.7666 29.8653 30.8496 30.1092 30.8399H30.7305C32.5729 30.8381 34.4035 31.1342 36.1518 31.7168L36.2425 31.7489L36.3012 31.666C36.6372 31.1955 36.9492 30.7115 37.2425 30.2143L37.3225 30.0779L37.1731 30.0244ZM27.6667 29.8006C27.7344 29.9167 27.777 30.0457 27.7919 30.1793V30.1525C27.8204 30.3905 27.7591 30.6306 27.6199 30.8256C27.4807 31.0205 27.2739 31.1562 27.0399 31.2059C23.1113 32.0557 19.6078 34.2684 17.1467 37.4541C16.6382 38.1122 16.1766 38.8055 15.7653 39.5288L15.7173 39.6143L15.624 39.5929C15.064 39.4673 14.4933 39.3175 13.96 39.1438L13.8027 39.093L13.8774 38.9539C14.3852 38.0161 14.9694 37.1218 15.624 36.2804C18.1183 33.0499 21.5848 30.7117 25.5093 29.6125C25.8862 29.518 26.2622 29.4289 26.6373 29.3451C26.7684 29.317 26.9039 29.3168 27.0351 29.3444C27.1664 29.372 27.2903 29.4269 27.3991 29.5055C27.5079 29.584 27.5991 29.6846 27.6667 29.8006ZM9.02631 19.5544C8.76898 19.0384 8.57043 18.495 8.43439 17.9345L8.38639 17.742L8.22642 17.8623C7.36431 18.5199 6.53421 19.2176 5.7361 19.9554C5.63987 20.0436 5.56245 20.1503 5.50851 20.2693C5.45456 20.3883 5.42521 20.517 5.42222 20.6476C5.41923 20.7783 5.44267 20.9082 5.49111 21.0295C5.53956 21.1508 5.61201 21.261 5.7041 21.3535C5.8812 21.5275 6.11799 21.6269 6.3659 21.6314C6.61381 21.6359 6.85402 21.5451 7.03725 21.3776C7.66472 20.7966 8.31352 20.2423 8.98364 19.7148L9.0663 19.6507L9.02631 19.5544ZM4.4514 22.094C4.57378 22.1424 4.68501 22.2154 4.77832 22.3084H4.77299C4.94823 22.4846 5.04926 22.7215 5.05521 22.9703C5.06117 23.219 4.97159 23.4606 4.80498 23.645C4.28061 24.226 3.77757 24.8283 3.29586 25.4521C2.75194 26.1551 2.21868 26.9037 1.71475 27.6735L1.57876 27.882L1.48544 27.6522C1.22162 27.005 0.991122 26.3448 0.794874 25.674L0.77621 25.6125L0.813538 25.5617C1.13349 25.1099 1.45612 24.6715 1.7734 24.2625C2.28711 23.6067 2.82037 22.9696 3.37318 22.3512C3.46069 22.2526 3.56731 22.1731 3.68653 22.1173C3.80575 22.0615 3.93506 22.0306 4.06657 22.0266C4.19808 22.0226 4.32902 22.0455 4.4514 22.094Z" fill="white"/>
<path fill-rule="evenodd" clip-rule="evenodd" d="M146.541 19.3652C145.503 18.9946 144.444 18.6865 143.37 18.4424C142.416 18.2549 141.484 17.9717 140.587 17.5969C139.98 17.3142 139.677 16.8804 139.677 16.2954C139.676 16.0114 139.75 15.732 139.89 15.4851C140.03 15.2381 140.231 15.032 140.475 14.8872C141.007 14.5298 141.805 14.3538 142.915 14.3538C144.024 14.3595 145.123 14.5748 146.153 14.9886C146.551 15.149 146.997 15.1451 147.392 14.9778C147.788 14.8104 148.102 14.4932 148.265 14.0951C148.349 13.8957 148.391 13.6815 148.391 13.4652C148.39 13.2489 148.346 13.0349 148.262 12.836C148.177 12.637 148.053 12.4571 147.898 12.3069C147.743 12.1567 147.559 12.0392 147.358 11.9615C146.952 11.8071 146.537 11.6771 146.115 11.5721C145.072 11.3161 144.002 11.1898 142.928 11.1961C141.58 11.158 140.238 11.3976 138.985 11.9002C138.014 12.289 137.175 12.9524 136.572 13.8097C136.043 14.6042 135.765 15.5401 135.774 16.4954C135.774 17.6316 136.069 18.5393 136.66 19.2185C137.231 19.887 137.964 20.3975 138.788 20.7013C139.828 21.0731 140.889 21.3821 141.965 21.6268C142.806 21.8224 143.473 22.0002 143.966 22.1602C144.407 22.2961 144.819 22.5151 145.179 22.8056C145.329 22.9265 145.45 23.0801 145.532 23.2548C145.614 23.4295 145.655 23.6207 145.653 23.8137C145.653 24.0878 145.579 24.3567 145.438 24.5917C145.298 24.8267 145.096 25.0187 144.854 25.1473C144.322 25.4815 143.498 25.6478 142.38 25.646C141.359 25.6427 140.344 25.4789 139.374 25.1606C138.981 25.0334 138.595 24.8838 138.219 24.7125C138.025 24.6146 137.812 24.5569 137.595 24.5428C137.378 24.5286 137.16 24.5584 136.954 24.6302C136.749 24.7021 136.56 24.8146 136.399 24.9612C136.237 25.1077 136.107 25.2852 136.015 25.4831C135.924 25.6811 135.873 25.8955 135.865 26.1136C135.858 26.3317 135.894 26.5491 135.972 26.7528C136.05 26.9566 136.168 27.1425 136.319 27.2997C136.47 27.4568 136.651 27.5819 136.852 27.6676C137.374 27.904 137.913 28.1019 138.464 28.2597C139.729 28.6219 141.04 28.8015 142.356 28.7931C143.703 28.8299 145.044 28.5922 146.296 28.0943C147.275 27.7057 148.121 27.0427 148.733 26.1847C149.269 25.3995 149.552 24.4689 149.545 23.5177C149.545 22.3816 149.25 21.4819 148.662 20.8187C148.085 20.1668 147.356 19.6675 146.541 19.3652ZM126.421 11.9676C126.906 12.2834 127.289 12.7334 127.524 13.2631L133.175 25.9342C133.299 26.2123 133.352 26.5172 133.329 26.8211C133.305 27.125 133.207 27.4182 133.041 27.6741C132.876 27.9299 132.65 28.1402 132.382 28.2858C132.115 28.4314 131.816 28.5078 131.512 28.5078H131.419C131.058 28.5077 130.705 28.4001 130.406 28.1988C130.106 27.9975 129.872 27.7115 129.735 27.377L128.697 24.8593H120.814L119.777 27.377C119.684 27.6 119.548 27.8025 119.377 27.9725C119.206 28.1426 119.003 28.2769 118.78 28.3678C118.556 28.4587 118.317 28.5042 118.076 28.5019C117.835 28.4995 117.597 28.4493 117.376 28.354C117.154 28.2588 116.954 28.1205 116.786 27.9471C116.618 27.7737 116.486 27.5687 116.398 27.3439C116.31 27.1191 116.267 26.879 116.272 26.6375C116.277 26.3959 116.33 26.1578 116.427 25.9368L122.059 13.2631C122.294 12.7334 122.678 12.2834 123.163 11.9676C123.647 11.6517 124.213 11.4836 124.792 11.4836C125.37 11.4836 125.936 11.6517 126.421 11.9676ZM124.778 15.3487L122.086 21.8643H127.46L124.778 15.3487ZM111.298 12.2416C110.061 11.7137 108.725 11.4563 107.381 11.4868H102.007C101.483 11.4868 100.98 11.6956 100.609 12.0672C100.239 12.4388 100.03 12.9428 100.03 13.4684V26.5368C100.021 26.8015 100.064 27.0655 100.159 27.313C100.253 27.5605 100.396 27.7863 100.58 27.9771C100.763 28.1678 100.983 28.3195 101.226 28.4232C101.469 28.5268 101.731 28.5802 101.995 28.5802C102.259 28.5802 102.521 28.5268 102.764 28.4232C103.007 28.3195 103.227 28.1678 103.411 27.9771C103.594 27.7863 103.737 27.5605 103.832 27.313C103.926 27.0655 103.97 26.8015 103.96 26.5368V23.8138H107.381C108.724 23.8457 110.059 23.593 111.298 23.0723C112.343 22.6326 113.233 21.8896 113.854 20.9387C114.467 19.9604 114.779 18.8236 114.753 17.669C114.782 16.5098 114.469 15.3678 113.854 14.3858C113.229 13.4359 112.341 12.6904 111.298 12.2416ZM109.848 19.8399C109.232 20.3484 108.335 20.6036 107.155 20.6053H103.963V14.6979H107.155C108.336 14.6979 109.234 14.953 109.848 15.4633C110.461 15.9736 110.769 16.707 110.771 17.6636C110.794 18.0731 110.723 18.4825 110.563 18.8599C110.403 19.2374 110.158 19.5727 109.848 19.8399ZM84.1713 11.4867C83.6562 11.4867 83.1623 11.6919 82.798 12.057C82.4338 12.4221 82.2292 12.9173 82.2292 13.4337V21.8215L74.4632 12.2975C74.1752 11.9441 73.7852 11.6887 73.3467 11.5663C72.9081 11.444 72.4426 11.4606 72.0139 11.614C71.5851 11.7674 71.2143 12.05 70.9521 12.4231C70.69 12.7961 70.5494 13.2414 70.5497 13.6977V26.5608C70.54 26.8223 70.5831 27.0831 70.6762 27.3276C70.7694 27.5721 70.9108 27.7953 71.092 27.9838C71.2732 28.1722 71.4904 28.3222 71.7307 28.4246C71.971 28.527 72.2294 28.5797 72.4905 28.5797C72.7516 28.5797 73.01 28.527 73.2503 28.4246C73.4906 28.3222 73.7078 28.1722 73.889 27.9838C74.0702 27.7953 74.2116 27.5721 74.3047 27.3276C74.3979 27.0831 74.441 26.8223 74.4313 26.5608V18.173L82.2372 27.7049C82.4434 27.9552 82.7023 28.1567 82.9952 28.295C83.2882 28.4334 83.6081 28.5051 83.9319 28.505C84.5129 28.5043 85.0698 28.2725 85.4803 27.8604C85.8909 27.4483 86.1215 26.8898 86.1215 26.3074V13.4337C86.1215 13.1773 86.071 12.9235 85.9729 12.6868C85.8748 12.45 85.731 12.235 85.5498 12.0541C85.3686 11.8733 85.1536 11.73 84.917 11.6326C84.6805 11.5353 84.4271 11.4857 84.1713 11.4867ZM63.8983 11.4868C63.3832 11.4868 62.8892 11.6919 62.525 12.0571C62.1608 12.4222 61.9562 12.9174 61.9562 13.4337V20.8721C61.9562 22.4456 61.6333 23.6013 60.9877 24.3392C60.3421 25.0771 59.4039 25.446 58.1729 25.446C55.6508 25.446 54.3897 23.9222 54.3897 20.8747V13.4337C54.3901 13.1782 54.3402 12.9251 54.2429 12.6889C54.1456 12.4527 54.0028 12.238 53.8226 12.0572C53.6425 11.8764 53.4286 11.7329 53.1931 11.6351C52.9576 11.5372 52.7052 11.4868 52.4502 11.4868H52.4024C51.8873 11.4868 51.3933 11.6919 51.029 12.0571C50.6648 12.4222 50.4602 12.9174 50.4602 13.4337V21.0188C50.4602 23.508 51.136 25.4282 52.4875 26.7795C53.839 28.1308 55.7262 28.8038 58.149 28.7985C60.5754 28.7985 62.4634 28.1255 63.8132 26.7795C65.1629 25.4336 65.8378 23.5133 65.8378 21.0188V13.4337C65.8378 12.9178 65.6335 12.423 65.2699 12.058C64.9062 11.693 64.4129 11.4875 63.8983 11.4868ZM92.3187 11.6369C92.5571 11.5378 92.8127 11.4868 93.0707 11.4868C93.5922 11.4868 94.0923 11.6945 94.461 12.0641C94.8297 12.4337 95.0368 12.935 95.0368 13.4577V26.5262C95.0465 26.7909 95.0029 27.0549 94.9086 27.3024C94.8142 27.5498 94.671 27.7757 94.4876 27.9664C94.3042 28.1572 94.0843 28.3089 93.8411 28.4125C93.5979 28.5162 93.3363 28.5696 93.0721 28.5696C92.8078 28.5696 92.5462 28.5162 92.303 28.4125C92.0598 28.3089 91.8399 28.1572 91.6565 27.9664C91.4731 27.7757 91.3299 27.5498 91.2356 27.3024C91.1412 27.0549 91.0976 26.7909 91.1073 26.5262V13.4577C91.1069 13.199 91.1575 12.9428 91.256 12.7037C91.3545 12.4646 91.4991 12.2473 91.6814 12.0642C91.8638 11.8812 92.0803 11.736 92.3187 11.6369ZM162.978 19.3652C163.796 19.6679 164.527 20.1691 165.106 20.824C165.691 21.4872 165.989 22.3851 166 23.5177C166.008 24.4694 165.723 25.4004 165.186 26.1848C164.575 27.0425 163.731 27.7055 162.754 28.0943C161.498 28.5961 160.152 28.8357 158.801 28.7984C157.484 28.8049 156.174 28.6235 154.908 28.2597C154.357 28.1019 153.818 27.904 153.296 27.6676C153.096 27.5819 152.915 27.4568 152.764 27.2997C152.613 27.1425 152.495 26.9566 152.417 26.7528C152.339 26.5491 152.302 26.3317 152.31 26.1136C152.317 25.8955 152.368 25.6811 152.46 25.4832C152.551 25.2852 152.682 25.1077 152.843 24.9612C153.004 24.8147 153.193 24.7021 153.399 24.6303C153.604 24.5584 153.822 24.5287 154.04 24.5428C154.257 24.5569 154.469 24.6147 154.664 24.7126C155.04 24.8834 155.425 25.0329 155.818 25.1606C156.789 25.4785 157.803 25.6423 158.825 25.646C159.942 25.6478 160.767 25.4816 161.299 25.1473C161.541 25.0192 161.743 24.8273 161.883 24.5922C162.024 24.3571 162.098 24.0879 162.097 23.8138C162.1 23.6206 162.059 23.4292 161.977 23.2544C161.895 23.0797 161.774 22.9261 161.623 22.8056C161.265 22.5146 160.854 22.2955 160.413 22.1602C159.918 22.0002 159.25 21.8224 158.41 21.6268C157.333 21.3822 156.272 21.0731 155.233 20.7014C154.408 20.3986 153.675 19.8879 153.104 19.2185C152.514 18.5393 152.219 17.6316 152.219 16.4955C152.208 15.54 152.486 14.6037 153.017 13.8098C153.619 12.9519 154.458 12.2884 155.43 11.9002C156.681 11.3975 158.022 11.1578 159.37 11.1961C160.444 11.1898 161.514 11.3161 162.557 11.5721C162.979 11.6768 163.394 11.8068 163.8 11.9615C164.001 12.0396 164.184 12.1572 164.339 12.3074C164.494 12.4576 164.618 12.6374 164.703 12.8362C164.788 13.035 164.832 13.2488 164.833 13.465C164.834 13.6812 164.792 13.8955 164.71 14.0951C164.546 14.4928 164.232 14.8095 163.836 14.9768C163.441 15.144 162.996 15.1483 162.597 14.9886C161.566 14.5746 160.467 14.3592 159.357 14.3538C158.25 14.3538 157.452 14.5299 156.92 14.8873C156.675 15.0317 156.473 15.2376 156.333 15.4847C156.193 15.7318 156.12 16.0113 156.121 16.2954C156.123 16.8804 156.426 17.3142 157.029 17.5969C157.922 17.971 158.851 18.2543 159.801 18.4424C160.877 18.6863 161.938 18.9945 162.978 19.3652Z" fill="white"/>
</g>
<defs>
<clipPath id="clip0_501_916">
<rect width="166" height="40" fill="white"/>
</clipPath>
</defs>
</svg>
