<svg width="120" height="120" viewBox="0 0 120 120" fill="none" xmlns="http://www.w3.org/2000/svg">
<g clip-path="url(#clip0_24_348)">
<path d="M120 60C120 93.123 93.1467 120 60 120C26.8533 120 0 93.123 0 60C0 26.8533 26.8533 0 60 0C93.123 0 120 26.8533 120 60Z" fill="url(#paint0_linear_24_348)"/>
<path d="M0 60C0 77.8391 7.78391 93.8328 20.1341 104.811L60 60V0C26.8533 0 0 26.8533 0 60Z" fill="#CBE7E7"/>
<path d="M0 60C0 64.8265 0.591483 69.5347 1.67981 74.03L60 60V0C26.8533 0 0 26.8533 0 60Z" fill="#03FFA4"/>
<path d="M60 7.85486V14.5741C85.0552 14.5741 105.426 34.9448 105.426 60C105.426 85.0552 85.0552 105.426 60 105.426C48.4306 105.426 37.8549 101.073 29.8344 93.9274L25.3628 98.9432C34.5899 107.153 46.7035 112.145 60 112.145C88.7461 112.145 112.145 88.746 112.145 60C112.145 31.2539 88.7461 7.85486 60 7.85486Z" fill="url(#paint1_linear_24_348)"/>
<path d="M15.8517 70.623L9.32178 72.2082C11.8533 82.713 17.5552 91.9874 25.3864 98.9432L29.8581 93.9275C23.0205 87.847 18.0521 79.7792 15.8517 70.623Z" fill="white"/>
<path d="M7.85498 60C7.85498 64.2113 8.37549 68.2807 9.32186 72.2082L15.8518 70.623C15.0237 67.2161 14.5742 63.6672 14.5742 60C14.5742 34.9448 34.9449 14.5741 60.0001 14.5741V7.85486C31.2304 7.85486 7.85498 31.2303 7.85498 60Z" fill="#FBF5EF"/>
</g>
<defs>
<linearGradient id="paint0_linear_24_348" x1="60" y1="0" x2="60" y2="120" gradientUnits="userSpaceOnUse">
<stop stop-color="#296AF1"/>
<stop offset="1" stop-color="#53E0FF"/>
</linearGradient>
<linearGradient id="paint1_linear_24_348" x1="68.754" y1="7.85486" x2="68.754" y2="112.145" gradientUnits="userSpaceOnUse">
<stop stop-color="#CBE7E7"/>
<stop offset="1" stop-color="white"/>
</linearGradient>
<clipPath id="clip0_24_348">
<rect width="120" height="120" fill="white"/>
</clipPath>
</defs>
</svg>
