<svg width="120" height="120" viewBox="0 0 120 120" fill="none" xmlns="http://www.w3.org/2000/svg">
<g clip-path="url(#clip0_24_338)">
<path d="M120 60C120 93.123 93.1467 120 60 120C26.8533 120 0 93.123 0 60C0 26.8533 26.8533 0 60 0C93.123 0 120 26.8533 120 60Z" fill="url(#paint0_linear_24_338)"/>
<path d="M115.694 37.6893L88.5094 68.4937L33.8327 37.1925C32.981 36.6956 31.94 36.6247 31.0173 36.9559C30.0945 37.2871 29.3611 38.0206 29.0062 38.9669L9.46362 92.3187C10.8122 94.4243 12.2791 96.4354 13.8643 98.3518C14.3374 97.9732 14.716 97.4764 14.9526 96.8849L33.951 45.0001L87.5393 75.6862C88.9116 76.4906 90.6624 76.183 91.727 75.0001L118.107 45.0947C117.468 42.5395 116.64 40.0789 115.694 37.6893Z" fill="black"/>
<path d="M11.8059 86.9716C10.0788 86.9716 8.46992 87.4684 7.12134 88.3438C9.88948 93.5252 13.4147 98.2571 17.5314 102.374C19.4005 100.765 20.5835 98.399 20.5835 95.7492C20.5598 90.899 16.6324 86.9716 11.8059 86.9716Z" fill="#CBE7E7"/>
<path d="M103 68.0001C103 75.2027 97.1676 81 90 81C82.7973 81 77 75.1676 77 68.0001C77 60.7974 82.8324 55.0002 90 55.0002C97.1676 54.965 103 60.7974 103 68.0001Z" fill="#03FFA4"/>
<path d="M41.5315 41.7541C41.5315 46.6042 37.6041 50.508 32.7776 50.508C27.9274 50.508 24 46.5806 24 41.7541C24 36.9039 27.9274 33.0001 32.7776 33.0001C37.6041 32.9764 41.5315 36.9039 41.5315 41.7541Z" fill="#BB53FF"/>
</g>
<defs>
<linearGradient id="paint0_linear_24_338" x1="60" y1="0" x2="60" y2="120" gradientUnits="userSpaceOnUse">
<stop stop-color="#296AF1"/>
<stop offset="1" stop-color="#51D7FF"/>
</linearGradient>
<clipPath id="clip0_24_338">
<rect width="120" height="120" fill="white"/>
</clipPath>
</defs>
</svg>
