<svg width="24" height="24" viewBox="0 0 24 24" fill="none" xmlns="http://www.w3.org/2000/svg">
<g clip-path="url(#clip0_24_312)">
<path d="M24 0H0V24H24V0Z" fill="white" fill-opacity="0.01"/>
<path d="M9.80396 15.9995C9.97076 17.0363 10.1976 17.9639 10.4688 18.7403C10.764 19.5839 11.0928 20.1947 11.4084 20.5763C11.7288 20.9639 11.934 20.9999 12 20.9999C12.066 20.9999 12.2712 20.9639 12.5916 20.5763C12.906 20.1959 13.2348 19.5839 13.5312 18.7403C13.8024 17.9651 14.0292 17.0363 14.196 15.9995H9.80396Z" fill="black"/>
<path d="M16.2192 15.9995C16.0332 17.2667 15.762 18.4199 15.4188 19.4015C15.0972 20.3207 14.6952 21.1343 14.208 21.7547C17.3364 21.0491 19.908 18.8783 21.1656 15.9995H16.2192Z" fill="black"/>
<path d="M8.58127 19.4015C8.23807 18.4211 7.96687 17.2679 7.78087 15.9995H2.83447C4.09207 18.8771 6.66367 21.0491 9.79207 21.7547C9.30487 21.1343 8.90287 20.3207 8.58127 19.4015Z" fill="black"/>
<path d="M7.50009 11.9999C7.50009 11.3183 7.52409 10.6499 7.56849 9.99951H2.20089C2.07009 10.6463 2.00049 11.3147 2.00049 11.9999C2.00049 12.6851 2.07009 13.3535 2.20089 14.0003H7.56849C7.52409 13.3499 7.50009 12.6815 7.50009 11.9999Z" fill="black"/>
<path d="M9.50049 11.9999C9.50049 12.6887 9.52569 13.3571 9.57369 14.0003H14.4277C14.4757 13.3583 14.5009 12.6887 14.5009 11.9999C14.5009 11.3111 14.4757 10.6427 14.4277 9.99951H9.57369C9.52569 10.6427 9.50049 11.3111 9.50049 11.9999Z" fill="black"/>
<path d="M21.7992 9.99951H16.4316C16.476 10.6487 16.5 11.3171 16.5 11.9999C16.5 12.6827 16.476 13.3499 16.4316 14.0003H21.7992C21.93 13.3535 21.9996 12.6851 21.9996 11.9999C21.9996 11.3147 21.9312 10.6463 21.7992 9.99951Z" fill="black"/>
<path d="M12.5916 3.4236C12.2712 3.036 12.066 3 12 3C11.934 3 11.7288 3.036 11.4084 3.4236C11.094 3.804 10.7652 4.416 10.4688 5.2596C10.1976 6.0348 9.97076 6.9636 9.80396 8.0004H14.1948C14.028 6.9636 13.8012 6.036 13.53 5.2596C13.236 4.416 12.9072 3.804 12.5916 3.4236Z" fill="black"/>
<path d="M15.4188 4.59832C15.762 5.57872 16.0332 6.73192 16.2192 8.00032H21.1656C19.908 5.12272 17.3364 2.95072 14.208 2.24512C14.6952 2.86552 15.0972 3.67912 15.4188 4.59832Z" fill="black"/>
<path d="M8.58127 4.59832C8.90287 3.67912 9.30487 2.86552 9.79207 2.24512C6.66367 2.95072 4.09207 5.12152 2.83447 8.00032H7.78087C7.96567 6.73192 8.23807 5.57872 8.58127 4.59832Z" fill="black"/>
</g>
<defs>
<clipPath id="clip0_24_312">
<rect width="24" height="24" fill="white"/>
</clipPath>
</defs>
</svg>
