<svg width="120" height="120" viewBox="0 0 120 120" fill="none" xmlns="http://www.w3.org/2000/svg">
<path d="M120 60C120 93.123 93.1467 120 60 120C26.8533 120 0 93.123 0 60C0 26.8533 26.8533 0 60 0C93.123 0 120 26.8533 120 60Z" fill="url(#paint0_linear_40_1058)"/>
<path d="M33.5625 92.875L29.25 88.5625L57.375 60.4375L72.375 75.5312L100.312 44.2188L104.25 48.0625L72.375 83.9688L57.375 69.0625L33.5625 92.875Z" fill="black"/>
<path d="M45.4688 37.8438L48.9375 45.25L52.4062 37.8438L59.8125 34.375L52.4062 30.9062L48.9375 23.5L45.4688 30.9062L38.0625 34.375L45.4688 37.8438Z" fill="#03FFA4"/>
<path d="M27.9375 57.9062L30.8438 64.0938L33.75 57.9062L39.9375 55L33.75 52.0938L30.8438 45.9062L27.9375 52.0938L21.75 55L27.9375 57.9062Z" fill="#03FFA4"/>
<path d="M71.3438 50.4062L74.25 56.5938L77.1562 50.4062L83.3438 47.5L77.1562 44.5938L74.25 38.4062L71.3438 44.5938L65.1562 47.5L71.3438 50.4062Z" fill="#BB53FF"/>
<path d="M120 60C120 93.123 93.1467 120 60 120C26.8533 120 0 93.123 0 60C0 26.8533 26.8533 0 60 0C93.123 0 120 26.8533 120 60Z" fill="url(#paint1_linear_40_1058)"/>
<path d="M33.5625 92.875L29.25 88.5625L57.375 60.4375L72.375 75.5312L100.312 44.2188L104.25 48.0625L72.375 83.9688L57.375 69.0625L33.5625 92.875Z" fill="black"/>
<path d="M45.4688 37.8438L48.9375 45.25L52.4062 37.8438L59.8125 34.375L52.4062 30.9062L48.9375 23.5L45.4688 30.9062L38.0625 34.375L45.4688 37.8438Z" fill="#03FFA4"/>
<path d="M27.9375 57.9062L30.8438 64.0938L33.75 57.9062L39.9375 55L33.75 52.0938L30.8438 45.9062L27.9375 52.0938L21.75 55L27.9375 57.9062Z" fill="#03FFA4"/>
<path d="M71.3438 50.4062L74.25 56.5938L77.1562 50.4062L83.3438 47.5L77.1562 44.5938L74.25 38.4062L71.3438 44.5938L65.1562 47.5L71.3438 50.4062Z" fill="#BB53FF"/>
<defs>
<linearGradient id="paint0_linear_40_1058" x1="60" y1="0" x2="60" y2="120" gradientUnits="userSpaceOnUse">
<stop stop-color="#296AF1"/>
<stop offset="1" stop-color="#51D7FF"/>
</linearGradient>
<linearGradient id="paint1_linear_40_1058" x1="60" y1="0" x2="60" y2="120" gradientUnits="userSpaceOnUse">
<stop stop-color="#296AF1"/>
<stop offset="1" stop-color="#51D7FF"/>
</linearGradient>
</defs>
</svg>
