<svg width="121" height="121" viewBox="0 0 121 121" fill="none" xmlns="http://www.w3.org/2000/svg">
<g clip-path="url(#clip0_40_1059)">
<path d="M121 60.5C121 93.9229 93.9229 121 60.5 121C27.0771 121 0 93.899 0 60.5C0 27.0771 27.0771 0 60.5 0C93.899 0 121 27.0771 121 60.5Z" fill="url(#paint0_linear_40_1059)"/>
<path d="M60.5001 106.304C48.8343 106.304 38.1704 101.915 30.0831 94.7101C23.2124 88.6029 18.2025 80.4439 15.9839 71.2115C15.1489 67.7762 14.6956 64.1738 14.6956 60.4999C14.6956 35.2359 35.2361 14.6955 60.5001 14.6955C85.7641 14.6955 106.304 35.2359 106.304 60.4999C106.304 85.7639 85.7641 106.304 60.5001 106.304ZM60.5001 7.92029C31.4906 7.92029 7.92041 31.4905 7.92041 60.4999C7.92041 64.7464 8.44525 68.8497 9.39951 72.8099C11.9522 83.4021 17.7016 92.7539 25.5981 99.7677C34.9021 108.046 47.1166 113.08 60.5239 113.08C89.5095 113.08 113.104 89.4855 113.104 60.4999C113.08 31.4905 89.4857 7.92029 60.5001 7.92029Z" fill="#E9F5F6"/>
</g>
<path d="M47.9061 72.8064C45.1504 63.455 42.5404 60.8451 33.1891 58.0893L21 54.5L33.1891 50.9061C42.5358 48.1504 45.1504 45.5404 47.9061 36.1891L51.5 24L55.0939 36.1891C57.8496 45.5404 60.4596 48.1504 69.8109 50.9061L82 54.5L69.8109 58.0939C60.4642 60.8496 57.8496 63.4596 55.0939 72.8109L51.5 85L47.9061 72.8064Z" fill="#03FFA4"/>
<path d="M71.4379 86.0037C69.8568 80.6381 68.3592 79.1406 62.9937 77.5594L56 75.5L62.9937 73.4379C68.3566 71.8568 69.8568 70.3592 71.4379 64.9937L73.5 58L75.5621 64.9937C77.1432 70.3592 78.6408 71.8568 84.0063 73.4379L91 75.5L84.0063 77.5621C78.6434 79.1432 77.1432 80.6408 75.5621 86.0063L73.5 93L71.4379 86.0037Z" fill="#BB53FF"/>
<g clip-path="url(#clip1_40_1059)">
<path d="M121 60.5C121 93.9229 93.9229 121 60.5 121C27.0771 121 0 93.899 0 60.5C0 27.0771 27.0771 0 60.5 0C93.899 0 121 27.0771 121 60.5Z" fill="url(#paint1_linear_40_1059)"/>
<path d="M60.5001 106.304C48.8343 106.304 38.1704 101.915 30.0831 94.7101C23.2124 88.6029 18.2025 80.4439 15.9839 71.2115C15.1489 67.7762 14.6956 64.1738 14.6956 60.4999C14.6956 35.2359 35.2361 14.6955 60.5001 14.6955C85.7641 14.6955 106.304 35.2359 106.304 60.4999C106.304 85.7639 85.7641 106.304 60.5001 106.304ZM60.5001 7.92029C31.4906 7.92029 7.92041 31.4905 7.92041 60.4999C7.92041 64.7464 8.44525 68.8497 9.39951 72.8099C11.9522 83.4021 17.7016 92.7539 25.5981 99.7677C34.9021 108.046 47.1166 113.08 60.5239 113.08C89.5095 113.08 113.104 89.4855 113.104 60.4999C113.08 31.4905 89.4857 7.92029 60.5001 7.92029Z" fill="#E9F5F6"/>
</g>
<path d="M47.9061 72.8064C45.1504 63.455 42.5404 60.8451 33.1891 58.0893L21 54.5L33.1891 50.9061C42.5358 48.1504 45.1504 45.5404 47.9061 36.1891L51.5 24L55.0939 36.1891C57.8496 45.5404 60.4596 48.1504 69.8109 50.9061L82 54.5L69.8109 58.0939C60.4642 60.8496 57.8496 63.4596 55.0939 72.8109L51.5 85L47.9061 72.8064Z" fill="#03FFA4"/>
<path d="M71.4379 86.0037C69.8568 80.6381 68.3592 79.1406 62.9937 77.5594L56 75.5L62.9937 73.4379C68.3566 71.8568 69.8568 70.3592 71.4379 64.9937L73.5 58L75.5621 64.9937C77.1432 70.3592 78.6408 71.8568 84.0063 73.4379L91 75.5L84.0063 77.5621C78.6434 79.1432 77.1432 80.6408 75.5621 86.0063L73.5 93L71.4379 86.0037Z" fill="#BB53FF"/>
<defs>
<linearGradient id="paint0_linear_40_1059" x1="60.5" y1="0" x2="60.5" y2="121" gradientUnits="userSpaceOnUse">
<stop stop-color="#296AF1"/>
<stop offset="1" stop-color="#52DBFF"/>
</linearGradient>
<linearGradient id="paint1_linear_40_1059" x1="60.5" y1="0" x2="60.5" y2="121" gradientUnits="userSpaceOnUse">
<stop stop-color="#296AF1"/>
<stop offset="1" stop-color="#52DBFF"/>
</linearGradient>
<clipPath id="clip0_40_1059">
<rect width="121" height="121" fill="white"/>
</clipPath>
<clipPath id="clip1_40_1059">
<rect width="121" height="121" fill="white"/>
</clipPath>
</defs>
</svg>
