<svg width="120" height="120" viewBox="0 0 120 120" fill="none" xmlns="http://www.w3.org/2000/svg">
<g clip-path="url(#clip0_40_1060)">
<path d="M120 60C120 93.123 93.1467 120 60 120C26.8533 120 0 93.123 0 60C0 26.8533 26.8533 0 60 0C93.123 0 120 26.8533 120 60Z" fill="url(#paint0_linear_40_1060)"/>
<path d="M38.475 98.9639C35.7042 98.9639 33.349 97.9885 31.4094 96.0377C29.4698 94.087 28.5 91.7182 28.5 88.9314C28.5 86.1446 29.4698 83.7758 31.4094 81.825C33.349 79.8743 35.7042 78.8989 38.475 78.8989C39.2917 78.8989 40.0063 78.9722 40.6187 79.1189C41.2312 79.2656 41.8583 79.4856 42.5 79.7789L49.9375 70.4505C48.8292 69.1011 47.9833 67.561 47.4 65.8303C46.8167 64.0995 46.6708 62.2954 46.9625 60.418L36.375 56.8098C35.5 58.2766 34.3479 59.4206 32.9187 60.242C31.4896 61.0634 29.8417 61.4741 27.975 61.4741C25.2042 61.4741 22.849 60.4987 20.9094 58.5479C18.9698 56.5972 18 54.2284 18 51.4416C18 48.6548 18.9698 46.286 20.9094 44.3353C22.849 42.3845 25.2042 41.4091 27.975 41.4091C30.7458 41.4091 33.101 42.3845 35.0406 44.3353C36.9802 46.286 37.95 48.6548 37.95 51.4416V51.7936L48.625 55.4898C49.675 53.6124 50.9437 52.175 52.4312 51.1776C53.9188 50.1802 55.5667 49.4762 57.375 49.0655V37.7129C55.1 37.0676 53.3062 35.8062 51.9937 33.9288C50.6812 32.0513 50.025 30.0859 50.025 28.0325C50.025 25.2457 50.9948 22.8769 52.9344 20.9261C54.874 18.9754 57.2292 18 60 18C62.7708 18 65.126 18.9754 67.0656 20.9261C69.0052 22.8769 69.975 25.2457 69.975 28.0325C69.975 30.0859 69.3042 32.0513 67.9625 33.9288C66.6208 35.8062 64.8417 37.0676 62.625 37.7129V49.0655C64.4333 49.4762 66.0958 50.1802 67.6125 51.1776C69.1292 52.175 70.4125 53.6124 71.4625 55.4898L82.05 51.7936V51.4416C82.05 48.6548 83.0198 46.286 84.9594 44.3353C86.899 42.3845 89.2542 41.4091 92.025 41.4091C94.7958 41.4091 97.151 42.3845 99.0906 44.3353C101.03 46.286 102 48.6548 102 51.4416C102 54.2284 101.03 56.5972 99.0906 58.5479C97.151 60.4987 94.7958 61.4741 92.025 61.4741C90.1583 61.4741 88.4958 61.0634 87.0375 60.242C85.5792 59.4206 84.4417 58.2766 83.625 56.8098L73.0375 60.418C73.3292 62.2954 73.1979 64.0995 72.6437 65.8303C72.0896 67.561 71.2292 69.1011 70.0625 70.4505L77.5 79.7789C78.1417 79.4856 78.7687 79.2656 79.3812 79.1189C79.9937 78.9722 80.6956 78.8989 81.4867 78.8989C84.3122 78.8989 86.6875 79.8743 88.6125 81.825C90.5375 83.7758 91.5 86.1446 91.5 88.9314C91.5 91.7182 90.5302 94.087 88.5906 96.0377C86.651 97.9885 84.2958 98.9639 81.525 98.9639C78.7542 98.9639 76.399 97.9885 74.4594 96.0377C72.5198 94.087 71.55 91.7182 71.55 88.9314C71.55 87.758 71.7104 86.7019 72.0312 85.7632C72.3521 84.8245 72.8042 83.9151 73.3875 83.0351L65.95 73.7066C64.0759 74.704 62.0762 75.2027 59.9507 75.2027C57.8252 75.2027 55.8292 74.704 53.9625 73.7066L46.6125 83.1231C47.1958 84.0031 47.6479 84.8979 47.9688 85.8072C48.2896 86.7166 48.45 87.758 48.45 88.9314C48.45 91.7182 47.4802 94.087 45.5406 96.0377C43.601 97.9885 41.2458 98.9639 38.475 98.9639ZM27.9781 56.1938C29.3177 56.1938 30.4396 55.7381 31.3438 54.8267C32.2479 53.9152 32.7 52.7859 32.7 51.4385C32.7 50.0912 32.2469 48.9628 31.3407 48.0534C30.4345 47.1441 29.3116 46.6894 27.9719 46.6894C26.6323 46.6894 25.5104 47.1451 24.6062 48.0565C23.7021 48.9679 23.25 50.0973 23.25 51.4447C23.25 52.792 23.7031 53.9204 24.6093 54.8298C25.5155 55.7391 26.6384 56.1938 27.9781 56.1938ZM38.4781 93.6836C39.8177 93.6836 40.9396 93.2279 41.8438 92.3165C42.7479 91.405 43.2 90.2756 43.2 88.9283C43.2 87.581 42.7469 86.4526 41.8407 85.5432C40.9345 84.6338 39.8116 84.1791 38.4719 84.1791C37.1323 84.1791 36.0104 84.6349 35.1062 85.5463C34.2021 86.4577 33.75 87.5871 33.75 88.9345C33.75 90.2818 34.2031 91.4102 35.1093 92.3195C36.0155 93.2289 37.1384 93.6836 38.4781 93.6836ZM60.0031 32.7847C61.3427 32.7847 62.4646 32.329 63.3687 31.4176C64.2729 30.5061 64.725 29.3767 64.725 28.0294C64.725 26.6821 64.2719 25.5537 63.3657 24.6443C62.4595 23.7349 61.3366 23.2803 59.9969 23.2803C58.6573 23.2803 57.5354 23.736 56.6312 24.6474C55.7271 25.5588 55.275 26.6882 55.275 28.0356C55.275 29.3829 55.7281 30.5113 56.6343 31.4206C57.5405 32.33 58.6634 32.7847 60.0031 32.7847ZM60.0438 69.9225C62.2313 69.9225 64.0833 69.1451 65.6 67.5904C67.1167 66.0356 67.875 64.1582 67.875 61.9581C67.875 59.758 67.1138 57.8952 65.5913 56.3698C64.0688 54.8444 62.205 54.0817 60 54.0817C57.8417 54.0817 55.9896 54.8474 54.4437 56.3786C52.8979 57.9099 52.125 59.7844 52.125 62.0021C52.125 64.1729 52.8979 66.0356 54.4437 67.5904C55.9896 69.1451 57.8563 69.9225 60.0438 69.9225ZM81.5281 93.6836C82.8677 93.6836 83.9896 93.2279 84.8937 92.3165C85.7979 91.405 86.25 90.2756 86.25 88.9283C86.25 87.581 85.7969 86.4526 84.8907 85.5432C83.9845 84.6338 82.8616 84.1791 81.5219 84.1791C80.1823 84.1791 79.0604 84.6349 78.1562 85.5463C77.2521 86.4577 76.8 87.5871 76.8 88.9345C76.8 90.2818 77.2531 91.4102 78.1593 92.3195C79.0655 93.2289 80.1884 93.6836 81.5281 93.6836ZM92.0281 56.1938C93.3677 56.1938 94.4896 55.7381 95.3937 54.8267C96.2979 53.9152 96.75 52.7859 96.75 51.4385C96.75 50.0912 96.2969 48.9628 95.3907 48.0534C94.4845 47.1441 93.3616 46.6894 92.0219 46.6894C90.6823 46.6894 89.5604 47.1451 88.6562 48.0565C87.7521 48.9679 87.3 50.0973 87.3 51.4447C87.3 52.792 87.7531 53.9204 88.6593 54.8298C89.5655 55.7391 90.6884 56.1938 92.0281 56.1938Z" fill="black"/>
<path d="M103 51.0001C103 57.0946 98.0649 62 92 62C85.9054 62 81 57.0649 81 51.0001C81 44.9055 85.9351 40.0001 92 40.0001C98.0649 39.9704 103 44.9055 103 51.0001Z" fill="#03FFA4"/>
<path d="M50 89.0001C50 95.0946 45.0649 100 39 100C32.9054 100 28 95.0649 28 89.0001C28 82.9055 32.9351 78.0001 39 78.0001C45.0649 77.9704 50 82.9055 50 89.0001Z" fill="#03FFA4"/>
<path d="M71 29.0001C71 35.0946 66.0649 40 60 40C53.9054 40 49 35.0649 49 29.0001C49 22.9055 53.9351 18.0001 60 18.0001C66.0649 17.9704 71 22.9055 71 29.0001Z" fill="#03FFA4"/>
<path d="M39 51.0001C39 57.0946 34.0649 62 28 62C21.9054 62 17 57.0649 17 51.0001C17 44.9055 21.9351 40.0001 28 40.0001C34.0649 39.9704 39 44.9055 39 51.0001Z" fill="#BB53FF"/>
<path d="M92 89.0001C92 95.0946 87.0649 100 81 100C74.9054 100 70 95.0649 70 89.0001C70 82.9055 74.9351 78.0001 81 78.0001C87.0649 77.9704 92 82.9055 92 89.0001Z" fill="#BB53FF"/>
</g>
<g clip-path="url(#clip1_40_1060)">
<path d="M120 60C120 93.123 93.1467 120 60 120C26.8533 120 0 93.123 0 60C0 26.8533 26.8533 0 60 0C93.123 0 120 26.8533 120 60Z" fill="url(#paint1_linear_40_1060)"/>
<path d="M38.475 98.9639C35.7042 98.9639 33.349 97.9885 31.4094 96.0377C29.4698 94.087 28.5 91.7182 28.5 88.9314C28.5 86.1446 29.4698 83.7758 31.4094 81.825C33.349 79.8743 35.7042 78.8989 38.475 78.8989C39.2917 78.8989 40.0063 78.9722 40.6187 79.1189C41.2312 79.2656 41.8583 79.4856 42.5 79.7789L49.9375 70.4505C48.8292 69.1011 47.9833 67.561 47.4 65.8303C46.8167 64.0995 46.6708 62.2954 46.9625 60.418L36.375 56.8098C35.5 58.2766 34.3479 59.4206 32.9187 60.242C31.4896 61.0634 29.8417 61.4741 27.975 61.4741C25.2042 61.4741 22.849 60.4987 20.9094 58.5479C18.9698 56.5972 18 54.2284 18 51.4416C18 48.6548 18.9698 46.286 20.9094 44.3353C22.849 42.3845 25.2042 41.4091 27.975 41.4091C30.7458 41.4091 33.101 42.3845 35.0406 44.3353C36.9802 46.286 37.95 48.6548 37.95 51.4416V51.7936L48.625 55.4898C49.675 53.6124 50.9437 52.175 52.4312 51.1776C53.9188 50.1802 55.5667 49.4762 57.375 49.0655V37.7129C55.1 37.0676 53.3062 35.8062 51.9937 33.9288C50.6812 32.0513 50.025 30.0859 50.025 28.0325C50.025 25.2457 50.9948 22.8769 52.9344 20.9261C54.874 18.9754 57.2292 18 60 18C62.7708 18 65.126 18.9754 67.0656 20.9261C69.0052 22.8769 69.975 25.2457 69.975 28.0325C69.975 30.0859 69.3042 32.0513 67.9625 33.9288C66.6208 35.8062 64.8417 37.0676 62.625 37.7129V49.0655C64.4333 49.4762 66.0958 50.1802 67.6125 51.1776C69.1292 52.175 70.4125 53.6124 71.4625 55.4898L82.05 51.7936V51.4416C82.05 48.6548 83.0198 46.286 84.9594 44.3353C86.899 42.3845 89.2542 41.4091 92.025 41.4091C94.7958 41.4091 97.151 42.3845 99.0906 44.3353C101.03 46.286 102 48.6548 102 51.4416C102 54.2284 101.03 56.5972 99.0906 58.5479C97.151 60.4987 94.7958 61.4741 92.025 61.4741C90.1583 61.4741 88.4958 61.0634 87.0375 60.242C85.5792 59.4206 84.4417 58.2766 83.625 56.8098L73.0375 60.418C73.3292 62.2954 73.1979 64.0995 72.6437 65.8303C72.0896 67.561 71.2292 69.1011 70.0625 70.4505L77.5 79.7789C78.1417 79.4856 78.7687 79.2656 79.3812 79.1189C79.9937 78.9722 80.6956 78.8989 81.4867 78.8989C84.3122 78.8989 86.6875 79.8743 88.6125 81.825C90.5375 83.7758 91.5 86.1446 91.5 88.9314C91.5 91.7182 90.5302 94.087 88.5906 96.0377C86.651 97.9885 84.2958 98.9639 81.525 98.9639C78.7542 98.9639 76.399 97.9885 74.4594 96.0377C72.5198 94.087 71.55 91.7182 71.55 88.9314C71.55 87.758 71.7104 86.7019 72.0312 85.7632C72.3521 84.8245 72.8042 83.9151 73.3875 83.0351L65.95 73.7066C64.0759 74.704 62.0762 75.2027 59.9507 75.2027C57.8252 75.2027 55.8292 74.704 53.9625 73.7066L46.6125 83.1231C47.1958 84.0031 47.6479 84.8979 47.9688 85.8072C48.2896 86.7166 48.45 87.758 48.45 88.9314C48.45 91.7182 47.4802 94.087 45.5406 96.0377C43.601 97.9885 41.2458 98.9639 38.475 98.9639ZM27.9781 56.1938C29.3177 56.1938 30.4396 55.7381 31.3438 54.8267C32.2479 53.9152 32.7 52.7859 32.7 51.4385C32.7 50.0912 32.2469 48.9628 31.3407 48.0534C30.4345 47.1441 29.3116 46.6894 27.9719 46.6894C26.6323 46.6894 25.5104 47.1451 24.6062 48.0565C23.7021 48.9679 23.25 50.0973 23.25 51.4447C23.25 52.792 23.7031 53.9204 24.6093 54.8298C25.5155 55.7391 26.6384 56.1938 27.9781 56.1938ZM38.4781 93.6836C39.8177 93.6836 40.9396 93.2279 41.8438 92.3165C42.7479 91.405 43.2 90.2756 43.2 88.9283C43.2 87.581 42.7469 86.4526 41.8407 85.5432C40.9345 84.6338 39.8116 84.1791 38.4719 84.1791C37.1323 84.1791 36.0104 84.6349 35.1062 85.5463C34.2021 86.4577 33.75 87.5871 33.75 88.9345C33.75 90.2818 34.2031 91.4102 35.1093 92.3195C36.0155 93.2289 37.1384 93.6836 38.4781 93.6836ZM60.0031 32.7847C61.3427 32.7847 62.4646 32.329 63.3687 31.4176C64.2729 30.5061 64.725 29.3767 64.725 28.0294C64.725 26.6821 64.2719 25.5537 63.3657 24.6443C62.4595 23.7349 61.3366 23.2803 59.9969 23.2803C58.6573 23.2803 57.5354 23.736 56.6312 24.6474C55.7271 25.5588 55.275 26.6882 55.275 28.0356C55.275 29.3829 55.7281 30.5113 56.6343 31.4206C57.5405 32.33 58.6634 32.7847 60.0031 32.7847ZM60.0438 69.9225C62.2313 69.9225 64.0833 69.1451 65.6 67.5904C67.1167 66.0356 67.875 64.1582 67.875 61.9581C67.875 59.758 67.1138 57.8952 65.5913 56.3698C64.0688 54.8444 62.205 54.0817 60 54.0817C57.8417 54.0817 55.9896 54.8474 54.4437 56.3786C52.8979 57.9099 52.125 59.7844 52.125 62.0021C52.125 64.1729 52.8979 66.0356 54.4437 67.5904C55.9896 69.1451 57.8563 69.9225 60.0438 69.9225ZM81.5281 93.6836C82.8677 93.6836 83.9896 93.2279 84.8937 92.3165C85.7979 91.405 86.25 90.2756 86.25 88.9283C86.25 87.581 85.7969 86.4526 84.8907 85.5432C83.9845 84.6338 82.8616 84.1791 81.5219 84.1791C80.1823 84.1791 79.0604 84.6349 78.1562 85.5463C77.2521 86.4577 76.8 87.5871 76.8 88.9345C76.8 90.2818 77.2531 91.4102 78.1593 92.3195C79.0655 93.2289 80.1884 93.6836 81.5281 93.6836ZM92.0281 56.1938C93.3677 56.1938 94.4896 55.7381 95.3937 54.8267C96.2979 53.9152 96.75 52.7859 96.75 51.4385C96.75 50.0912 96.2969 48.9628 95.3907 48.0534C94.4845 47.1441 93.3616 46.6894 92.0219 46.6894C90.6823 46.6894 89.5604 47.1451 88.6562 48.0565C87.7521 48.9679 87.3 50.0973 87.3 51.4447C87.3 52.792 87.7531 53.9204 88.6593 54.8298C89.5655 55.7391 90.6884 56.1938 92.0281 56.1938Z" fill="black"/>
<path d="M103 51.0001C103 57.0946 98.0649 62 92 62C85.9054 62 81 57.0649 81 51.0001C81 44.9055 85.9351 40.0001 92 40.0001C98.0649 39.9704 103 44.9055 103 51.0001Z" fill="#03FFA4"/>
<path d="M50 89.0001C50 95.0946 45.0649 100 39 100C32.9054 100 28 95.0649 28 89.0001C28 82.9055 32.9351 78.0001 39 78.0001C45.0649 77.9704 50 82.9055 50 89.0001Z" fill="#03FFA4"/>
<path d="M71 29.0001C71 35.0946 66.0649 40 60 40C53.9054 40 49 35.0649 49 29.0001C49 22.9055 53.9351 18.0001 60 18.0001C66.0649 17.9704 71 22.9055 71 29.0001Z" fill="#03FFA4"/>
<path d="M39 51.0001C39 57.0946 34.0649 62 28 62C21.9054 62 17 57.0649 17 51.0001C17 44.9055 21.9351 40.0001 28 40.0001C34.0649 39.9704 39 44.9055 39 51.0001Z" fill="#BB53FF"/>
<path d="M92 89.0001C92 95.0946 87.0649 100 81 100C74.9054 100 70 95.0649 70 89.0001C70 82.9055 74.9351 78.0001 81 78.0001C87.0649 77.9704 92 82.9055 92 89.0001Z" fill="#BB53FF"/>
</g>
<defs>
<linearGradient id="paint0_linear_40_1060" x1="60" y1="0" x2="60" y2="120" gradientUnits="userSpaceOnUse">
<stop stop-color="#296AF1"/>
<stop offset="1" stop-color="#51D7FF"/>
</linearGradient>
<linearGradient id="paint1_linear_40_1060" x1="60" y1="0" x2="60" y2="120" gradientUnits="userSpaceOnUse">
<stop stop-color="#296AF1"/>
<stop offset="1" stop-color="#51D7FF"/>
</linearGradient>
<clipPath id="clip0_40_1060">
<rect width="120" height="120" fill="white"/>
</clipPath>
<clipPath id="clip1_40_1060">
<rect width="120" height="120" fill="white"/>
</clipPath>
</defs>
</svg>
