<svg width="120" height="120" viewBox="0 0 120 120" fill="none" xmlns="http://www.w3.org/2000/svg">
<g clip-path="url(#clip0_24_330)">
<path d="M120 60C120 93.1467 93.1467 120 60 120C26.8533 120 0 93.1467 0 60C0 26.877 26.8533 0 60 0C93.123 0 120 26.877 120 60Z" fill="url(#paint0_linear_24_330)"/>
<path d="M5.89111 34.0457V44.929C5.89111 49.9921 9.98417 54.0851 15.0473 54.0851H32.4369C37.4999 54.0851 41.593 49.9921 41.593 44.929V25.7176C41.593 19.3059 36.9558 11.6403 25.5283 10.9305C17.1529 16.798 10.3627 24.7476 5.89111 34.0457Z" fill="url(#paint1_linear_24_330)"/>
<path d="M36.388 57.0663L27.1845 61.1593C25.0079 62.1057 22.5237 62.1057 20.347 61.1357L11.3565 57.0663C8.13881 57.0663 5.25237 59.2429 4.06941 62.5316L1.04102 70.907C2.55521 79.1404 5.72556 86.7824 10.2445 93.478C14.6215 94.4953 19.2114 95.0395 23.8959 95.0395C34.377 95.0395 44.2192 92.3423 52.7839 87.6341L43.6987 62.5316C42.4685 59.2429 39.582 57.0663 36.388 57.0663Z" fill="black"/>
<path d="M118.84 71.6641L115.954 63.6672C114.771 60.3786 111.885 58.2256 108.667 58.2256L99.4635 62.295C97.2868 63.265 94.779 63.2414 92.626 62.2713L83.6354 58.2256C80.4178 58.2256 77.5313 60.3786 76.3484 63.6672L67.2632 88.7697C75.8279 93.5016 85.6938 96.1988 96.1512 96.1988C100.505 96.1988 104.763 95.7256 108.833 94.8265C113.683 88.0363 117.161 80.1814 118.84 71.6641Z" fill="black"/>
<path d="M113.872 46.0883V33.5962C109.684 25.0552 103.509 17.6498 95.9856 11.9952C83.2806 12.0189 78.1938 19.9448 78.1938 26.8769V46.0883C78.1938 51.1514 82.2869 55.2444 87.35 55.2444H104.74C109.779 55.2444 113.872 51.1514 113.872 46.0883Z" fill="url(#paint2_linear_24_330)"/>
<path d="M42.0427 50.6782C42.0427 43.746 47.1531 35.7965 59.8818 35.7965C72.6105 35.7965 77.7209 43.9353 77.7209 50.6782V69.8896C77.7209 74.9527 73.6279 79.0457 68.5648 79.0457H51.1752C46.1121 79.0457 42.019 74.9527 42.019 69.8896V50.6782H42.0427Z" fill="url(#paint3_linear_24_330)"/>
<path d="M59.9998 120C70.4809 120 80.3232 117.303 88.8878 112.595L79.8027 87.4922C78.6197 84.2035 75.7333 82.0269 72.5156 82.0269L63.3121 86.0963C61.1355 87.0663 58.6513 87.0663 56.4746 86.0726L47.4841 82.0269C44.2664 82.0269 41.38 84.2035 40.197 87.4922L31.1118 112.595C39.6765 117.303 49.5188 120 59.9998 120Z" fill="#03FFA4"/>
</g>
<defs>
<linearGradient id="paint0_linear_24_330" x1="60" y1="0" x2="60" y2="120" gradientUnits="userSpaceOnUse">
<stop stop-color="#2C71F2"/>
<stop offset="1" stop-color="#52DCFF"/>
</linearGradient>
<linearGradient id="paint1_linear_24_330" x1="23.7421" y1="10.9305" x2="23.7421" y2="54.0851" gradientUnits="userSpaceOnUse">
<stop stop-color="#CBE7E7"/>
<stop offset="1" stop-color="#CBE7E7" stop-opacity="0"/>
</linearGradient>
<linearGradient id="paint2_linear_24_330" x1="96.033" y1="11.9952" x2="96.033" y2="55.2444" gradientUnits="userSpaceOnUse">
<stop stop-color="#CBE7E7"/>
<stop offset="1" stop-color="#CBE7E7" stop-opacity="0"/>
</linearGradient>
<linearGradient id="paint3_linear_24_330" x1="59.87" y1="35.7965" x2="59.87" y2="79.0457" gradientUnits="userSpaceOnUse">
<stop stop-color="white"/>
<stop offset="1" stop-color="#AFC8FC"/>
</linearGradient>
<clipPath id="clip0_24_330">
<rect width="120" height="120" fill="white"/>
</clipPath>
</defs>
</svg>
