<svg width="100" height="100" viewBox="0 0 100 100" fill="none" xmlns="http://www.w3.org/2000/svg">
<mask id="path-1-inside-1_24_2846" fill="white">
<path fill-rule="evenodd" clip-rule="evenodd" d="M13 8H87V33H13V8ZM13 38H87V63H13V38ZM87 68H13V93H87V68Z"/>
</mask>
<path fill-rule="evenodd" clip-rule="evenodd" d="M13 8H87V33H13V8ZM13 38H87V63H13V38ZM87 68H13V93H87V68Z" fill="url(#paint0_linear_24_2846)"/>
<path d="M87 8H89V6H87V8ZM13 8V6H11V8H13ZM87 33V35H89V33H87ZM13 33H11V35H13V33ZM87 38H89V36H87V38ZM13 38V36H11V38H13ZM87 63V65H89V63H87ZM13 63H11V65H13V63ZM13 68V66H11V68H13ZM87 68H89V66H87V68ZM13 93H11V95H13V93ZM87 93V95H89V93H87ZM87 6H13V10H87V6ZM89 33V8H85V33H89ZM13 35H87V31H13V35ZM11 8V33H15V8H11ZM87 36H13V40H87V36ZM89 63V38H85V63H89ZM13 65H87V61H13V65ZM11 38V63H15V38H11ZM13 70H87V66H13V70ZM15 93V68H11V93H15ZM87 91H13V95H87V91ZM85 68V93H89V68H85Z" fill="url(#paint1_linear_24_2846)" mask="url(#path-1-inside-1_24_2846)"/>
<defs>
<linearGradient id="paint0_linear_24_2846" x1="50" y1="10.5" x2="50" y2="94" gradientUnits="userSpaceOnUse">
<stop stop-color="#4CF3BA"/>
<stop offset="1" stop-color="white" stop-opacity="0"/>
</linearGradient>
<linearGradient id="paint1_linear_24_2846" x1="50" y1="20" x2="50" y2="94" gradientUnits="userSpaceOnUse">
<stop stop-color="#33E79B"/>
<stop offset="1" stop-color="#DFFFDA" stop-opacity="0.45"/>
</linearGradient>
</defs>
</svg>
