<svg fill="none" height="37" viewBox="0 0 36 37" width="36" xmlns="http://www.w3.org/2000/svg"><circle cx="18" cy="18.7598" r="17.25" stroke="#000" stroke-opacity=".1" stroke-width="1.5"/><path clip-rule="evenodd" d="m22.0894 24.9809s-.5296-.6325-.9709-1.1915c1.927-.5443 2.6626-1.7506 2.6626-1.7506-.6032.3972-1.1769.6767-1.6917.868-.7356.3089-1.4417.5148-2.1331.6325-1.4122.2648-2.7067.1912-3.81-.0147-.8385-.1618-1.5593-.3972-2.1624-.6326-.3384-.1323-.7061-.2942-1.0739-.5001-.022-.0147-.0441-.0258-.0662-.0368-.022-.011-.0441-.022-.0662-.0368-.0294-.0147-.0441-.0294-.0588-.0441-.2648-.1471-.4119-.2501-.4119-.2501s.7061 1.1769 2.5743 1.7359c-.4413.559-.9856 1.2209-.9856 1.2209-3.251-.1029-4.48666-2.236-4.48666-2.236 0-4.7367 2.11826-8.5762 2.11826-8.5762 2.1183-1.5887 4.1337-1.5446 4.1337-1.5446l.1471.1766c-2.6479.7649-3.8689 1.927-3.8689 1.927s.3237-.1765.868-.4266c1.574-.6914 2.8244-.8826 3.3392-.9267l.033-.0056c.0742-.0126.1401-.0238.2171-.0238.8973-.1177 1.9124-.1471 2.9715-.0295 1.3975.1619 2.898.5737 4.4279 1.4122 0 0-1.1622-1.1032-3.6629-1.8682l.2059-.2354s2.0153-.0441 4.1336 1.5446c0 0 2.1184 3.8395 2.1184 8.5762 0 0-1.2504 2.1331-4.5014 2.236zm-5.1634-5.3768c0 .8897-.7212 1.6108-1.6108 1.6108s-1.6108-.7211-1.6108-1.6108c0-.8896.7212-1.6108 1.6108-1.6108s1.6108.7212 1.6108 1.6108zm3.7586 1.6105c.8896 0 1.6108-.7212 1.6108-1.6108s-.7212-1.6108-1.6108-1.6108-1.6108.7212-1.6108 1.6108.7212 1.6108 1.6108 1.6108z" fill="#000" fill-opacity=".5" fill-rule="evenodd"/></svg>