<svg width="73" height="33" viewBox="0 0 73 33" fill="none" xmlns="http://www.w3.org/2000/svg">
<path d="M7.86688 18.2259C10.1397 19.4428 10.9732 15.2599 7.77863 15.7932C6.9651 15.9297 6.25543 15.9656 5.64964 15.901C3.34088 15.655 1.46467 13.8232 1.77411 11.4243C2.0149 9.56304 3.56315 7.90209 5.09506 6.8942C8.81479 4.44739 13.5435 3.9761 17.614 5.86889C19.2919 6.6493 20.8424 7.89229 21.7717 9.49556C22.7567 11.1935 22.1945 13.0264 20.6005 14.0485C18.3778 15.4743 15.193 14.966 13.3408 13.1375C13.2979 13.0954 13.3063 13.0787 13.3659 13.0874C13.5729 13.1193 13.7752 13.152 13.9727 13.1854C15.4992 13.4411 17.0801 13.0787 17.8984 11.692C18.9095 9.981 17.711 8.15787 16.1431 7.40467C14.1623 6.45229 11.6858 6.68739 10.058 8.2776C9.20158 9.11569 8.63175 10.2749 8.85837 11.4776C9.29529 13.7971 12.1314 14.4849 13.8801 15.4515C14.889 16.0088 15.8086 16.8447 16.178 17.9756C17.2468 21.242 13.7897 23.1467 11.0506 22.289C9.30618 21.7426 7.88541 20.1579 7.80151 18.2662C7.79933 18.2154 7.82112 18.202 7.86688 18.2259Z" fill="black"/>
<path d="M68.2051 11.6125H66.1633C66.1374 11.6125 66.1165 11.6335 66.1165 11.6594V22.252C66.1165 22.2779 66.1374 22.2988 66.1633 22.2988H68.2051C68.231 22.2988 68.252 22.2779 68.252 22.252V11.6594C68.252 11.6335 68.231 11.6125 68.2051 11.6125Z" fill="black"/>
<path d="M25.1526 19.276C25.7148 20.8107 27.5583 21.0611 28.759 20.1174C28.7873 20.0949 28.8153 20.0956 28.8429 20.1196L30.1449 21.2679C30.1501 21.2724 30.1543 21.2781 30.1571 21.2844C30.1599 21.2908 30.1613 21.2976 30.1612 21.3046C30.1611 21.3115 30.1595 21.3183 30.1565 21.3246C30.1535 21.3308 30.1492 21.3364 30.1438 21.3408C29.0245 22.2384 27.7446 22.5696 26.3042 22.3345C23.7362 21.9144 22.1846 19.1759 23.3788 16.8009C24.7669 14.0417 28.8603 13.8763 30.2495 16.728C30.6083 17.4652 30.7489 18.2845 30.6712 19.1857C30.669 19.2104 30.6555 19.2227 30.6308 19.2227H25.1907C25.1529 19.2227 25.1402 19.2405 25.1526 19.276ZM28.6043 17.6096C28.313 17.0284 27.9324 16.6511 27.4624 16.4777C26.4023 16.0847 25.4043 16.6877 25.1079 17.7217C25.1067 17.7258 25.1065 17.7301 25.1073 17.7342C25.108 17.7384 25.1097 17.7423 25.1123 17.7457C25.1148 17.7491 25.1181 17.7518 25.1219 17.7537C25.1257 17.7556 25.1298 17.7566 25.1341 17.7566L28.5128 17.7577C28.5302 17.7576 28.5474 17.7532 28.5626 17.7447C28.5778 17.7362 28.5906 17.7239 28.5998 17.7091C28.609 17.6943 28.6142 17.6774 28.615 17.6599C28.6158 17.6425 28.6121 17.6252 28.6043 17.6096Z" fill="black"/>
<path d="M55.9355 18.584C55.9409 19.0924 55.8419 19.5969 55.6443 20.0688C55.4467 20.5406 55.1543 20.9705 54.7838 21.3339C54.4134 21.6973 53.9721 21.9871 53.4852 22.1867C52.9983 22.3864 52.4753 22.492 51.9461 22.4976C50.8772 22.5087 49.8479 22.1116 49.0845 21.3935C48.3211 20.6754 47.8862 19.6951 47.8754 18.6684C47.8701 18.16 47.9691 17.6555 48.1667 17.1837C48.3643 16.7119 48.6567 16.282 49.0271 15.9186C49.3976 15.5552 49.8389 15.2654 50.3258 15.0657C50.8127 14.866 51.3357 14.7604 51.8649 14.7549C52.9337 14.7437 53.9631 15.1408 54.7264 15.8589C55.4898 16.5771 55.9248 17.5573 55.9355 18.584ZM53.7969 18.6327C53.7969 18.1316 53.5977 17.651 53.2429 17.2967C52.8882 16.9423 52.4071 16.7432 51.9055 16.7432C51.6571 16.7432 51.4111 16.7921 51.1817 16.8871C50.9522 16.982 50.7437 17.1212 50.568 17.2967C50.3924 17.4721 50.2531 17.6804 50.158 17.9097C50.0629 18.1389 50.014 18.3846 50.014 18.6327C50.014 19.1339 50.2133 19.6145 50.568 19.9688C50.9227 20.3232 51.4038 20.5223 51.9055 20.5223C52.4071 20.5223 52.8882 20.3232 53.2429 19.9688C53.5977 19.6145 53.7969 19.1339 53.7969 18.6327Z" fill="black"/>
<path d="M35.6973 16.8283C34.5021 16.8349 33.9442 17.7578 33.9431 18.8474C33.9424 19.9859 33.9435 21.1218 33.9464 22.2553C33.9464 22.2668 33.9418 22.2779 33.9336 22.286C33.9255 22.2942 33.9144 22.2988 33.9028 22.2988L31.8599 22.2977C31.846 22.2977 31.8327 22.2923 31.8229 22.2827C31.8131 22.2731 31.8076 22.2601 31.8076 22.2466C31.8061 21.0398 31.8054 19.8342 31.8054 18.6297C31.8054 16.751 32.7893 15.2849 34.6709 14.8974C36.7563 14.4675 38.9551 15.2915 39.4617 17.5641C39.5278 17.8609 39.563 18.3558 39.5674 19.0487C39.5739 20.1147 39.5736 21.181 39.5663 22.2476C39.5663 22.2832 39.5485 22.301 39.5129 22.301L37.5016 22.3021C37.4573 22.3021 37.4351 22.2799 37.4351 22.2357C37.433 21.1037 37.4308 19.9931 37.4286 18.904C37.4275 17.8232 36.9023 16.8218 35.6973 16.8283Z" fill="black"/>
<path d="M43.809 17.7218C45.1165 18.0265 46.9295 18.1572 47.0897 19.878C47.2073 21.1362 46.2616 22.0353 45.1208 22.3444C43.541 22.7732 41.6201 22.4173 40.7474 20.9098C40.7427 20.9018 40.7397 20.893 40.7385 20.8838C40.7373 20.8747 40.7379 20.8654 40.7404 20.8565C40.7428 20.8475 40.747 20.8392 40.7527 20.8319C40.7584 20.8246 40.7655 20.8186 40.7735 20.814L42.2422 19.9944C42.2512 19.9897 42.2615 19.9884 42.2712 19.9908C42.2809 19.9933 42.2892 19.9992 42.2945 20.0075C42.6258 20.5358 43.0935 20.806 43.6979 20.8184C44.0705 20.826 44.5347 20.7825 44.794 20.5332C45.0453 20.2916 45.0406 20.0347 44.7798 19.7626C44.697 19.6763 44.4751 19.5979 44.1141 19.5275C43.4211 19.3918 42.8324 19.2463 42.3479 19.091C41.5493 18.8363 40.9217 18.2083 40.8836 17.2897C40.8313 16.0086 41.8108 15.1106 43.0006 14.8777C44.5041 14.5849 46.0579 14.9898 46.8685 16.3253C46.8724 16.3318 46.8749 16.339 46.876 16.3465C46.877 16.3539 46.8766 16.3616 46.8747 16.3689C46.8727 16.3762 46.8694 16.383 46.8647 16.389C46.8601 16.395 46.8544 16.4 46.8478 16.4037L45.3823 17.22C45.3489 17.2389 45.322 17.2324 45.3017 17.2004C44.9182 16.6134 44.3687 16.3783 43.6532 16.4951C43.2337 16.5637 42.7598 17.0502 43.1684 17.429C43.3064 17.5567 43.5199 17.6543 43.809 17.7218Z" fill="black"/>
<path d="M60.7603 20.4691C61.8629 20.3842 62.3303 19.3894 62.3281 18.4109C62.326 17.2978 62.3256 16.1778 62.3271 15.0509C62.3271 15.033 62.3343 15.0158 62.3472 15.0032C62.36 14.9905 62.3775 14.9834 62.3957 14.9834H64.4103C64.4444 14.9834 64.4618 15.0005 64.4626 15.0346C64.4713 16.9422 64.472 18.195 64.4648 18.7929C64.4321 21.3682 62.4218 22.782 59.9464 22.4446C58.4188 22.2367 57.2715 21.0547 57.0002 19.5461C56.9501 19.2689 56.924 18.8201 56.9218 18.1997C56.9182 17.1454 56.9185 16.0911 56.9229 15.0367C56.9229 15.0012 56.941 14.9834 56.9774 14.9834H59.0192C59.0255 14.9834 59.0317 14.9846 59.0375 14.987C59.0433 14.9895 59.0486 14.993 59.0531 14.9974C59.0575 15.0019 59.0611 15.0072 59.0635 15.013C59.0659 15.0188 59.0671 15.025 59.0671 15.0313C59.0591 16.0486 59.0595 17.0685 59.0682 18.0909C59.0758 18.9986 59.1663 19.7845 59.8897 20.2601C60.1403 20.4248 60.4305 20.4945 60.7603 20.4691Z" fill="black"/>
<path d="M28.6043 17.6097C28.6121 17.6253 28.6157 17.6426 28.615 17.66C28.6142 17.6774 28.609 17.6943 28.5998 17.7092C28.5906 17.724 28.5778 17.7362 28.5626 17.7447C28.5473 17.7532 28.5302 17.7577 28.5128 17.7577L25.134 17.7566C25.1298 17.7566 25.1257 17.7556 25.1219 17.7537C25.1181 17.7519 25.1148 17.7491 25.1123 17.7457C25.1097 17.7424 25.108 17.7384 25.1073 17.7343C25.1065 17.7301 25.1067 17.7258 25.1079 17.7218C25.4043 16.6878 26.4023 16.0848 27.4624 16.4777C27.9324 16.6511 28.313 17.0285 28.6043 17.6097Z" fill="white"/>
<path d="M51.9055 20.5225C52.9501 20.5225 53.797 19.6765 53.797 18.6329C53.797 17.5894 52.9501 16.7434 51.9055 16.7434C50.8609 16.7434 50.014 17.5894 50.014 18.6329C50.014 19.6765 50.8609 20.5225 51.9055 20.5225Z" fill="white"/>
</svg>
