<svg fill="none" height="608" viewBox="0 0 920 608" width="920" xmlns="http://www.w3.org/2000/svg" xmlns:xlink="http://www.w3.org/1999/xlink"><linearGradient id="a" gradientUnits="userSpaceOnUse" x1="429" x2="428.613" y1="-46" y2="505"><stop offset="0" stop-color="#aac7ff"/><stop offset="1" stop-color="#fff"/></linearGradient><linearGradient id="b" gradientUnits="userSpaceOnUse" x1="428.613" x2="428.613" y1="-46" y2="505"><stop offset="0" stop-color="#ff97d0"/><stop offset="1" stop-color="#fbf5ef"/></linearGradient><linearGradient id="c" gradientUnits="userSpaceOnUse" x1="398.94" x2="225.467" y1="231.338" y2="310.112"><stop offset="0" stop-color="#fff"/><stop offset=".578226" stop-color="#fff"/><stop offset="1" stop-color="#ebf2ff"/></linearGradient><linearGradient id="d"><stop offset="0" stop-color="#bfff8d"/><stop offset="1" stop-color="#fff" stop-opacity="0"/></linearGradient><linearGradient id="e" gradientUnits="userSpaceOnUse" x1="164.738" x2="235.397" xlink:href="#d" y1="64.8008" y2="-3.56571"/><linearGradient id="f"><stop offset="0" stop-color="#fff"/><stop offset="1" stop-color="#fff" stop-opacity="0"/></linearGradient><linearGradient id="g" gradientUnits="userSpaceOnUse" x1="681.347" x2="701.419" xlink:href="#f" y1="201.389" y2="185.283"/><linearGradient id="h" gradientUnits="userSpaceOnUse" x1="487.426" x2="528.641" y1="295.65" y2="265.524"><stop offset="0" stop-color="#fff962"/><stop offset="1" stop-color="#fff" stop-opacity="0"/></linearGradient><linearGradient id="i" gradientUnits="userSpaceOnUse" x1="485.084" x2="521.575" xlink:href="#f" y1="30.5015" y2="-4.43151"/><linearGradient id="j" gradientUnits="userSpaceOnUse" x1="282.926" x2="302.062" y1="187.026" y2="168.063"><stop offset="0" stop-color="#fff27e"/><stop offset="1" stop-color="#fff8bd" stop-opacity="0"/></linearGradient><linearGradient id="k" gradientUnits="userSpaceOnUse" x1="399.164" x2="423.11" y1="92.7884" y2="69.1114"><stop offset="0" stop-color="#fff"/><stop offset="1" stop-color="#ffcacd" stop-opacity="0"/></linearGradient><linearGradient id="l" gradientUnits="userSpaceOnUse" x1="268.827" x2="279.327" y1="218.76" y2="209.26"><stop offset="0" stop-color="#feffe6"/><stop offset="1" stop-color="#fdff99" stop-opacity="0"/></linearGradient><linearGradient id="m" gradientUnits="userSpaceOnUse" x1="9.73751" x2="80.3973" xlink:href="#d" y1="101.801" y2="33.4343"/><linearGradient id="n" gradientUnits="userSpaceOnUse" x1="726.667" x2="802.328" y1="179.103" y2="379.215"><stop offset="0" stop-color="#d7ffc8" stop-opacity="0"/><stop offset=".45857" stop-color="#deffb3" stop-opacity=".55"/><stop offset="1" stop-color="#d7e5ff"/></linearGradient><linearGradient id="o" gradientUnits="userSpaceOnUse" x1="434.9" x2="527.885" y1="105.957" y2="198.941"><stop offset="0" stop-color="#f06c63"/><stop offset="1" stop-color="#fcf6ff" stop-opacity="0"/></linearGradient><linearGradient id="p" gradientUnits="userSpaceOnUse" x1="162.898" x2="164.312" y1="261.134" y2="299.318"><stop offset="0" stop-color="#d7f9a0"/><stop offset="1" stop-color="#c3ff77" stop-opacity="0"/></linearGradient><linearGradient id="q" gradientUnits="userSpaceOnUse" x1="262.15" x2="273.408" y1="38.2397" y2="54.2974"><stop offset="0" stop-color="#f9c6a0"/><stop offset="1" stop-color="#ffd177" stop-opacity="0"/></linearGradient><linearGradient id="r" gradientUnits="userSpaceOnUse" x1="505" x2="505" y1="303" y2="2015"><stop offset="0" stop-color="#ffdce5"/><stop offset=".125" stop-color="#a9d7f7"/></linearGradient><linearGradient id="s"><stop offset="0" stop-color="#d9d2e6"/><stop offset="1" stop-color="#f0dce9"/></linearGradient><linearGradient id="t" gradientUnits="userSpaceOnUse" x1="322.57" x2="316.858" xlink:href="#s" y1="343.658" y2="381.33"/><linearGradient id="u" gradientUnits="userSpaceOnUse" x1="438.317" x2="430.966" y1="322.016" y2="364.484"><stop offset="0" stop-color="#d5cce6"/><stop offset="1" stop-color="#f0dce9"/></linearGradient><linearGradient id="v" gradientUnits="userSpaceOnUse" x1="612.004" x2="607.182" xlink:href="#s" y1="329.651" y2="361.454"/><linearGradient id="w" gradientUnits="userSpaceOnUse" x1="709.066" x2="791.066" y1="39.8088" y2="150.809"><stop offset="0" stop-color="#b1ecff"/><stop offset="1" stop-color="#b394ff"/></linearGradient><linearGradient id="x" gradientUnits="userSpaceOnUse" x1="600.066" x2="910.566" y1="164.809" y2="37.8088"><stop offset="0" stop-color="#9ed0ff" stop-opacity=".18"/><stop offset=".197769" stop-color="#aecaff"/><stop offset=".493598" stop-color="#d0c0ff"/><stop offset=".70733" stop-color="#9bb3ff"/><stop offset="1" stop-color="#6590ff" stop-opacity="0"/></linearGradient><linearGradient id="y" gradientUnits="userSpaceOnUse" x1="649.545" x2="905.066" y1="141.905" y2="32.3089"><stop offset="0" stop-color="#7bd7ff" stop-opacity=".41"/><stop offset=".452475" stop-color="#b6c2ff"/><stop offset="1" stop-color="#81d9ff" stop-opacity=".81"/></linearGradient><linearGradient id="z" gradientUnits="userSpaceOnUse" x1="99.1179" x2="143.182" y1="109.695" y2="210.412"><stop offset="0" stop-color="#c3ffb4"/><stop offset=".409612" stop-color="#4ade97"/><stop offset="1" stop-color="#4eabb3" stop-opacity="0"/></linearGradient><linearGradient id="A" gradientUnits="userSpaceOnUse" x1="131.271" x2="92.3158" y1="156.052" y2="180.597"><stop offset="0" stop-color="#3affb8" stop-opacity=".56"/><stop offset=".983597" stop-color="#a1f0ca"/></linearGradient><linearGradient id="B" gradientUnits="userSpaceOnUse" x1="512" x2="512" y1="428.5" y2="560"><stop offset="0" stop-color="#fff"/><stop offset=".502973" stop-color="#fff"/><stop offset="1" stop-color="#fff" stop-opacity="0"/></linearGradient><linearGradient id="C" gradientUnits="userSpaceOnUse" x1="436.794" x2="436.794" xlink:href="#f" y1="507.245" y2="551.419"/><linearGradient id="D" gradientUnits="userSpaceOnUse" x1="592.67" x2="592.67" xlink:href="#f" y1="507.225" y2="551.405"/><mask id="E" height="608" maskUnits="userSpaceOnUse" width="920" x="0" y="0"><path d="m0 0h920v608h-920z" fill="#d9d9d9"/></mask><mask id="F" height="551" maskUnits="userSpaceOnUse" width="1031" x="-66" y="-46"><path d="m302 422.5c39.2 62.8 109 78 135 79.5 0-20 20.5-79.5 83.5-76 58.444 3.247 72.5 64 72.5 79 27-38 77.5-31 95-80s48.5-75.5 95-110 37.5-93 37.5-123.5c0-79.939 27-85 71-136 72.5-101.5 122-101.5-7.5-101.5h-912.5-37.5c72.5 10 111.5 120 97 210.5-9.1758 57.27 30.5 137.029 102.5 158 21.122 6.152 119.5 21.5 168.5 100z" fill="url(#b)"/></mask><g mask="url(#E)"><path d="m302 422.5c39.2 62.8 109 78 135 79.5 0-20 20-77.947 85-74.5 60 3.182 71 62.5 71 77.5 27-38 77.5-31 95-80s48.5-75.5 95-110 37.5-93 37.5-123.5c0-79.939 20-75.5 64-126.5s28.5-123-107-123l-769 12h-74.5c72.5 10 105.5 45.5 105.5 176.5 0 36 17.5 134 88 179.5 18.485 11.93 125.5 34 174.5 112.5z" fill="url(#a)"/><g mask="url(#F)"><path d="m408.999 222.711c12.296 8.775 6.467 18.149 1.631 21.146 26.845-1.09 32.807 2.126 36.328 4.878 2.816 2.202-8.437 4.396-14.416 5.218 5.418.776 14.47 4.705 15.11 6.974-.306 4.551-5.645 3.032-19.228.957-23.292-4.234-28.238-3.847-45.973-3.743-17.736.105-39.376 7.36-52.579 14.829-13.203 7.468-28.781 16.759-41.232 22.287-46.048 19.036-60.163 16.103-61.308 16.138-1.146.035-9.771-.846-9.433-4.254.339-3.408 2.421-3.707 11.205-4.312s30.362-6.546 28.414-6.285c-1.949.261-19.605-.377-22.811-.481-3.207-.103-9.922-1.379-9.433-4.253.49-2.875 2.513-2.869 19.412-3.89 18.56-.971 30.703-9.091 34.455-13.03-4.921-1.061-4.633-1.575-5.686-5.31 1.672-7.386 11.372-7.817 19.658-8.137 13.951-12.807 50.44-22.243 66.94-25.36-8.516.529-33.965 5.546-44.706 8.431-8.592 2.308-12.265 2.258-13.027 1.945-2.112-1.853-3.111-4.884 1.467-8.624 4.327-3.535 29.379-7.252 31.432-7.457-13.276-.038-28.781 2.243-34.89 3.391-1.457.123-4.499-.488-5.004-3.918-.631-4.287 7.952-7.14 12.634-8.46 27.434-8.429 56.507-2.781 67.614 1.096 12.405-3.642 23.634-4.793 33.426.224z" fill="url(#c)"/><ellipse cx="399.767" cy="233.378" fill="#f00" rx="3.45692" ry="3.39356" transform="matrix(.96245713 -.27143373 .27143373 .96245713 -48.338261 117.271928)"/><path d="m161.293 68.2929c-.391.3905-.391 1.0237 0 1.4142.39.3905 1.024.3905 1.414 0zm73-73.00001-73 73.00001 1.414 1.4142 73-72.99999z" fill="url(#e)"/><path d="m680.371 202.223c-.429.347-.496.977-.148 1.406.347.429.977.496 1.406.148zm21-17-21 17 1.258 1.554 21-17z" fill="url(#g)"/><path d="m485.403 297.198c-.443.329-.535.956-.205 1.399.329.443.956.535 1.399.205zm43-32-43 32 1.194 1.604 43-32z" fill="url(#h)"/><path d="m483.302 32.2835c-.395.3853-.404 1.0184-.018 1.4141.385.3957 1.018.4042 1.414.0189zm38-36.99997-38 36.99997 1.396 1.433 38-37.00003z" fill="url(#i)"/><path d="m282 188c-.391.391-.391 1.024 0 1.414.39.391 1.024.391 1.414 0zm20-20-20 20 1.414 1.414 20-20z" fill="url(#j)"/><path d="m397.293 93.2929c-.391.3905-.391 1.0237 0 1.4142.39.3905 1.024.3905 1.414 0zm25-25-25 25 1.414 1.4142 25-25z" fill="url(#k)"/><path d="m268.327 219.26c-.408.372-.438 1.004-.067 1.413.372.408 1.004.438 1.413.067zm11-10-11 10 1.346 1.48 11-10z" fill="url(#l)"/><path d="m6.2929 105.293c-.39053.39-.39053 1.024 0 1.414.39052.391 1.02369.391 1.41421 0zm73-73.0001-73 73.0001 1.41421 1.414 72.99999-72.9999z" fill="url(#m)"/><circle cx="767.92" cy="344.92" fill="url(#n)" r="125.808" transform="matrix(.70710678 .70710678 -.70710678 .70710678 468.813832 -441.97671)"/><circle cx="483.04" cy="154.04" fill="url(#o)" r="65.7892" transform="matrix(.70710678 .70710678 -.70710678 .70710678 250.401869 -296.443588)"/><circle cx="161.54" cy="291.54" fill="url(#p)" r="30.7875" transform="matrix(.70710678 .70710678 -.70710678 .70710678 253.463882 -28.83594)"/><circle cx="274.73" cy="46.73" fill="url(#q)" r="16.0725" transform="matrix(.70710678 .70710678 -.70710678 .70710678 113.509654 -180.576546)"/><circle cx="505" cy="1159" fill="url(#r)" r="856"/><ellipse cx="316.858" cy="362.828" fill="url(#t)" rx="34.2013" ry="18.5023" transform="matrix(.96496202 -.2623896 .2623896 .96496202 -84.10023 95.853005)"/><ellipse cx="432.639" cy="343.773" fill="url(#u)" rx="34" ry="21" transform="matrix(.99648744 -.08374237 .08374237 .99648744 -27.268694 37.437738)"/><ellipse cx="607.182" cy="345.834" fill="url(#v)" rx="28.872" ry="15.6193" transform="matrix(.98833417 .15230089 -.15230089 .98833417 59.754105 -88.439918)"/><circle cx="749.566" cy="100.309" fill="url(#w)" r="70"/><path clip-rule="evenodd" d="m910.148 33.486c8.922 21.4338-55.552 68.658-144.007 105.478s-167.394 49.293-176.316 27.859c-7.037-16.905 31.581-49.852 91.612-81.0849-1.235 6.1692-1.6 12.1046-1.632 15.6019-38.605 21.406-62.429 41.873-58.122 52.221 6.219 14.939 68.703 3.138 139.563-26.358 70.859-29.4955 123.262-65.517 117.043-80.4557-4.333-10.4094-35.985-7.8357-78.753 4.661-3.823-3.5817-8.902-7.5283-12.065-9.8646 64.742-20.7503 115.618-25.0139 122.677-8.0577z" fill="url(#x)" fill-rule="evenodd"/><path clip-rule="evenodd" d="m867.493 50.8903c5.661 13.5988-42.265 46.4823-107.045 73.4477-64.78 26.965-121.884 37.801-127.544 24.202-3.687-8.858 15.36-25.897 46.992-44.153.176 3.238.642 6.545 1.108 9.145-13.156 9.33-20.205 17.429-18.191 22.266 4.231 10.165 46.876 2.082 95.249-18.054 48.374-20.1361 84.158-44.6996 79.927-54.8643-2.104-5.0557-13.712-5.5971-30.8-2.3866-1.82-2.6825-3.873-5.1312-5.635-6.9607 36.016-9.946 62.2-11.6246 65.939-2.6421z" fill="url(#y)" fill-rule="evenodd"/><circle cx="126.382" cy="155.981" fill="url(#z)" r="49.9445" transform="matrix(.70710678 .70710678 -.70710678 .70710678 147.311654 -43.679792)"/><path clip-rule="evenodd" d="m210.81 190.544c-4.005 9.717-44.775 2.128-91.062-16.951-46.2864-19.078-80.5627-42.42-76.5578-52.137 2.6086-6.329 20.815-5.316 45.9841 1.432-1.5449 1.722-2.9781 3.626-4.0548 5.173-11.3443-1.93-18.9863-1.4-20.4109 2.056-2.9936 7.263 22.5994 24.7 57.1634 38.946s65.011 19.908 68.004 12.645c1.489-3.613-4.094-9.742-14.335-16.744.435-2.271.634-4.543.669-6.354 23.188 13.152 37.245 25.516 34.6 31.934z" fill="url(#A)" fill-rule="evenodd"/></g><path d="m600 701h-25.349l-2.707-50.456c-.004-.09-.052-.135-.142-.135h-1.129c-.09 0-.133.044-.127.133l2.703 50.458h-110.192v-50.536c0-.014-.005-.027-.015-.036-.009-.01-.022-.015-.036-.015l-1.285-.004c-.036 0-.053.017-.053.053l-.002 50.538h-37.647c-.006-18.085-.005-36.169.002-54.253 0-.005-.006-.612-.019-1.821-.112-11.319 3.737-21.86 12.854-28.877 5.37-4.134 12.487-6.328 19.183-6.466 1.432-.03 4.288-.041 8.566-.032 1.294.002 2.274-.07 2.941-.217 3.597-.797 6.447-3.69 7.207-7.206.169-.776.253-2.135.252-4.077-.003-7.601-.004-15.201-.004-22.8 0-.071-.031-.127-.092-.166-23.113-14.765-37.102-40.612-37.346-68.049-.233-26.324 11.31-51.021 32.361-66.936 6.922-5.232 15.164-9.508 23.637-11.975 16-4.657 31.794-4.109 47.381 1.645 17.435 6.437 31.967 19.73 40.902 35.882 9.535 17.242 12.573 38.051 8.494 57.379-4.823 22.857-18.771 42.703-39.182 54.217-1.196.675-2.407 1.308-3.632 1.899-16.293 7.864-33.369 9.625-51.229 5.286-.031-.007-.047.006-.047.037l.002.895c0 .041.021.067.062.078 20.06 5.036 40.977 1.717 58.412-9.158.067-.041.101-.021.101.058v33.65c0 .081.04.122.121.123 2.737.029 5.467.047 8.19.053 6.899.017 12.001 3.571 15.848 9.031 3.541 5.026 5.933 10.474 7.176 16.343 4.619 21.818 9.232 43.637 13.84 65.457zm-49.238-76.259c-.003-.032-.019-.061-.043-.081s-.056-.029-.087-.026l-23.598 2.354c-.015.002-.03.007-.044.014s-.026.017-.036.029-.017.026-.022.041c-.004.015-.006.031-.004.046l.049.498c.003.031.019.06.043.08.025.02.056.029.087.026l23.598-2.354c.016-.002.031-.006.045-.013.013-.008.026-.018.035-.03.01-.012.018-.026.022-.041.005-.015.006-.03.005-.046zm-35.691 2.425c0-.046-.019-.09-.051-.122s-.076-.05-.122-.05h-31.13c-.046 0-.09.018-.122.05s-.051.076-.051.122v.397c0 .023.005.045.014.066.008.021.021.04.037.056s.035.029.056.037c.021.009.043.013.066.013h31.13c.023 0 .045-.004.066-.013.021-.008.04-.021.056-.037s.029-.035.038-.056c.008-.021.013-.043.013-.066z" fill="url(#B)"/><path d="m428.439 532.949c-1.495-3.4-2.793-7.211-2.943-10.851-.297-7.121 3.259-13.935 10.968-14.852.007-.002.016-.001.023.001.008.002.015.006.021.012.006.005.011.011.014.019.004.007.005.015.005.023.122 15.176 3.975 29.296 11.559 42.358.037.062.028.115-.028.162-1.52 1.266-3.877 2.009-5.835 1.356-1.733-.578-3.916-2.734-5.045-4.08-3.531-4.208-6.444-8.924-8.739-14.148z" fill="url(#C)"/><path d="m581.377 549.637c7.545-12.848 11.473-27.375 11.549-42.221.001-.148.075-.21.221-.187 3.714.593 6.568 2.392 8.563 5.397 2.267 3.418 2.704 8.452 1.905 12.428-.283 1.402-.688 2.848-1.215 4.338-2.172 6.126-5.285 11.725-9.339 16.798-1.279 1.6-2.74 3.01-4.383 4.229-2.218 1.649-5.286 1.086-7.272-.618-.056-.047-.066-.101-.029-.164z" fill="url(#D)"/><g fill="#7fa2ba"><path d="m575.83 516.883c-7.149 4.794-14.32 7.597-23.017 7.922-8.779.328-17.213-.627-24.868-5.125-.036-.02.149 2.812 1.032 3.65 3.862 3.651 13.956 6.457 22.978 5.995 13.979-.714 22.316-7.739 23.488-9.775.53-.916.731-2.901.387-2.667z"/><path d="m474.188 524.805c-8.695-.325-15.869-3.127-23.017-7.921-.345-.231-.143 1.754.383 2.67 1.172 2.036 9.509 9.061 23.488 9.775 9.022.461 19.116-2.345 22.978-5.995.769-.728.981-2.939 1.026-3.514.003-.059-.058-.098-.11-.068-7.623 4.436-16.015 5.378-24.748 5.053z"/><path d="m513.323 510.875c-.896-3.042-1.745-3.891-4.787-4.787l-3.965-1.167 3.965-1.169c3.04-.897 3.891-1.746 4.787-4.787l1.169-3.965 1.169 3.965c.896 3.041 1.745 3.89 4.787 4.787l3.965 1.169-3.965 1.169c-3.04.896-3.891 1.745-4.787 4.787l-1.169 3.964z"/></g></g></svg>