<svg width="36" height="37" viewBox="0 0 36 37" fill="none" xmlns="http://www.w3.org/2000/svg">
<circle cx="18" cy="18.7695" r="17.25" stroke="black" stroke-opacity="0.1" stroke-width="1.5"/>
<path fill-rule="evenodd" clip-rule="evenodd" d="M22.0411 11.4053C23.1383 11.4053 24.1938 11.8389 24.9702 12.617C25.7475 13.3934 26.182 14.4407 26.182 15.5371V22.0007C26.182 24.2835 24.3247 26.1326 22.0411 26.1326H13.9583C11.6748 26.1326 9.81833 24.2835 9.81833 22.0007V15.5371C9.81833 13.2544 11.6666 11.4053 13.9583 11.4053H22.0411ZM23.343 16.7565L23.4085 16.691C23.604 16.4537 23.604 16.1101 23.3995 15.8728C23.2857 15.7509 23.1295 15.6765 22.9667 15.6601C22.7948 15.6511 22.6312 15.7092 22.5077 15.8237L18.8185 18.7692C18.3439 19.1627 17.664 19.1627 17.1821 18.7692L13.5003 15.8237C13.2458 15.6355 12.894 15.6601 12.6821 15.881C12.4612 16.1019 12.4367 16.4537 12.624 16.6992L12.7312 16.8055L16.4539 19.7101C16.9121 20.0701 17.4677 20.2664 18.0494 20.2664C18.6295 20.2664 19.1948 20.0701 19.6522 19.7101L23.343 16.7565Z" fill="black" fill-opacity="0.5"/>
</svg>
