<svg fill="none" height="37" viewBox="0 0 36 37" width="36" xmlns="http://www.w3.org/2000/svg"><circle cx="18" cy="18.7598" r="17.25" stroke="#000" stroke-opacity=".6" stroke-width="1.5"/><path clip-rule="evenodd" d="m12.5253 13.4431c.511.4132.6959.3805 1.6527.3153l9.0132-.5436c.1957 0 .0326-.1957-.0326-.2175l-1.5004-1.0763c-.2827-.2175-.6741-.4784-1.4026-.4132l-8.7196.6415c-.3153.0326-.3806.1957-.2501.3153zm.5437 2.0984v9.4807c0 .511.25.6959.8263.6632l9.9047-.5762c.5763-.0326.6415-.3805.6415-.7937v-9.4155c0-.4131-.1631-.6415-.511-.6088l-10.3505.6088c-.3806.0326-.511.2283-.511.6415zm9.7743.511c.0652.2827 0 .5762-.2827.6088l-.4784.0979v7.0018c-.4132.2175-.7937.3479-1.1199.3479-.511 0-.6414-.163-1.022-.6414l-3.1204-4.9035v4.7404l.9894.2174s0 .5763-.7936.5763l-2.1963.1304c-.0652-.1304 0-.4457.2175-.511l.5762-.163v-6.2626l-.7937-.0652c-.0652-.2827.0979-.6958.5436-.7284l2.3594-.1631 3.2508 4.9578v-4.3816l-.8263-.0978c-.0652-.348.1957-.6089.511-.6415zm-12.0358-4.773 9.0785-.6632c1.109-.0979 1.4025-.0326 2.0983.4784l2.8921 2.0331c.4784.3479.6415.4458.6415.8263v11.166c0 .6958-.2501 1.109-1.1416 1.1742l-10.5354.6415c-.6741.0326-.9894-.0653-1.3373-.511l-2.1419-2.7725c-.3805-.511-.54358-.8915-.54358-1.3373v-9.9265c0-.5763.26098-1.0438.98938-1.109z" fill="#000" fill-rule="evenodd"/></svg>