<svg fill="none" height="37" viewBox="0 0 36 37" width="36" xmlns="http://www.w3.org/2000/svg"><circle cx="18" cy="18.7598" r="17.25" stroke="#000" stroke-opacity=".1" stroke-width="1.5"/><g fill="#000" fill-opacity=".5"><path d="m10.8407 19.4075.0602-.0945 3.6251-5.6715c.0121-.0188.029-.0339.049-.0439.0199-.01.0422-.0144.0645-.0128.0222.0016.0436.0092.0619.022s.0329.0303.0421.0506c.6056 1.3574 1.1282 3.0454.8835 4.0965-.1045.4323-.3908 1.0179-.713 1.5591-.0418.0789-.0875.1561-.136.2306-.0114.0168-.0267.0306-.0447.0401s-.0381.0144-.0584.0142h-3.7283c-.1003 0-.1588-.1087-.1059-.1904z"/><path d="m26.9999 20.4618v.8975c0 .0518-.0315.0976-.0772.1176-.2807.1204-1.2414.5614-1.6408 1.1169-1.0196 1.4187-1.7984 3.4478-3.5396 3.4478h-7.2636c-2.5743 0-4.66058-2.0932-4.66058-4.6764v-.0828c0-.0689.05574-.1246.12459-.1246h4.04929c.08 0 .1389.0744.1316.1533-.0285.2677.0218.5378.1447.7774.1177.2381.2997.4386.5254.5788.2256.1401.486.2144.7517.2144h2.0046v-1.565h-1.9818c-.0232-.0003-.0458-.0069-.0656-.0191-.0197-.0123-.0357-.0296-.0463-.0502-.0106-.0207-.0154-.0438-.0139-.067.0016-.0231.0094-.0454.0227-.0644.0218-.0329.046-.0669.0716-.1059.2586-.3722.4995-.7564.7219-1.1512.1818-.3177.3579-.6572.4995-.9978.0287-.0616.0516-.1246.0744-.1862.0388-.1087.0789-.2105.1076-.3122.0285-.0858.0516-.1761.0745-.2606.0671-.2893.0958-.5956.0958-.9134 0-.1246-.0055-.255-.0172-.3796-.0056-.136-.0229-.272-.0402-.4081-.0133-.122-.0319-.2433-.0557-.3637-.0299-.183-.068-.3645-.1143-.5441l-.0159-.0685c-.0346-.1246-.063-.2434-.1031-.368-.1108-.3813-.238-.7578-.381-1.1282-.0502-.1419-.1073-.2779-.1645-.414-.0844-.2048-.1706-.3907-.2492-.5669-.0401-.0803-.0744-.1533-.1087-.2277-.0382-.0837-.0779-.1668-.119-.2492-.0287-.0613-.0616-.1187-.0844-.1761l-.245-.4524c-.0077-.0137-.0112-.0294-.01-.045.0012-.0157.007-.0306.0166-.043s.0227-.0216.0376-.0266.0309-.0055.0461-.0014l1.5321.4153h.0042c.0028 0 .0045.0014.0056.0014l.2021.0558.2218.063.0817.0228v-.9106c0-.4395.3523-.796.7874-.796.2177 0 .4153.0886.5572.2333.1416.1449.2305.3423.2305.563v1.3515l.163.0458c.0134.0041.026.0104.0374.0186.0401.0301.0975.0745.1703.1288.0574.0457.119.1017.1934.1589.1475.119.3233.272.5168.4482.0515.0446.1017.0903.1477.136.2775.2554.5426.5239.7944.8047.0747.0844.1477.1703.2221.2606.0744.0917.1533.1817.2219.272.0903.1204.1876.245.272.3752.0402.0616.0859.1246.1246.1862.1087.1644.2046.335.2963.5053.0387.0789.0789.1647.1132.2492.1017.2277.1817.4599.2333.6915.0158.0502.0273.1045.0328.1533v.0114c.0173.0689.0232.1419.0288.2163.0237.2388.0102.4798-.0402.7144-.0221.1014-.0503.2013-.0844.2994-.0343.0975-.0686.199-.1132.2948-.0863.2029-.1892.3983-.3077.5843-.0388.0685-.0845.1416-.1305.2104-.0501.073-.1014.1419-.1474.209-.063.0859-.1302.1762-.199.2565-.0613.0844-.1246.1689-.1932.2433-.092.1099-.1865.2177-.2834.3233-.0575.0675-.1191.1363-.182.1979-.0614.0686-.1246.1302-.1818.1876-.0959.0959-.1761.1703-.2433.2319l-.1575.1447c-.0234.0203-.0534.0315-.0844.0315h-1.2203v1.565h1.5349c.3424-.0002.6735-.1226.9335-.3453.0903-.0786.4839-.4195.9493-.9335.0156-.0174.036-.0298.0586-.0357l4.2397-1.2258c.0186-.0052.0381-.006.0571-.0024.0189.0036.0368.0115.0522.0232.0154.0116.0279.0267.0365.044s.0133.0363.0133.0556z"/></g></svg>