<svg fill="none" height="37" viewBox="0 0 36 37" width="36" xmlns="http://www.w3.org/2000/svg"><circle cx="18" cy="18.7598" r="17.25" stroke="#000" stroke-opacity=".1" stroke-width="1.5"/><path d="m9.23527 17.5834s7.59913-3.1187 10.23463-4.2169c1.0103-.4392 4.4365-1.8448 4.4365-1.8448s1.5813-.615 1.4495.8785c-.044.6149-.3953 2.7673-.7467 5.0953-.5272 3.2944-1.0982 6.8963-1.0982 6.8963s-.0878 1.0103-.8345 1.186c-.7468.1757-1.9767-.6149-2.1963-.7907-.1758-.1317-3.2944-2.1084-4.4365-3.0747-.3075-.2636-.6589-.7907.0439-1.4056 1.5813-1.4496 3.4701-3.2505 4.6122-4.3926.5271-.5271 1.0542-1.757-1.1421-.2636-3.1187 2.1524-6.1934 4.173-6.1934 4.173s-.7029.4392-2.0206.0439c-1.3178-.3953-2.85521-.9224-2.85521-.9224s-1.05415-.6589.74678-1.3617z" fill="#000" fill-opacity=".5"/></svg>