<svg fill="none" height="37" viewBox="0 0 36 37" width="36" xmlns="http://www.w3.org/2000/svg"><circle cx="18" cy="18.7598" r="17.25" stroke="#000" stroke-opacity=".1" stroke-width="1.5"/><path d="m26.9999 13.007c-.6443.3222-1.2886.4296-2.0403.537.7517-.4296 1.2886-1.0739 1.5034-1.933-.6443.4296-1.396.6443-2.2551.8591-.6443-.6443-1.6108-1.0739-2.5773-1.0739-2.2551 0-3.9733 2.1478-3.4363 4.2955-2.8995-.1074-5.4768-1.5034-7.3023-3.6511-.9665 1.6108-.4296 3.6511 1.0738 4.725-.5369 0-1.0738-.2148-1.6108-.4296 0 1.6108 1.1813 3.1142 2.7921 3.5438-.5369.1073-1.0739.2147-1.6108.1073.4295 1.3961 1.7182 2.4699 3.329 2.4699-1.2887.9665-3.2216 1.5034-5.04718 1.2887 1.61078.9664 3.43638 1.6108 5.36928 1.6108 6.5506 0 10.2017-5.4767 9.987-10.5239.7517-.4295 1.396-1.0739 1.8255-1.8256z" fill="#000" fill-opacity=".5"/></svg>